<svg width="190" height="191" viewBox="0 0 190 191" fill="none" xmlns="http://www.w3.org/2000/svg">
<g filter="url(#filter0_d_65_2314)">
<circle cx="95" cy="91.1133" r="43" fill="white"/>
</g>
<g clip-path="url(#clip0_65_2314)">
<path d="M104.215 78.1133C101.26 78.1092 98.4002 79.1564 96.1465 81.0676C98.272 83.2216 99.62 86.0218 99.9778 89.0267C100.231 88.8949 100.513 88.8262 100.799 88.8262H101.697V88.5211C101.697 88.3721 101.736 88.2257 101.81 88.0967C101.885 87.9676 101.992 87.8605 102.121 87.786C102.25 87.7115 102.396 87.6723 102.545 87.6723C102.694 87.6724 102.841 87.7116 102.97 87.7862L106.598 89.8784C106.727 89.9528 106.834 90.0599 106.909 90.1889C106.983 90.3179 107.023 90.4643 107.023 90.6133C107.023 90.7623 106.983 90.9086 106.909 91.0377C106.834 91.1667 106.727 91.2738 106.598 91.3482L102.97 93.4404C102.841 93.5154 102.694 93.555 102.545 93.5553C102.396 93.5555 102.249 93.5164 102.12 93.4419C101.99 93.3673 101.883 93.26 101.809 93.1307C101.734 93.0014 101.695 92.8547 101.695 92.7055V92.4004H100.797C100.511 92.4004 100.23 92.3316 99.9761 92.1999C99.6187 95.2045 98.2713 98.0047 96.1465 100.159C98.4002 102.07 101.26 103.117 104.215 103.113C111.108 103.113 116.715 97.5053 116.715 90.6133C116.715 83.7212 111.108 78.1133 104.215 78.1133Z" fill="#7842E8"/>
<path d="M98.4743 90.6133C98.4737 90.1193 98.6314 89.6381 98.9241 89.2403C98.2346 82.8817 92.9291 78.1133 86.5 78.1133C79.608 78.1133 74 83.7212 74 90.6133C74 97.5053 79.608 103.113 86.5 103.113C92.9291 103.113 98.2328 98.3457 98.9241 91.9871C98.6312 91.589 98.4736 91.1075 98.4743 90.6133ZM89.1806 92.4004H86.4991C86.0252 92.4004 85.5706 92.2121 85.2355 91.8769C84.9003 91.5418 84.712 91.0872 84.712 90.6133C84.712 90.1393 84.9003 89.6848 85.2355 89.3496C85.5706 89.0145 86.0252 88.8262 86.4991 88.8262H89.1806C89.6546 88.8262 90.1091 89.0145 90.4443 89.3496C90.7794 89.6848 90.9677 90.1393 90.9677 90.6133C90.9677 91.0872 90.7794 91.5418 90.4443 91.8769C90.1091 92.2121 89.6546 92.4004 89.1806 92.4004ZM96.3289 92.4004H93.6483C93.1744 92.4004 92.7198 92.2121 92.3847 91.8769C92.0495 91.5418 91.8612 91.0872 91.8612 90.6133C91.8612 90.1393 92.0495 89.6848 92.3847 89.3496C92.7198 89.0145 93.1744 88.8262 93.6483 88.8262H96.3289C96.8029 88.8262 97.2575 89.0145 97.5926 89.3496C97.9277 89.6848 98.116 90.1393 98.116 90.6133C98.116 91.0872 97.9277 91.5418 97.5926 91.8769C97.2575 92.2121 96.8029 92.4004 96.3289 92.4004Z" fill="#7842E8"/>
</g>
<defs>
<filter id="filter0_d_65_2314" x="0" y="0.113281" width="190" height="190" filterUnits="userSpaceOnUse" color-interpolation-filters="sRGB">
<feFlood flood-opacity="0" result="BackgroundImageFix"/>
<feColorMatrix in="SourceAlpha" type="matrix" values="0 0 0 0 0 0 0 0 0 0 0 0 0 0 0 0 0 0 127 0" result="hardAlpha"/>
<feOffset dy="4"/>
<feGaussianBlur stdDeviation="26"/>
<feComposite in2="hardAlpha" operator="out"/>
<feColorMatrix type="matrix" values="0 0 0 0 0.154167 0 0 0 0 0.147101 0 0 0 0 0.147101 0 0 0 0.08 0"/>
<feBlend mode="normal" in2="BackgroundImageFix" result="effect1_dropShadow_65_2314"/>
<feBlend mode="normal" in="SourceGraphic" in2="effect1_dropShadow_65_2314" result="shape"/>
</filter>
<clipPath id="clip0_65_2314">
<rect width="50" height="50" fill="white" transform="translate(70 66.1133)"/>
</clipPath>
</defs>
</svg>
