<svg width="105" height="115" viewBox="0 0 105 115" fill="none" xmlns="http://www.w3.org/2000/svg">
<rect width="65.5842" height="90.503" rx="32.7921" transform="matrix(-0.760486 -0.649354 0.609086 -0.793104 49.876 114.365)" fill="#FA8891"/>
<g clip-path="url(#clip0_65_2176)">
<path d="M62.8008 38.3652H47.5652C47.3762 38.3654 47.1891 38.4032 47.0149 38.4765C46.8406 38.5498 46.6828 38.6571 46.5505 38.7922L38.0767 47.4492C37.8157 47.715 37.6693 48.0727 37.6689 48.4454V70.1473C37.6689 70.8325 37.8039 71.511 38.066 72.1441C38.3281 72.7772 38.7123 73.3524 39.1967 73.8369C39.681 74.3215 40.2561 74.7058 40.8889 74.968C41.5217 75.2303 42.2 75.3652 42.885 75.3652H62.8008C63.4858 75.3652 64.1641 75.2303 64.7969 74.968C65.4297 74.7058 66.0048 74.3215 66.4891 73.8369C66.9735 73.3524 67.3577 72.7772 67.6198 72.1441C67.8819 71.511 68.0169 70.8325 68.0169 70.1473V43.5832C68.0169 42.1993 67.4673 40.8721 66.4891 39.8935C65.5109 38.915 64.1842 38.3652 62.8008 38.3652ZM42.1263 47.3781L46.2043 43.2132V46.9037C46.2043 47.0295 46.1543 47.1502 46.0654 47.2391C45.9765 47.3281 45.8559 47.3781 45.7301 47.3781H42.1263ZM52.8429 64.6922H46.2043C45.827 64.6922 45.4652 64.5422 45.1984 64.2753C44.9316 64.0085 44.7817 63.6465 44.7817 63.2691C44.7817 62.8917 44.9316 62.5297 45.1984 62.2628C45.4652 61.9959 45.827 61.846 46.2043 61.846H52.8429C53.2202 61.846 53.582 61.9959 53.8488 62.2628C54.1156 62.5297 54.2655 62.8917 54.2655 63.2691C54.2655 63.6465 54.1156 64.0085 53.8488 64.2753C53.582 64.5422 53.2202 64.6922 52.8429 64.6922ZM59.4815 57.814H46.2043C45.827 57.814 45.4652 57.664 45.1984 57.3971C44.9316 57.1303 44.7817 56.7683 44.7817 56.3909C44.7817 56.0135 44.9316 55.6515 45.1984 55.3846C45.4652 55.1177 45.827 54.9678 46.2043 54.9678H59.4815C59.8588 54.9678 60.2206 55.1177 60.4874 55.3846C60.7542 55.6515 60.9041 56.0135 60.9041 56.3909C60.9041 56.7683 60.7542 57.1303 60.4874 57.3971C60.2206 57.664 59.8588 57.814 59.4815 57.814Z" fill="white"/>
</g>
<defs>
<clipPath id="clip0_65_2176">
<rect width="37.9349" height="40" fill="white" transform="translate(33.875 37.3652)"/>
</clipPath>
</defs>
</svg>
