<svg width="190" height="191" viewBox="0 0 190 191" fill="none" xmlns="http://www.w3.org/2000/svg">
<g filter="url(#filter0_d_65_2329)">
<circle cx="95" cy="91.1133" r="43" fill="white"/>
</g>
<g clip-path="url(#clip0_65_2329)">
<path d="M110.57 105.614L105.996 95.1895C105.239 95.9929 104.399 96.7276 103.463 97.3642C100.959 99.0765 98.0349 99.9887 95.0042 100.011C94.9674 100.012 94.9308 100.015 94.8938 100.015C90.848 100.015 87.0199 98.4169 84.192 95.6431L80.0544 106.243C79.9365 106.546 80.014 106.89 80.2501 107.113C80.4866 107.336 80.834 107.393 81.1293 107.257L87.1868 104.474L89.7567 110.625C89.8808 110.921 90.171 111.114 90.492 111.114C90.4951 111.114 90.4982 111.114 90.5013 111.114C90.8262 111.11 91.116 110.91 91.2342 110.607L95.198 100.453L99.5738 110.437C99.701 110.727 99.9881 110.914 100.304 110.914C100.311 110.914 100.319 110.914 100.327 110.914C100.651 110.904 100.938 110.699 101.051 110.394L103.369 104.14L109.538 106.672C109.839 106.795 110.184 106.723 110.411 106.491C110.638 106.259 110.701 105.912 110.57 105.614Z" fill="#7842E8"/>
<path d="M106.154 77.0754C104.098 74.0638 100.991 72.0322 97.4058 71.3549C93.8206 70.6777 90.1955 71.4346 87.1838 73.4901C80.9614 77.7367 79.36 86.2457 83.5986 92.4682C86.2437 96.3323 90.5301 98.4197 94.8961 98.4197C97.5492 98.4197 100.226 97.6469 102.569 96.0454C105.588 93.9899 107.62 90.8827 108.289 87.3054C108.448 86.4529 108.528 85.5924 108.528 84.7399C108.528 82.0231 107.715 79.37 106.154 77.0754ZM101.74 80.8838C101.485 80.8838 101.23 80.7643 101.079 80.5332C99.9474 78.884 98.2424 77.7606 96.2665 77.3941C94.2986 77.0196 92.2988 77.4339 90.6416 78.5653C90.2831 78.8202 89.7812 78.7246 89.5342 78.3581C89.2872 77.9917 89.3828 77.4977 89.7413 77.2507C91.7571 75.8803 94.1791 75.3784 96.5613 75.8245C98.9515 76.2787 101.023 77.6331 102.393 79.6409C102.64 79.9994 102.553 80.5013 102.186 80.7483C102.051 80.844 101.891 80.8838 101.74 80.8838ZM103.875 86.1342C103.819 86.5246 103.477 86.8114 103.086 86.8114C103.047 86.8114 103.007 86.8034 102.967 86.7955C102.537 86.7317 102.234 86.3254 102.298 85.8952C102.433 85.0188 102.409 84.1424 102.242 83.2819C102.154 82.8517 102.433 82.4294 102.863 82.3418C103.294 82.2621 103.716 82.5409 103.804 82.9712C104.011 84.0069 104.035 85.0746 103.875 86.1342Z" fill="#7842E8"/>
</g>
<defs>
<filter id="filter0_d_65_2329" x="0" y="0.113281" width="190" height="190" filterUnits="userSpaceOnUse" color-interpolation-filters="sRGB">
<feFlood flood-opacity="0" result="BackgroundImageFix"/>
<feColorMatrix in="SourceAlpha" type="matrix" values="0 0 0 0 0 0 0 0 0 0 0 0 0 0 0 0 0 0 127 0" result="hardAlpha"/>
<feOffset dy="4"/>
<feGaussianBlur stdDeviation="26"/>
<feComposite in2="hardAlpha" operator="out"/>
<feColorMatrix type="matrix" values="0 0 0 0 0.154167 0 0 0 0 0.147101 0 0 0 0 0.147101 0 0 0 0.08 0"/>
<feBlend mode="normal" in2="BackgroundImageFix" result="effect1_dropShadow_65_2329"/>
<feBlend mode="normal" in="SourceGraphic" in2="effect1_dropShadow_65_2329" result="shape"/>
</filter>
<clipPath id="clip0_65_2329">
<rect width="50" height="50" fill="white" transform="translate(70 66.1133)"/>
</clipPath>
</defs>
</svg>
