<svg width="106" height="115" viewBox="0 0 106 115" fill="none" xmlns="http://www.w3.org/2000/svg">
<rect width="65.5842" height="90.503" rx="32.7921" transform="matrix(-0.760486 -0.649354 0.609086 -0.793104 50.209 114.365)" fill="#E689DD"/>
<g clip-path="url(#clip0_65_2151)">
<path d="M42.1514 72.8652C44.6409 75.4902 48.6715 75.4902 51.2795 72.8652L54.0061 69.9902L65.1495 58.2402L67.876 55.3652C70.3655 52.7402 70.3655 48.4902 67.876 45.7402L64.2011 41.8652C61.7116 39.2402 57.681 39.2402 55.073 41.8652L52.3464 44.7402L41.2031 56.4902L38.4765 59.3652C35.987 61.9902 35.987 66.2402 38.4765 68.9902L42.1514 72.8652ZM60.7632 53.4902C61.1189 53.4902 61.356 53.6152 61.5931 53.8652C61.8302 54.1152 61.9487 54.3652 61.9487 54.7402C61.9487 55.1152 61.8302 55.3652 61.5931 55.6152C61.356 55.8652 61.1189 55.9902 60.7632 55.9902C60.4076 55.9902 60.1705 55.8652 59.9334 55.6152C59.6963 55.3652 59.5778 55.1152 59.5778 54.7402C59.5778 54.1152 60.052 53.4902 60.7632 53.4902ZM55.6657 48.1152C56.0214 48.1152 56.2585 48.2402 56.4956 48.4902C56.7326 48.7402 56.8512 48.9902 56.8512 49.3652C56.8512 49.7402 56.7326 49.9902 56.4956 50.2402C56.2585 50.4902 56.0214 50.6152 55.6657 50.6152C55.3101 50.6152 55.073 50.4902 54.8359 50.2402C54.5988 49.9902 54.4803 49.7402 54.4803 49.3652C54.4803 48.7402 55.073 48.1152 55.6657 48.1152ZM55.6657 53.4902C56.0214 53.4902 56.2585 53.6152 56.4956 53.8652C56.7326 54.1152 56.8512 54.3652 56.8512 54.7402C56.8512 55.1152 56.7326 55.3652 56.4956 55.6152C56.2585 55.8652 56.0214 55.9902 55.6657 55.9902C55.3101 55.9902 55.073 55.8652 54.8359 55.6152C54.5988 55.3652 54.4803 55.1152 54.4803 54.7402C54.4803 53.9902 55.073 53.4902 55.6657 53.4902ZM55.6657 58.7402C56.0214 58.7402 56.2585 58.8652 56.4956 59.1152C56.7326 59.3652 56.8512 59.6152 56.8512 59.9902C56.8512 60.3652 56.7326 60.6152 56.4956 60.8652C56.2585 61.1152 56.0214 61.2402 55.6657 61.2402C55.3101 61.2402 55.073 61.1152 54.8359 60.8652C54.5988 60.6152 54.4803 60.3652 54.4803 59.9902C54.4803 59.3652 55.073 58.7402 55.6657 58.7402ZM50.6868 53.4902C51.0424 53.4902 51.2795 53.6152 51.5166 53.8652C51.7537 54.1152 51.8722 54.3652 51.8722 54.7402C51.8722 55.1152 51.7537 55.3652 51.5166 55.6152C51.2795 55.8652 51.0424 55.9902 50.6868 55.9902C50.3311 55.9902 50.094 55.8652 49.857 55.6152C49.6199 55.3652 49.5013 55.1152 49.5013 54.7402C49.5013 53.9902 49.9755 53.4902 50.6868 53.4902ZM50.6868 58.7402C51.0424 58.7402 51.2795 58.8652 51.5166 59.1152C51.7537 59.3652 51.8722 59.6152 51.8722 59.9902C51.8722 60.3652 51.7537 60.6152 51.5166 60.8652C51.2795 61.1152 51.0424 61.2402 50.6868 61.2402C50.3311 61.2402 50.094 61.1152 49.857 60.8652C49.6199 60.6152 49.5013 60.3652 49.5013 59.9902C49.5013 59.3652 50.094 58.7402 50.6868 58.7402ZM50.6868 64.1152C51.0424 64.1152 51.2795 64.2402 51.5166 64.4902C51.7537 64.7402 51.8722 64.9902 51.8722 65.3652C51.8722 65.7402 51.7537 65.9902 51.5166 66.2402C51.2795 66.4902 51.0424 66.6152 50.6868 66.6152C50.3311 66.6152 50.094 66.4902 49.857 66.2402C49.6199 65.9902 49.5013 65.7402 49.5013 65.3652C49.5013 64.6152 50.094 64.1152 50.6868 64.1152ZM45.5893 58.7402C45.9449 58.7402 46.182 58.8652 46.4191 59.1152C46.6562 59.3652 46.7747 59.6152 46.7747 59.9902C46.7747 60.3652 46.6562 60.6152 46.4191 60.8652C46.182 61.1152 45.9449 61.2402 45.5893 61.2402C45.2336 61.2402 44.9965 61.1152 44.7594 60.8652C44.5224 60.6152 44.4038 60.3652 44.4038 59.9902C44.4038 59.3652 44.9965 58.7402 45.5893 58.7402Z" fill="white"/>
<path d="M67.639 59.1152L54.8359 72.6152L55.073 72.8652C57.5625 75.4902 61.5931 75.4902 64.2011 72.8652L67.8761 68.9902C70.3655 66.3652 70.3655 62.1152 67.8761 59.3652L67.639 59.1152Z" fill="white"/>
<path d="M38.7136 55.6152L51.5166 42.1152L51.2795 41.8652C48.79 39.2402 44.7594 39.2402 42.1514 41.8652L38.4765 45.7402C35.987 48.3652 35.987 52.6152 38.4765 55.3652L38.7136 55.6152Z" fill="white"/>
</g>
<defs>
<clipPath id="clip0_65_2151">
<rect width="37.9349" height="40" fill="white" transform="translate(34.208 37.3652)"/>
</clipPath>
</defs>
</svg>
