<svg width="287" height="331" viewBox="0 0 287 331" fill="none" xmlns="http://www.w3.org/2000/svg">
<g filter="url(#filter0_d_65_2380)">
<rect x="22" y="18" width="242.371" height="286.229" rx="9.23318" fill="white"/>
<g clip-path="url(#clip0_65_2380)">
<circle cx="37.3883" cy="74.7437" r="3.07773" fill="#D2D2D2"/>
<path d="M47.9507 78.2441V77.4501H49.7327C50.2066 77.4501 50.6221 77.3485 50.9792 77.1454C51.3362 76.9361 51.6132 76.6499 51.8101 76.2867C52.0133 75.9235 52.1148 75.505 52.1148 75.031C52.1148 74.5632 52.0133 74.1477 51.8101 73.7845C51.607 73.4213 51.3269 73.1382 50.9699 72.9351C50.6129 72.7319 50.2005 72.6304 49.7327 72.6304H47.9599V71.8363H49.7511C50.219 71.8363 50.6498 71.9163 51.0438 72.0764C51.4439 72.2364 51.7886 72.4611 52.0779 72.7504C52.3734 73.0397 52.6011 73.3783 52.7612 73.766C52.9274 74.1538 53.0105 74.5786 53.0105 75.0402C53.0105 75.4957 52.9274 75.9205 52.7612 76.3144C52.6011 76.7022 52.3764 77.0407 52.0871 77.3301C51.7978 77.6194 51.4531 77.844 51.053 78.0041C50.6591 78.1641 50.2313 78.2441 49.7696 78.2441H47.9507ZM47.3782 78.2441V71.8363H48.2461V78.2441H47.3782ZM54.0744 78.2441V73.8584H54.9054V78.2441H54.0744ZM54.4899 72.9812C54.336 72.9812 54.2099 72.932 54.1114 72.8335C54.0129 72.7289 53.9636 72.5996 53.9636 72.4457C53.9636 72.298 54.0129 72.1749 54.1114 72.0764C54.2099 71.9717 54.336 71.9194 54.4899 71.9194C54.6438 71.9194 54.77 71.9717 54.8685 72.0764C54.967 72.1749 55.0162 72.298 55.0162 72.4457C55.0162 72.5996 54.967 72.7289 54.8685 72.8335C54.77 72.932 54.6438 72.9812 54.4899 72.9812ZM57.635 78.2441L55.6222 73.8584H56.5455L58.1613 77.5609H57.6258L59.2509 73.8584H60.1372L58.1244 78.2441H57.635ZM62.6781 78.3365C62.2472 78.3365 61.8594 78.2349 61.5147 78.0318C61.17 77.8286 60.8961 77.5547 60.693 77.21C60.4898 76.8592 60.3883 76.4683 60.3883 76.0374C60.3883 75.6127 60.4898 75.231 60.693 74.8925C60.8961 74.5478 61.17 74.2739 61.5147 74.0707C61.8594 73.8676 62.2472 73.766 62.6781 73.766C63.1028 73.766 63.4875 73.8676 63.8322 74.0707C64.1831 74.2677 64.4601 74.5386 64.6632 74.8833C64.8664 75.228 64.9679 75.6127 64.9679 76.0374C64.9679 76.4683 64.8664 76.8592 64.6632 77.21C64.4601 77.5547 64.1831 77.8286 63.8322 78.0318C63.4875 78.2349 63.1028 78.3365 62.6781 78.3365ZM62.6781 77.5332C62.9551 77.5332 63.2013 77.4686 63.4167 77.3393C63.6322 77.21 63.8015 77.0346 63.9246 76.813C64.0477 76.5852 64.1092 76.3267 64.1092 76.0374C64.1092 75.7543 64.0446 75.5019 63.9153 75.2803C63.7922 75.0587 63.623 74.8863 63.4075 74.7632C63.1982 74.634 62.9551 74.5693 62.6781 74.5693C62.4011 74.5693 62.1549 74.634 61.9394 74.7632C61.724 74.8863 61.5547 75.0587 61.4316 75.2803C61.3085 75.5019 61.247 75.7543 61.247 76.0374C61.247 76.3267 61.3085 76.5852 61.4316 76.813C61.5547 77.0346 61.724 77.21 61.9394 77.3393C62.1549 77.4686 62.4011 77.5332 62.6781 77.5332ZM65.9042 78.2441V73.8584H66.7352V78.2441H65.9042ZM66.7352 75.7419L66.4213 75.6035C66.4213 75.0433 66.5505 74.597 66.8091 74.2646C67.0676 73.9322 67.44 73.766 67.9263 73.766C68.1479 73.766 68.3479 73.8061 68.5264 73.8861C68.705 73.9599 68.8712 74.0861 69.025 74.2646L68.4803 74.8279C68.3879 74.7294 68.2864 74.6586 68.1756 74.6155C68.0648 74.5724 67.9355 74.5509 67.7878 74.5509C67.48 74.5509 67.2276 74.6494 67.0307 74.8463C66.8337 75.0433 66.7352 75.3418 66.7352 75.7419ZM71.4694 78.3365C71.0386 78.3365 70.6477 78.2349 70.2968 78.0318C69.9521 77.8286 69.6782 77.5547 69.4751 77.21C69.2781 76.8592 69.1796 76.4714 69.1796 76.0466C69.1796 75.6158 69.2781 75.228 69.4751 74.8833C69.6782 74.5386 69.9521 74.2677 70.2968 74.0707C70.6477 73.8676 71.0386 73.766 71.4694 73.766C71.808 73.766 72.1219 73.8307 72.4112 73.9599C72.7005 74.0831 72.9498 74.2646 73.1591 74.5047L72.6051 75.0587C72.4697 74.8987 72.3035 74.7786 72.1065 74.6986C71.9157 74.6124 71.7034 74.5693 71.4694 74.5693C71.1925 74.5693 70.9462 74.634 70.7308 74.7632C70.5154 74.8863 70.3461 75.0587 70.223 75.2803C70.0999 75.5019 70.0383 75.7573 70.0383 76.0466C70.0383 76.336 70.0999 76.5914 70.223 76.813C70.3461 77.0346 70.5154 77.21 70.7308 77.3393C70.9462 77.4686 71.1925 77.5332 71.4694 77.5332C71.7034 77.5332 71.9157 77.4932 72.1065 77.4132C72.3035 77.327 72.4728 77.2039 72.6144 77.0438L73.1591 77.5978C72.956 77.8317 72.7067 78.0133 72.4112 78.1426C72.1219 78.2718 71.808 78.3365 71.4694 78.3365ZM75.9244 78.3365C75.4873 78.3365 75.0934 78.238 74.7425 78.041C74.3917 77.8379 74.1147 77.564 73.9116 77.2193C73.7084 76.8746 73.6069 76.4837 73.6069 76.0466C73.6069 75.6158 73.7053 75.228 73.9023 74.8833C74.1054 74.5386 74.3763 74.2677 74.7148 74.0707C75.0595 73.8676 75.4443 73.766 75.869 73.766C76.2752 73.766 76.6323 73.8584 76.94 74.043C77.254 74.2277 77.4971 74.4832 77.6695 74.8094C77.848 75.1356 77.9372 75.505 77.9372 75.9174C77.9372 75.9789 77.9341 76.0466 77.928 76.1205C77.9218 76.1882 77.9095 76.2682 77.8911 76.3606H74.1885V75.6681H77.4479L77.1432 75.9358C77.1432 75.6404 77.0908 75.3911 76.9862 75.188C76.8816 74.9787 76.7338 74.8186 76.543 74.7078C76.3522 74.5909 76.1214 74.5324 75.8505 74.5324C75.5674 74.5324 75.3181 74.594 75.1026 74.7171C74.8872 74.8402 74.721 75.0125 74.604 75.2341C74.4871 75.4557 74.4286 75.7173 74.4286 76.0189C74.4286 76.3267 74.4902 76.5976 74.6133 76.8315C74.7364 77.0592 74.9118 77.2377 75.1396 77.367C75.3673 77.4901 75.6289 77.5517 75.9244 77.5517C76.1706 77.5517 76.3953 77.5086 76.5984 77.4224C76.8077 77.3362 76.9862 77.2069 77.1339 77.0346L77.6695 77.5794C77.4602 77.8256 77.2016 78.0133 76.8939 78.1426C76.5923 78.2718 76.2691 78.3365 75.9244 78.3365Z" fill="#2E2E32" fill-opacity="0.8"/>
<path d="M225.828 72.2076C226.415 71.3865 227.636 71.3865 228.223 72.2076L230.627 75.5683C231.324 76.5427 230.627 77.8972 229.429 77.8972H224.621C223.423 77.8972 222.727 76.5427 223.424 75.5683L225.828 72.2076Z" fill="#0BC420"/>
<path d="M238.657 78.2441V71.8363H239.516V78.2441H238.657ZM237.346 72.6119V71.8363H239.423V72.6119H237.346ZM241.49 78.2441L243.891 72.3441L244.749 72.3718L242.404 78.2441H241.49ZM240.484 72.6119V71.8363H244.749V72.3718L244.371 72.6119H240.484ZM246.803 74.3385C246.569 74.3385 246.353 74.28 246.156 74.1631C245.959 74.0461 245.802 73.8892 245.686 73.6922C245.569 73.4952 245.51 73.2767 245.51 73.0366C245.51 72.7904 245.565 72.5719 245.676 72.3811C245.793 72.1903 245.95 72.0364 246.147 71.9194C246.344 71.8025 246.563 71.744 246.803 71.744C247.049 71.744 247.271 71.8025 247.468 71.9194C247.664 72.0364 247.821 72.1903 247.938 72.3811C248.055 72.5719 248.114 72.7904 248.114 73.0366C248.114 73.2767 248.055 73.4952 247.938 73.6922C247.821 73.8892 247.664 74.0461 247.468 74.1631C247.277 74.28 247.055 74.3385 246.803 74.3385ZM246.803 73.683C246.987 73.683 247.138 73.6245 247.255 73.5075C247.372 73.3844 247.431 73.2274 247.431 73.0366C247.431 72.8458 247.369 72.6919 247.246 72.575C247.129 72.458 246.981 72.3995 246.803 72.3995C246.624 72.3995 246.476 72.458 246.36 72.575C246.249 72.6919 246.193 72.8458 246.193 73.0366C246.193 73.2274 246.249 73.3844 246.36 73.5075C246.476 73.6245 246.624 73.683 246.803 73.683ZM249.379 78.3365C249.139 78.3365 248.92 78.278 248.723 78.161C248.526 78.0441 248.369 77.8902 248.252 77.6994C248.135 77.5024 248.077 77.2808 248.077 77.0346C248.077 76.7945 248.135 76.5791 248.252 76.3883C248.369 76.1913 248.526 76.0343 248.723 75.9174C248.92 75.8004 249.139 75.7419 249.379 75.7419C249.619 75.7419 249.837 75.8004 250.034 75.9174C250.237 76.0343 250.398 76.1913 250.514 76.3883C250.631 76.5791 250.69 76.7945 250.69 77.0346C250.69 77.2808 250.631 77.5024 250.514 77.6994C250.398 77.8902 250.241 78.0441 250.044 78.161C249.847 78.278 249.625 78.3365 249.379 78.3365ZM249.379 77.6809C249.563 77.6809 249.714 77.6224 249.831 77.5055C249.948 77.3824 250.007 77.2254 250.007 77.0346C250.007 76.8499 249.945 76.6991 249.822 76.5822C249.705 76.4591 249.557 76.3975 249.379 76.3975C249.2 76.3975 249.053 76.4591 248.936 76.5822C248.819 76.6991 248.76 76.8499 248.76 77.0346C248.76 77.2254 248.819 77.3824 248.936 77.5055C249.053 77.6224 249.2 77.6809 249.379 77.6809ZM245.621 78.2441L249.73 71.8363H250.57L246.461 78.2441H245.621Z" fill="#0BC420"/>
<line x1="34.3105" y1="91.0918" x2="251.29" y2="91.0919" stroke="#DBDADF" stroke-opacity="0.3" stroke-width="0.769431"/>
<circle cx="37.3883" cy="111.289" r="3.07773" fill="#D2D2D2"/>
<path d="M47.3782 114.789V108.381H48.2461V114.789H47.3782ZM47.9691 111.973V111.179H51.3115V111.973H47.9691ZM47.9691 109.175V108.381H51.4685V109.175H47.9691ZM54.145 114.881C53.7449 114.881 53.3817 114.783 53.0555 114.586C52.7292 114.383 52.4707 114.109 52.2799 113.764C52.0952 113.419 52.0029 113.032 52.0029 112.601C52.0029 112.17 52.0952 111.782 52.2799 111.437C52.4707 111.093 52.7261 110.819 53.0462 110.616C53.3725 110.413 53.7387 110.311 54.145 110.311C54.4774 110.311 54.7728 110.382 55.0314 110.523C55.296 110.659 55.5084 110.85 55.6685 111.096C55.8285 111.336 55.9177 111.616 55.9362 111.936V113.256C55.9177 113.57 55.8285 113.85 55.6685 114.097C55.5146 114.343 55.3053 114.537 55.0406 114.678C54.7821 114.814 54.4835 114.881 54.145 114.881ZM54.2835 114.097C54.6959 114.097 55.0283 113.958 55.2807 113.681C55.533 113.398 55.6592 113.038 55.6592 112.601C55.6592 112.299 55.6007 112.038 55.4838 111.816C55.373 111.588 55.2129 111.413 55.0037 111.29C54.7944 111.16 54.5512 111.096 54.2742 111.096C53.9972 111.096 53.751 111.16 53.5356 111.29C53.3263 111.419 53.1601 111.597 53.037 111.825C52.92 112.047 52.8616 112.302 52.8616 112.592C52.8616 112.887 52.92 113.149 53.037 113.376C53.1601 113.598 53.3294 113.773 53.5448 113.903C53.7603 114.032 54.0065 114.097 54.2835 114.097ZM55.6038 114.789V113.607L55.7608 112.536L55.6038 111.474V110.403H56.444V114.789H55.6038ZM57.6539 114.789V110.403H58.4849V114.789H57.6539ZM60.6177 114.789V112.139C60.6177 111.813 60.5162 111.557 60.313 111.373C60.1161 111.182 59.8668 111.087 59.5651 111.087C59.362 111.087 59.1804 111.13 59.0204 111.216C58.8603 111.302 58.7311 111.422 58.6326 111.576C58.5341 111.73 58.4849 111.914 58.4849 112.13L58.1432 111.964C58.1432 111.631 58.214 111.342 58.3556 111.096C58.5033 110.85 58.7034 110.659 58.9558 110.523C59.2081 110.382 59.4913 110.311 59.8052 110.311C60.113 110.311 60.39 110.379 60.6362 110.514C60.8886 110.65 61.0855 110.84 61.2271 111.087C61.3748 111.333 61.4487 111.625 61.4487 111.964V114.789H60.6177ZM63.5816 114.789V112.139C63.5816 111.813 63.48 111.557 63.2769 111.373C63.0799 111.182 62.8337 111.087 62.5382 111.087C62.3351 111.087 62.1504 111.13 61.9842 111.216C61.8242 111.302 61.6949 111.422 61.5964 111.576C61.498 111.73 61.4487 111.914 61.4487 112.13L60.9778 111.964C60.9963 111.625 61.0855 111.336 61.2456 111.096C61.4118 110.85 61.6241 110.659 61.8827 110.523C62.1412 110.382 62.4244 110.311 62.7321 110.311C63.0522 110.311 63.3384 110.379 63.5908 110.514C63.8432 110.65 64.0432 110.84 64.191 111.087C64.3449 111.333 64.4218 111.628 64.4218 111.973V114.789H63.5816ZM65.5618 114.789V110.403H66.3928V114.789H65.5618ZM65.9773 109.526C65.8234 109.526 65.6972 109.477 65.5987 109.378C65.5002 109.274 65.451 109.145 65.451 108.991C65.451 108.843 65.5002 108.72 65.5987 108.621C65.6972 108.517 65.8234 108.464 65.9773 108.464C66.1312 108.464 66.2574 108.517 66.3559 108.621C66.4543 108.72 66.5036 108.843 66.5036 108.991C66.5036 109.145 66.4543 109.274 66.3559 109.378C66.2574 109.477 66.1312 109.526 65.9773 109.526ZM67.6174 114.789V108.197H68.4484V114.789H67.6174ZM71.1046 114.826L69.2026 110.403H70.1259L71.5386 113.866H71.2431L72.7296 110.403H73.653L71.6032 114.826H71.1046ZM69.8489 116.626L71.1415 113.977L71.6032 114.826L70.7722 116.626H69.8489ZM76.4753 114.789V108.381H77.3433V114.789H76.4753ZM77.0663 114.789V113.995H80.501V114.789H77.0663ZM83.0978 114.881C82.6977 114.881 82.3346 114.783 82.0083 114.586C81.6821 114.383 81.4236 114.109 81.2327 113.764C81.0481 113.419 80.9557 113.032 80.9557 112.601C80.9557 112.17 81.0481 111.782 81.2327 111.437C81.4236 111.093 81.679 110.819 81.9991 110.616C82.3253 110.413 82.6916 110.311 83.0978 110.311C83.4302 110.311 83.7257 110.382 83.9842 110.523C84.2489 110.659 84.4613 110.85 84.6213 111.096C84.7814 111.336 84.8706 111.616 84.8891 111.936V113.256C84.8706 113.57 84.7814 113.85 84.6213 114.097C84.4674 114.343 84.2581 114.537 83.9935 114.678C83.7349 114.814 83.4364 114.881 83.0978 114.881ZM83.2363 114.097C83.6488 114.097 83.9812 113.958 84.2335 113.681C84.4859 113.398 84.6121 113.038 84.6121 112.601C84.6121 112.299 84.5536 112.038 84.4367 111.816C84.3259 111.588 84.1658 111.413 83.9565 111.29C83.7472 111.16 83.5041 111.096 83.2271 111.096C82.9501 111.096 82.7039 111.16 82.4885 111.29C82.2792 111.419 82.113 111.597 81.9899 111.825C81.8729 112.047 81.8144 112.302 81.8144 112.592C81.8144 112.887 81.8729 113.149 81.9899 113.376C82.113 113.598 82.2822 113.773 82.4977 113.903C82.7131 114.032 82.9593 114.097 83.2363 114.097ZM84.5567 114.789V113.607L84.7136 112.536L84.5567 111.474V110.403H85.3969V114.789H84.5567ZM87.8444 114.789L86.1086 110.403H86.9765L88.2322 113.82H87.9552L89.2017 110.403H89.6818L90.9283 113.82H90.6513L91.907 110.403H92.7749L91.0483 114.789H90.559L89.294 111.474H89.5987L88.3245 114.789H87.8444Z" fill="#2E2E32" fill-opacity="0.8"/>
<path d="M225.828 113.826C226.415 114.647 227.636 114.647 228.223 113.826L230.627 110.465C231.324 109.491 230.627 108.136 229.429 108.136H224.621C223.423 108.136 222.727 109.491 223.424 110.465L225.828 113.826Z" fill="#F83939"/>
<path d="M238.657 114.789V108.381H239.516V114.789H238.657ZM237.346 109.157V108.381H239.423V109.157H237.346ZM241.49 114.789L243.891 108.889L244.749 108.917L242.404 114.789H241.49ZM240.484 109.157V108.381H244.749V108.917L244.371 109.157H240.484ZM246.803 110.883C246.569 110.883 246.353 110.825 246.156 110.708C245.959 110.591 245.802 110.434 245.686 110.237C245.569 110.04 245.51 109.822 245.51 109.582C245.51 109.335 245.565 109.117 245.676 108.926C245.793 108.735 245.95 108.581 246.147 108.464C246.344 108.347 246.563 108.289 246.803 108.289C247.049 108.289 247.271 108.347 247.468 108.464C247.664 108.581 247.821 108.735 247.938 108.926C248.055 109.117 248.114 109.335 248.114 109.582C248.114 109.822 248.055 110.04 247.938 110.237C247.821 110.434 247.664 110.591 247.468 110.708C247.277 110.825 247.055 110.883 246.803 110.883ZM246.803 110.228C246.987 110.228 247.138 110.169 247.255 110.052C247.372 109.929 247.431 109.772 247.431 109.582C247.431 109.391 247.369 109.237 247.246 109.12C247.129 109.003 246.981 108.944 246.803 108.944C246.624 108.944 246.476 109.003 246.36 109.12C246.249 109.237 246.193 109.391 246.193 109.582C246.193 109.772 246.249 109.929 246.36 110.052C246.476 110.169 246.624 110.228 246.803 110.228ZM249.379 114.881C249.139 114.881 248.92 114.823 248.723 114.706C248.526 114.589 248.369 114.435 248.252 114.244C248.135 114.047 248.077 113.826 248.077 113.58C248.077 113.339 248.135 113.124 248.252 112.933C248.369 112.736 248.526 112.579 248.723 112.462C248.92 112.345 249.139 112.287 249.379 112.287C249.619 112.287 249.837 112.345 250.034 112.462C250.237 112.579 250.398 112.736 250.514 112.933C250.631 113.124 250.69 113.339 250.69 113.58C250.69 113.826 250.631 114.047 250.514 114.244C250.398 114.435 250.241 114.589 250.044 114.706C249.847 114.823 249.625 114.881 249.379 114.881ZM249.379 114.226C249.563 114.226 249.714 114.167 249.831 114.05C249.948 113.927 250.007 113.77 250.007 113.58C250.007 113.395 249.945 113.244 249.822 113.127C249.705 113.004 249.557 112.942 249.379 112.942C249.2 112.942 249.053 113.004 248.936 113.127C248.819 113.244 248.76 113.395 248.76 113.58C248.76 113.77 248.819 113.927 248.936 114.05C249.053 114.167 249.2 114.226 249.379 114.226ZM245.621 114.789L249.73 108.381H250.57L246.461 114.789H245.621Z" fill="#F83939"/>
<line x1="34.3105" y1="127.637" x2="251.29" y2="127.637" stroke="#DBDADF" stroke-opacity="0.3" stroke-width="0.769431"/>
<circle cx="37.3883" cy="147.832" r="3.07773" fill="#D2D2D2"/>
<path d="M47.9507 151.332V150.538H49.7327C50.2066 150.538 50.6221 150.436 50.9792 150.233C51.3362 150.024 51.6132 149.738 51.8101 149.375C52.0133 149.011 52.1148 148.593 52.1148 148.119C52.1148 147.651 52.0133 147.236 51.8101 146.872C51.607 146.509 51.3269 146.226 50.9699 146.023C50.6129 145.82 50.2005 145.718 49.7327 145.718H47.9599V144.924H49.7511C50.219 144.924 50.6498 145.004 51.0438 145.164C51.4439 145.324 51.7886 145.549 52.0779 145.838C52.3734 146.128 52.6011 146.466 52.7612 146.854C52.9274 147.242 53.0105 147.666 53.0105 148.128C53.0105 148.584 52.9274 149.008 52.7612 149.402C52.6011 149.79 52.3764 150.129 52.0871 150.418C51.7978 150.707 51.4531 150.932 51.053 151.092C50.6591 151.252 50.2313 151.332 49.7696 151.332H47.9507ZM47.3782 151.332V144.924H48.2461V151.332H47.3782ZM54.0744 151.332V146.946H54.9054V151.332H54.0744ZM54.4899 146.069C54.336 146.069 54.2099 146.02 54.1114 145.921C54.0129 145.817 53.9636 145.687 53.9636 145.534C53.9636 145.386 54.0129 145.263 54.1114 145.164C54.2099 145.06 54.336 145.007 54.4899 145.007C54.6438 145.007 54.77 145.06 54.8685 145.164C54.967 145.263 55.0162 145.386 55.0162 145.534C55.0162 145.687 54.967 145.817 54.8685 145.921C54.77 146.02 54.6438 146.069 54.4899 146.069ZM57.635 151.332L55.6222 146.946H56.5455L58.1613 150.649H57.6258L59.2509 146.946H60.1372L58.1244 151.332H57.635ZM62.6781 151.424C62.2472 151.424 61.8594 151.323 61.5147 151.12C61.17 150.917 60.8961 150.643 60.693 150.298C60.4898 149.947 60.3883 149.556 60.3883 149.125C60.3883 148.701 60.4898 148.319 60.693 147.98C60.8961 147.636 61.17 147.362 61.5147 147.159C61.8594 146.956 62.2472 146.854 62.6781 146.854C63.1028 146.854 63.4875 146.956 63.8322 147.159C64.1831 147.356 64.4601 147.626 64.6632 147.971C64.8664 148.316 64.9679 148.701 64.9679 149.125C64.9679 149.556 64.8664 149.947 64.6632 150.298C64.4601 150.643 64.1831 150.917 63.8322 151.12C63.4875 151.323 63.1028 151.424 62.6781 151.424ZM62.6781 150.621C62.9551 150.621 63.2013 150.556 63.4167 150.427C63.6322 150.298 63.8015 150.122 63.9246 149.901C64.0477 149.673 64.1092 149.415 64.1092 149.125C64.1092 148.842 64.0446 148.59 63.9153 148.368C63.7922 148.147 63.623 147.974 63.4075 147.851C63.1982 147.722 62.9551 147.657 62.6781 147.657C62.4011 147.657 62.1549 147.722 61.9394 147.851C61.724 147.974 61.5547 148.147 61.4316 148.368C61.3085 148.59 61.247 148.842 61.247 149.125C61.247 149.415 61.3085 149.673 61.4316 149.901C61.5547 150.122 61.724 150.298 61.9394 150.427C62.1549 150.556 62.4011 150.621 62.6781 150.621ZM65.9042 151.332V146.946H66.7352V151.332H65.9042ZM66.7352 148.83L66.4213 148.691C66.4213 148.131 66.5505 147.685 66.8091 147.353C67.0676 147.02 67.44 146.854 67.9263 146.854C68.1479 146.854 68.3479 146.894 68.5264 146.974C68.705 147.048 68.8712 147.174 69.025 147.353L68.4803 147.916C68.3879 147.817 68.2864 147.746 68.1756 147.703C68.0648 147.66 67.9355 147.639 67.7878 147.639C67.48 147.639 67.2276 147.737 67.0307 147.934C66.8337 148.131 66.7352 148.43 66.7352 148.83ZM71.4694 151.424C71.0386 151.424 70.6477 151.323 70.2968 151.12C69.9521 150.917 69.6782 150.643 69.4751 150.298C69.2781 149.947 69.1796 149.559 69.1796 149.135C69.1796 148.704 69.2781 148.316 69.4751 147.971C69.6782 147.626 69.9521 147.356 70.2968 147.159C70.6477 146.956 71.0386 146.854 71.4694 146.854C71.808 146.854 72.1219 146.919 72.4112 147.048C72.7005 147.171 72.9498 147.353 73.1591 147.593L72.6051 148.147C72.4697 147.987 72.3035 147.867 72.1065 147.786C71.9157 147.7 71.7034 147.657 71.4694 147.657C71.1925 147.657 70.9462 147.722 70.7308 147.851C70.5154 147.974 70.3461 148.147 70.223 148.368C70.0999 148.59 70.0383 148.845 70.0383 149.135C70.0383 149.424 70.0999 149.679 70.223 149.901C70.3461 150.122 70.5154 150.298 70.7308 150.427C70.9462 150.556 71.1925 150.621 71.4694 150.621C71.7034 150.621 71.9157 150.581 72.1065 150.501C72.3035 150.415 72.4728 150.292 72.6144 150.132L73.1591 150.686C72.956 150.92 72.7067 151.101 72.4112 151.23C72.1219 151.36 71.808 151.424 71.4694 151.424ZM75.9244 151.424C75.4873 151.424 75.0934 151.326 74.7425 151.129C74.3917 150.926 74.1147 150.652 73.9116 150.307C73.7084 149.962 73.6069 149.572 73.6069 149.135C73.6069 148.704 73.7053 148.316 73.9023 147.971C74.1054 147.626 74.3763 147.356 74.7148 147.159C75.0595 146.956 75.4443 146.854 75.869 146.854C76.2752 146.854 76.6323 146.946 76.94 147.131C77.254 147.316 77.4971 147.571 77.6695 147.897C77.848 148.224 77.9372 148.593 77.9372 149.005C77.9372 149.067 77.9341 149.135 77.928 149.208C77.9218 149.276 77.9095 149.356 77.8911 149.448H74.1885V148.756H77.4479L77.1432 149.024C77.1432 148.728 77.0908 148.479 76.9862 148.276C76.8816 148.067 76.7338 147.907 76.543 147.796C76.3522 147.679 76.1214 147.62 75.8505 147.62C75.5674 147.62 75.3181 147.682 75.1026 147.805C74.8872 147.928 74.721 148.1 74.604 148.322C74.4871 148.544 74.4286 148.805 74.4286 149.107C74.4286 149.415 74.4902 149.685 74.6133 149.919C74.7364 150.147 74.9118 150.326 75.1396 150.455C75.3673 150.578 75.6289 150.64 75.9244 150.64C76.1706 150.64 76.3953 150.596 76.5984 150.51C76.8077 150.424 76.9862 150.295 77.1339 150.122L77.6695 150.667C77.4602 150.913 77.2016 151.101 76.8939 151.23C76.5923 151.36 76.2691 151.424 75.9244 151.424Z" fill="#2E2E32" fill-opacity="0.8"/>
<path d="M225.828 145.295C226.415 144.474 227.636 144.474 228.223 145.295L230.627 148.656C231.324 149.631 230.627 150.985 229.429 150.985H224.621C223.423 150.985 222.727 149.631 223.424 148.656L225.828 145.295Z" fill="#0BC420"/>
<path d="M238.657 151.332V144.924H239.516V151.332H238.657ZM237.346 145.7V144.924H239.423V145.7H237.346ZM241.49 151.332L243.891 145.432L244.749 145.46L242.404 151.332H241.49ZM240.484 145.7V144.924H244.749V145.46L244.371 145.7H240.484ZM246.803 147.426C246.569 147.426 246.353 147.368 246.156 147.251C245.959 147.134 245.802 146.977 245.686 146.78C245.569 146.583 245.51 146.365 245.51 146.125C245.51 145.878 245.565 145.66 245.676 145.469C245.793 145.278 245.95 145.124 246.147 145.007C246.344 144.89 246.563 144.832 246.803 144.832C247.049 144.832 247.271 144.89 247.468 145.007C247.664 145.124 247.821 145.278 247.938 145.469C248.055 145.66 248.114 145.878 248.114 146.125C248.114 146.365 248.055 146.583 247.938 146.78C247.821 146.977 247.664 147.134 247.468 147.251C247.277 147.368 247.055 147.426 246.803 147.426ZM246.803 146.771C246.987 146.771 247.138 146.712 247.255 146.595C247.372 146.472 247.431 146.315 247.431 146.125C247.431 145.934 247.369 145.78 247.246 145.663C247.129 145.546 246.981 145.487 246.803 145.487C246.624 145.487 246.476 145.546 246.36 145.663C246.249 145.78 246.193 145.934 246.193 146.125C246.193 146.315 246.249 146.472 246.36 146.595C246.476 146.712 246.624 146.771 246.803 146.771ZM249.379 151.424C249.139 151.424 248.92 151.366 248.723 151.249C248.526 151.132 248.369 150.978 248.252 150.787C248.135 150.59 248.077 150.369 248.077 150.122C248.077 149.882 248.135 149.667 248.252 149.476C248.369 149.279 248.526 149.122 248.723 149.005C248.92 148.888 249.139 148.83 249.379 148.83C249.619 148.83 249.837 148.888 250.034 149.005C250.237 149.122 250.398 149.279 250.514 149.476C250.631 149.667 250.69 149.882 250.69 150.122C250.69 150.369 250.631 150.59 250.514 150.787C250.398 150.978 250.241 151.132 250.044 151.249C249.847 151.366 249.625 151.424 249.379 151.424ZM249.379 150.769C249.563 150.769 249.714 150.71 249.831 150.593C249.948 150.47 250.007 150.313 250.007 150.122C250.007 149.938 249.945 149.787 249.822 149.67C249.705 149.547 249.557 149.485 249.379 149.485C249.2 149.485 249.053 149.547 248.936 149.67C248.819 149.787 248.76 149.938 248.76 150.122C248.76 150.313 248.819 150.47 248.936 150.593C249.053 150.71 249.2 150.769 249.379 150.769ZM245.621 151.332L249.73 144.924H250.57L246.461 151.332H245.621Z" fill="#0BC420"/>
<line x1="34.3105" y1="164.18" x2="251.29" y2="164.18" stroke="#DBDADF" stroke-opacity="0.3" stroke-width="0.769431"/>
<circle cx="37.3883" cy="184.377" r="3.07773" fill="#D2D2D2"/>
<path d="M47.3782 187.877V181.469H48.2461V187.877H47.3782ZM47.9691 185.061V184.267H51.3115V185.061H47.9691ZM47.9691 182.263V181.469H51.4685V182.263H47.9691ZM54.145 187.969C53.7449 187.969 53.3817 187.871 53.0555 187.674C52.7292 187.471 52.4707 187.197 52.2799 186.852C52.0952 186.507 52.0029 186.12 52.0029 185.689C52.0029 185.258 52.0952 184.87 52.2799 184.525C52.4707 184.181 52.7261 183.907 53.0462 183.704C53.3725 183.5 53.7387 183.399 54.145 183.399C54.4774 183.399 54.7728 183.47 55.0314 183.611C55.296 183.747 55.5084 183.937 55.6685 184.184C55.8285 184.424 55.9177 184.704 55.9362 185.024V186.344C55.9177 186.658 55.8285 186.938 55.6685 187.184C55.5146 187.431 55.3053 187.625 55.0406 187.766C54.7821 187.902 54.4835 187.969 54.145 187.969ZM54.2835 187.184C54.6959 187.184 55.0283 187.046 55.2807 186.769C55.533 186.486 55.6592 186.126 55.6592 185.689C55.6592 185.387 55.6007 185.125 55.4838 184.904C55.373 184.676 55.2129 184.501 55.0037 184.378C54.7944 184.248 54.5512 184.184 54.2742 184.184C53.9972 184.184 53.751 184.248 53.5356 184.378C53.3263 184.507 53.1601 184.685 53.037 184.913C52.92 185.135 52.8616 185.39 52.8616 185.679C52.8616 185.975 52.92 186.237 53.037 186.464C53.1601 186.686 53.3294 186.861 53.5448 186.991C53.7603 187.12 54.0065 187.184 54.2835 187.184ZM55.6038 187.877V186.695L55.7608 185.624L55.6038 184.562V183.491H56.444V187.877H55.6038ZM57.6539 187.877V183.491H58.4849V187.877H57.6539ZM60.6177 187.877V185.227C60.6177 184.901 60.5162 184.645 60.313 184.461C60.1161 184.27 59.8668 184.174 59.5651 184.174C59.362 184.174 59.1804 184.218 59.0204 184.304C58.8603 184.39 58.7311 184.51 58.6326 184.664C58.5341 184.818 58.4849 185.002 58.4849 185.218L58.1432 185.052C58.1432 184.719 58.214 184.43 58.3556 184.184C58.5033 183.937 58.7034 183.747 58.9558 183.611C59.2081 183.47 59.4913 183.399 59.8052 183.399C60.113 183.399 60.39 183.467 60.6362 183.602C60.8886 183.737 61.0855 183.928 61.2271 184.174C61.3748 184.421 61.4487 184.713 61.4487 185.052V187.877H60.6177ZM63.5816 187.877V185.227C63.5816 184.901 63.48 184.645 63.2769 184.461C63.0799 184.27 62.8337 184.174 62.5382 184.174C62.3351 184.174 62.1504 184.218 61.9842 184.304C61.8242 184.39 61.6949 184.51 61.5964 184.664C61.498 184.818 61.4487 185.002 61.4487 185.218L60.9778 185.052C60.9963 184.713 61.0855 184.424 61.2456 184.184C61.4118 183.937 61.6241 183.747 61.8827 183.611C62.1412 183.47 62.4244 183.399 62.7321 183.399C63.0522 183.399 63.3384 183.467 63.5908 183.602C63.8432 183.737 64.0432 183.928 64.191 184.174C64.3449 184.421 64.4218 184.716 64.4218 185.061V187.877H63.5816ZM65.5618 187.877V183.491H66.3928V187.877H65.5618ZM65.9773 182.614C65.8234 182.614 65.6972 182.565 65.5987 182.466C65.5002 182.362 65.451 182.232 65.451 182.079C65.451 181.931 65.5002 181.808 65.5987 181.709C65.6972 181.605 65.8234 181.552 65.9773 181.552C66.1312 181.552 66.2574 181.605 66.3559 181.709C66.4543 181.808 66.5036 181.931 66.5036 182.079C66.5036 182.232 66.4543 182.362 66.3559 182.466C66.2574 182.565 66.1312 182.614 65.9773 182.614ZM67.6174 187.877V181.284H68.4484V187.877H67.6174ZM71.1046 187.914L69.2026 183.491H70.1259L71.5386 186.954H71.2431L72.7296 183.491H73.653L71.6032 187.914H71.1046ZM69.8489 189.714L71.1415 187.064L71.6032 187.914L70.7722 189.714H69.8489ZM76.4753 187.877V181.469H77.3433V187.877H76.4753ZM77.0663 187.877V187.083H80.501V187.877H77.0663ZM83.0978 187.969C82.6977 187.969 82.3346 187.871 82.0083 187.674C81.6821 187.471 81.4236 187.197 81.2327 186.852C81.0481 186.507 80.9557 186.12 80.9557 185.689C80.9557 185.258 81.0481 184.87 81.2327 184.525C81.4236 184.181 81.679 183.907 81.9991 183.704C82.3253 183.5 82.6916 183.399 83.0978 183.399C83.4302 183.399 83.7257 183.47 83.9842 183.611C84.2489 183.747 84.4613 183.937 84.6213 184.184C84.7814 184.424 84.8706 184.704 84.8891 185.024V186.344C84.8706 186.658 84.7814 186.938 84.6213 187.184C84.4674 187.431 84.2581 187.625 83.9935 187.766C83.7349 187.902 83.4364 187.969 83.0978 187.969ZM83.2363 187.184C83.6488 187.184 83.9812 187.046 84.2335 186.769C84.4859 186.486 84.6121 186.126 84.6121 185.689C84.6121 185.387 84.5536 185.125 84.4367 184.904C84.3259 184.676 84.1658 184.501 83.9565 184.378C83.7472 184.248 83.5041 184.184 83.2271 184.184C82.9501 184.184 82.7039 184.248 82.4885 184.378C82.2792 184.507 82.113 184.685 81.9899 184.913C81.8729 185.135 81.8144 185.39 81.8144 185.679C81.8144 185.975 81.8729 186.237 81.9899 186.464C82.113 186.686 82.2822 186.861 82.4977 186.991C82.7131 187.12 82.9593 187.184 83.2363 187.184ZM84.5567 187.877V186.695L84.7136 185.624L84.5567 184.562V183.491H85.3969V187.877H84.5567ZM87.8444 187.877L86.1086 183.491H86.9765L88.2322 186.907H87.9552L89.2017 183.491H89.6818L90.9283 186.907H90.6513L91.907 183.491H92.7749L91.0483 187.877H90.559L89.294 184.562H89.5987L88.3245 187.877H87.8444Z" fill="#2E2E32" fill-opacity="0.8"/>
<path d="M225.828 186.914C226.415 187.735 227.636 187.735 228.223 186.914L230.627 183.553C231.324 182.578 230.627 181.224 229.429 181.224H224.621C223.423 181.224 222.727 182.578 223.424 183.553L225.828 186.914Z" fill="#F83939"/>
<path d="M238.657 187.877V181.469H239.516V187.877H238.657ZM237.346 182.245V181.469H239.423V182.245H237.346ZM241.49 187.877L243.891 181.977L244.749 182.005L242.404 187.877H241.49ZM240.484 182.245V181.469H244.749V182.005L244.371 182.245H240.484ZM246.803 183.971C246.569 183.971 246.353 183.913 246.156 183.796C245.959 183.679 245.802 183.522 245.686 183.325C245.569 183.128 245.51 182.91 245.51 182.669C245.51 182.423 245.565 182.205 245.676 182.014C245.793 181.823 245.95 181.669 246.147 181.552C246.344 181.435 246.563 181.377 246.803 181.377C247.049 181.377 247.271 181.435 247.468 181.552C247.664 181.669 247.821 181.823 247.938 182.014C248.055 182.205 248.114 182.423 248.114 182.669C248.114 182.91 248.055 183.128 247.938 183.325C247.821 183.522 247.664 183.679 247.468 183.796C247.277 183.913 247.055 183.971 246.803 183.971ZM246.803 183.316C246.987 183.316 247.138 183.257 247.255 183.14C247.372 183.017 247.431 182.86 247.431 182.669C247.431 182.479 247.369 182.325 247.246 182.208C247.129 182.091 246.981 182.032 246.803 182.032C246.624 182.032 246.476 182.091 246.36 182.208C246.249 182.325 246.193 182.479 246.193 182.669C246.193 182.86 246.249 183.017 246.36 183.14C246.476 183.257 246.624 183.316 246.803 183.316ZM249.379 187.969C249.139 187.969 248.92 187.911 248.723 187.794C248.526 187.677 248.369 187.523 248.252 187.332C248.135 187.135 248.077 186.914 248.077 186.667C248.077 186.427 248.135 186.212 248.252 186.021C248.369 185.824 248.526 185.667 248.723 185.55C248.92 185.433 249.139 185.375 249.379 185.375C249.619 185.375 249.837 185.433 250.034 185.55C250.237 185.667 250.398 185.824 250.514 186.021C250.631 186.212 250.69 186.427 250.69 186.667C250.69 186.914 250.631 187.135 250.514 187.332C250.398 187.523 250.241 187.677 250.044 187.794C249.847 187.911 249.625 187.969 249.379 187.969ZM249.379 187.314C249.563 187.314 249.714 187.255 249.831 187.138C249.948 187.015 250.007 186.858 250.007 186.667C250.007 186.483 249.945 186.332 249.822 186.215C249.705 186.092 249.557 186.03 249.379 186.03C249.2 186.03 249.053 186.092 248.936 186.215C248.819 186.332 248.76 186.483 248.76 186.667C248.76 186.858 248.819 187.015 248.936 187.138C249.053 187.255 249.2 187.314 249.379 187.314ZM245.621 187.877L249.73 181.469H250.57L246.461 187.877H245.621Z" fill="#F83939"/>
<line x1="34.3105" y1="200.725" x2="251.29" y2="200.725" stroke="#DBDADF" stroke-opacity="0.3" stroke-width="0.769431"/>
<circle cx="37.3883" cy="220.92" r="3.07773" fill="#D2D2D2"/>
<path d="M47.9507 224.42V223.626H49.7327C50.2066 223.626 50.6221 223.524 50.9792 223.321C51.3362 223.112 51.6132 222.826 51.8101 222.462C52.0133 222.099 52.1148 221.681 52.1148 221.207C52.1148 220.739 52.0133 220.323 51.8101 219.96C51.607 219.597 51.3269 219.314 50.9699 219.111C50.6129 218.908 50.2005 218.806 49.7327 218.806H47.9599V218.012H49.7511C50.219 218.012 50.6498 218.092 51.0438 218.252C51.4439 218.412 51.7886 218.637 52.0779 218.926C52.3734 219.215 52.6011 219.554 52.7612 219.942C52.9274 220.33 53.0105 220.754 53.0105 221.216C53.0105 221.672 52.9274 222.096 52.7612 222.49C52.6011 222.878 52.3764 223.217 52.0871 223.506C51.7978 223.795 51.4531 224.02 51.053 224.18C50.6591 224.34 50.2313 224.42 49.7696 224.42H47.9507ZM47.3782 224.42V218.012H48.2461V224.42H47.3782ZM54.0744 224.42V220.034H54.9054V224.42H54.0744ZM54.4899 219.157C54.336 219.157 54.2099 219.108 54.1114 219.009C54.0129 218.905 53.9636 218.775 53.9636 218.621C53.9636 218.474 54.0129 218.351 54.1114 218.252C54.2099 218.148 54.336 218.095 54.4899 218.095C54.6438 218.095 54.77 218.148 54.8685 218.252C54.967 218.351 55.0162 218.474 55.0162 218.621C55.0162 218.775 54.967 218.905 54.8685 219.009C54.77 219.108 54.6438 219.157 54.4899 219.157ZM57.635 224.42L55.6222 220.034H56.5455L58.1613 223.737H57.6258L59.2509 220.034H60.1372L58.1244 224.42H57.635ZM62.6781 224.512C62.2472 224.512 61.8594 224.411 61.5147 224.208C61.17 224.004 60.8961 223.731 60.693 223.386C60.4898 223.035 60.3883 222.644 60.3883 222.213C60.3883 221.788 60.4898 221.407 60.693 221.068C60.8961 220.724 61.17 220.45 61.5147 220.247C61.8594 220.043 62.2472 219.942 62.6781 219.942C63.1028 219.942 63.4875 220.043 63.8322 220.247C64.1831 220.444 64.4601 220.714 64.6632 221.059C64.8664 221.404 64.9679 221.788 64.9679 222.213C64.9679 222.644 64.8664 223.035 64.6632 223.386C64.4601 223.731 64.1831 224.004 63.8322 224.208C63.4875 224.411 63.1028 224.512 62.6781 224.512ZM62.6781 223.709C62.9551 223.709 63.2013 223.644 63.4167 223.515C63.6322 223.386 63.8015 223.21 63.9246 222.989C64.0477 222.761 64.1092 222.502 64.1092 222.213C64.1092 221.93 64.0446 221.678 63.9153 221.456C63.7922 221.234 63.623 221.062 63.4075 220.939C63.1982 220.81 62.9551 220.745 62.6781 220.745C62.4011 220.745 62.1549 220.81 61.9394 220.939C61.724 221.062 61.5547 221.234 61.4316 221.456C61.3085 221.678 61.247 221.93 61.247 222.213C61.247 222.502 61.3085 222.761 61.4316 222.989C61.5547 223.21 61.724 223.386 61.9394 223.515C62.1549 223.644 62.4011 223.709 62.6781 223.709ZM65.9042 224.42V220.034H66.7352V224.42H65.9042ZM66.7352 221.918L66.4213 221.779C66.4213 221.219 66.5505 220.773 66.8091 220.44C67.0676 220.108 67.44 219.942 67.9263 219.942C68.1479 219.942 68.3479 219.982 68.5264 220.062C68.705 220.136 68.8712 220.262 69.025 220.44L68.4803 221.004C68.3879 220.905 68.2864 220.834 68.1756 220.791C68.0648 220.748 67.9355 220.727 67.7878 220.727C67.48 220.727 67.2276 220.825 67.0307 221.022C66.8337 221.219 66.7352 221.518 66.7352 221.918ZM71.4694 224.512C71.0386 224.512 70.6477 224.411 70.2968 224.208C69.9521 224.004 69.6782 223.731 69.4751 223.386C69.2781 223.035 69.1796 222.647 69.1796 222.222C69.1796 221.792 69.2781 221.404 69.4751 221.059C69.6782 220.714 69.9521 220.444 70.2968 220.247C70.6477 220.043 71.0386 219.942 71.4694 219.942C71.808 219.942 72.1219 220.006 72.4112 220.136C72.7005 220.259 72.9498 220.44 73.1591 220.68L72.6051 221.234C72.4697 221.074 72.3035 220.954 72.1065 220.874C71.9157 220.788 71.7034 220.745 71.4694 220.745C71.1925 220.745 70.9462 220.81 70.7308 220.939C70.5154 221.062 70.3461 221.234 70.223 221.456C70.0999 221.678 70.0383 221.933 70.0383 222.222C70.0383 222.512 70.0999 222.767 70.223 222.989C70.3461 223.21 70.5154 223.386 70.7308 223.515C70.9462 223.644 71.1925 223.709 71.4694 223.709C71.7034 223.709 71.9157 223.669 72.1065 223.589C72.3035 223.503 72.4728 223.38 72.6144 223.22L73.1591 223.774C72.956 224.008 72.7067 224.189 72.4112 224.318C72.1219 224.448 71.808 224.512 71.4694 224.512ZM75.9244 224.512C75.4873 224.512 75.0934 224.414 74.7425 224.217C74.3917 224.014 74.1147 223.74 73.9116 223.395C73.7084 223.05 73.6069 222.659 73.6069 222.222C73.6069 221.792 73.7053 221.404 73.9023 221.059C74.1054 220.714 74.3763 220.444 74.7148 220.247C75.0595 220.043 75.4443 219.942 75.869 219.942C76.2752 219.942 76.6323 220.034 76.94 220.219C77.254 220.403 77.4971 220.659 77.6695 220.985C77.848 221.311 77.9372 221.681 77.9372 222.093C77.9372 222.155 77.9341 222.222 77.928 222.296C77.9218 222.364 77.9095 222.444 77.8911 222.536H74.1885V221.844H77.4479L77.1432 222.112C77.1432 221.816 77.0908 221.567 76.9862 221.364C76.8816 221.154 76.7338 220.994 76.543 220.884C76.3522 220.767 76.1214 220.708 75.8505 220.708C75.5674 220.708 75.3181 220.77 75.1026 220.893C74.8872 221.016 74.721 221.188 74.604 221.41C74.4871 221.632 74.4286 221.893 74.4286 222.195C74.4286 222.502 74.4902 222.773 74.6133 223.007C74.7364 223.235 74.9118 223.414 75.1396 223.543C75.3673 223.666 75.6289 223.727 75.9244 223.727C76.1706 223.727 76.3953 223.684 76.5984 223.598C76.8077 223.512 76.9862 223.383 77.1339 223.21L77.6695 223.755C77.4602 224.001 77.2016 224.189 76.8939 224.318C76.5923 224.448 76.2691 224.512 75.9244 224.512Z" fill="#2E2E32" fill-opacity="0.8"/>
<path d="M225.828 218.383C226.415 217.562 227.636 217.562 228.223 218.383L230.627 221.744C231.324 222.718 230.627 224.073 229.429 224.073H224.621C223.423 224.073 222.727 222.718 223.424 221.744L225.828 218.383Z" fill="#0BC420"/>
<path d="M238.657 224.42V218.012H239.516V224.42H238.657ZM237.346 218.788V218.012H239.423V218.788H237.346ZM241.49 224.42L243.891 218.52L244.749 218.548L242.404 224.42H241.49ZM240.484 218.788V218.012H244.749V218.548L244.371 218.788H240.484ZM246.803 220.514C246.569 220.514 246.353 220.456 246.156 220.339C245.959 220.222 245.802 220.065 245.686 219.868C245.569 219.671 245.51 219.452 245.51 219.212C245.51 218.966 245.565 218.748 245.676 218.557C245.793 218.366 245.95 218.212 246.147 218.095C246.344 217.978 246.563 217.92 246.803 217.92C247.049 217.92 247.271 217.978 247.468 218.095C247.664 218.212 247.821 218.366 247.938 218.557C248.055 218.748 248.114 218.966 248.114 219.212C248.114 219.452 248.055 219.671 247.938 219.868C247.821 220.065 247.664 220.222 247.468 220.339C247.277 220.456 247.055 220.514 246.803 220.514ZM246.803 219.859C246.987 219.859 247.138 219.8 247.255 219.683C247.372 219.56 247.431 219.403 247.431 219.212C247.431 219.022 247.369 218.868 247.246 218.751C247.129 218.634 246.981 218.575 246.803 218.575C246.624 218.575 246.476 218.634 246.36 218.751C246.249 218.868 246.193 219.022 246.193 219.212C246.193 219.403 246.249 219.56 246.36 219.683C246.476 219.8 246.624 219.859 246.803 219.859ZM249.379 224.512C249.139 224.512 248.92 224.454 248.723 224.337C248.526 224.22 248.369 224.066 248.252 223.875C248.135 223.678 248.077 223.457 248.077 223.21C248.077 222.97 248.135 222.755 248.252 222.564C248.369 222.367 248.526 222.21 248.723 222.093C248.92 221.976 249.139 221.918 249.379 221.918C249.619 221.918 249.837 221.976 250.034 222.093C250.237 222.21 250.398 222.367 250.514 222.564C250.631 222.755 250.69 222.97 250.69 223.21C250.69 223.457 250.631 223.678 250.514 223.875C250.398 224.066 250.241 224.22 250.044 224.337C249.847 224.454 249.625 224.512 249.379 224.512ZM249.379 223.857C249.563 223.857 249.714 223.798 249.831 223.681C249.948 223.558 250.007 223.401 250.007 223.21C250.007 223.026 249.945 222.875 249.822 222.758C249.705 222.635 249.557 222.573 249.379 222.573C249.2 222.573 249.053 222.635 248.936 222.758C248.819 222.875 248.76 223.026 248.76 223.21C248.76 223.401 248.819 223.558 248.936 223.681C249.053 223.798 249.2 223.857 249.379 223.857ZM245.621 224.42L249.73 218.012H250.57L246.461 224.42H245.621Z" fill="#0BC420"/>
<line x1="34.3105" y1="237.268" x2="251.29" y2="237.268" stroke="#DBDADF" stroke-opacity="0.3" stroke-width="0.769431"/>
<circle cx="37.3883" cy="257.464" r="3.07773" fill="#D2D2D2"/>
<path d="M47.3782 260.965V254.557H48.2461V260.965H47.3782ZM47.9691 258.149V257.355H51.3115V258.149H47.9691ZM47.9691 255.351V254.557H51.4685V255.351H47.9691ZM54.145 261.057C53.7449 261.057 53.3817 260.959 53.0555 260.762C52.7292 260.559 52.4707 260.285 52.2799 259.94C52.0952 259.595 52.0029 259.207 52.0029 258.777C52.0029 258.346 52.0952 257.958 52.2799 257.613C52.4707 257.268 52.7261 256.995 53.0462 256.791C53.3725 256.588 53.7387 256.487 54.145 256.487C54.4774 256.487 54.7728 256.558 55.0314 256.699C55.296 256.835 55.5084 257.025 55.6685 257.272C55.8285 257.512 55.9177 257.792 55.9362 258.112V259.432C55.9177 259.746 55.8285 260.026 55.6685 260.272C55.5146 260.519 55.3053 260.712 55.0406 260.854C54.7821 260.989 54.4835 261.057 54.145 261.057ZM54.2835 260.272C54.6959 260.272 55.0283 260.134 55.2807 259.857C55.533 259.574 55.6592 259.214 55.6592 258.777C55.6592 258.475 55.6007 258.213 55.4838 257.992C55.373 257.764 55.2129 257.589 55.0037 257.465C54.7944 257.336 54.5512 257.272 54.2742 257.272C53.9972 257.272 53.751 257.336 53.5356 257.465C53.3263 257.595 53.1601 257.773 53.037 258.001C52.92 258.223 52.8616 258.478 52.8616 258.767C52.8616 259.063 52.92 259.324 53.037 259.552C53.1601 259.774 53.3294 259.949 53.5448 260.078C53.7603 260.208 54.0065 260.272 54.2835 260.272ZM55.6038 260.965V259.783L55.7608 258.712L55.6038 257.65V256.579H56.444V260.965H55.6038ZM57.6539 260.965V256.579H58.4849V260.965H57.6539ZM60.6177 260.965V258.315C60.6177 257.989 60.5162 257.733 60.313 257.549C60.1161 257.358 59.8668 257.262 59.5651 257.262C59.362 257.262 59.1804 257.305 59.0204 257.392C58.8603 257.478 58.7311 257.598 58.6326 257.752C58.5341 257.906 58.4849 258.09 58.4849 258.306L58.1432 258.139C58.1432 257.807 58.214 257.518 58.3556 257.272C58.5033 257.025 58.7034 256.835 58.9558 256.699C59.2081 256.558 59.4913 256.487 59.8052 256.487C60.113 256.487 60.39 256.554 60.6362 256.69C60.8886 256.825 61.0855 257.016 61.2271 257.262C61.3748 257.509 61.4487 257.801 61.4487 258.139V260.965H60.6177ZM63.5816 260.965V258.315C63.5816 257.989 63.48 257.733 63.2769 257.549C63.0799 257.358 62.8337 257.262 62.5382 257.262C62.3351 257.262 62.1504 257.305 61.9842 257.392C61.8242 257.478 61.6949 257.598 61.5964 257.752C61.498 257.906 61.4487 258.09 61.4487 258.306L60.9778 258.139C60.9963 257.801 61.0855 257.512 61.2456 257.272C61.4118 257.025 61.6241 256.835 61.8827 256.699C62.1412 256.558 62.4244 256.487 62.7321 256.487C63.0522 256.487 63.3384 256.554 63.5908 256.69C63.8432 256.825 64.0432 257.016 64.191 257.262C64.3449 257.509 64.4218 257.804 64.4218 258.149V260.965H63.5816ZM65.5618 260.965V256.579H66.3928V260.965H65.5618ZM65.9773 255.702C65.8234 255.702 65.6972 255.653 65.5987 255.554C65.5002 255.45 65.451 255.32 65.451 255.166C65.451 255.019 65.5002 254.896 65.5987 254.797C65.6972 254.692 65.8234 254.64 65.9773 254.64C66.1312 254.64 66.2574 254.692 66.3559 254.797C66.4543 254.896 66.5036 255.019 66.5036 255.166C66.5036 255.32 66.4543 255.45 66.3559 255.554C66.2574 255.653 66.1312 255.702 65.9773 255.702ZM67.6174 260.965V254.372H68.4484V260.965H67.6174ZM71.1046 261.002L69.2026 256.579H70.1259L71.5386 260.042H71.2431L72.7296 256.579H73.653L71.6032 261.002H71.1046ZM69.8489 262.802L71.1415 260.152L71.6032 261.002L70.7722 262.802H69.8489ZM76.4753 260.965V254.557H77.3433V260.965H76.4753ZM77.0663 260.965V260.171H80.501V260.965H77.0663ZM83.0978 261.057C82.6977 261.057 82.3346 260.959 82.0083 260.762C81.6821 260.559 81.4236 260.285 81.2327 259.94C81.0481 259.595 80.9557 259.207 80.9557 258.777C80.9557 258.346 81.0481 257.958 81.2327 257.613C81.4236 257.268 81.679 256.995 81.9991 256.791C82.3253 256.588 82.6916 256.487 83.0978 256.487C83.4302 256.487 83.7257 256.558 83.9842 256.699C84.2489 256.835 84.4613 257.025 84.6213 257.272C84.7814 257.512 84.8706 257.792 84.8891 258.112V259.432C84.8706 259.746 84.7814 260.026 84.6213 260.272C84.4674 260.519 84.2581 260.712 83.9935 260.854C83.7349 260.989 83.4364 261.057 83.0978 261.057ZM83.2363 260.272C83.6488 260.272 83.9812 260.134 84.2335 259.857C84.4859 259.574 84.6121 259.214 84.6121 258.777C84.6121 258.475 84.5536 258.213 84.4367 257.992C84.3259 257.764 84.1658 257.589 83.9565 257.465C83.7472 257.336 83.5041 257.272 83.2271 257.272C82.9501 257.272 82.7039 257.336 82.4885 257.465C82.2792 257.595 82.113 257.773 81.9899 258.001C81.8729 258.223 81.8144 258.478 81.8144 258.767C81.8144 259.063 81.8729 259.324 81.9899 259.552C82.113 259.774 82.2822 259.949 82.4977 260.078C82.7131 260.208 82.9593 260.272 83.2363 260.272ZM84.5567 260.965V259.783L84.7136 258.712L84.5567 257.65V256.579H85.3969V260.965H84.5567ZM87.8444 260.965L86.1086 256.579H86.9765L88.2322 259.995H87.9552L89.2017 256.579H89.6818L90.9283 259.995H90.6513L91.907 256.579H92.7749L91.0483 260.965H90.559L89.294 257.65H89.5987L88.3245 260.965H87.8444Z" fill="#2E2E32" fill-opacity="0.8"/>
<path d="M225.828 260.001C226.415 260.822 227.636 260.822 228.223 260.001L230.627 256.641C231.324 255.666 230.627 254.312 229.429 254.312H224.621C223.423 254.312 222.727 255.666 223.424 256.641L225.828 260.001Z" fill="#F83939"/>
<path d="M238.657 260.965V254.557H239.516V260.965H238.657ZM237.346 255.333V254.557H239.423V255.333H237.346ZM241.49 260.965L243.891 255.065L244.749 255.093L242.404 260.965H241.49ZM240.484 255.333V254.557H244.749V255.093L244.371 255.333H240.484ZM246.803 257.059C246.569 257.059 246.353 257.001 246.156 256.884C245.959 256.767 245.802 256.61 245.686 256.413C245.569 256.216 245.51 255.997 245.51 255.757C245.51 255.511 245.565 255.293 245.676 255.102C245.793 254.911 245.95 254.757 246.147 254.64C246.344 254.523 246.563 254.465 246.803 254.465C247.049 254.465 247.271 254.523 247.468 254.64C247.664 254.757 247.821 254.911 247.938 255.102C248.055 255.293 248.114 255.511 248.114 255.757C248.114 255.997 248.055 256.216 247.938 256.413C247.821 256.61 247.664 256.767 247.468 256.884C247.277 257.001 247.055 257.059 246.803 257.059ZM246.803 256.404C246.987 256.404 247.138 256.345 247.255 256.228C247.372 256.105 247.431 255.948 247.431 255.757C247.431 255.567 247.369 255.413 247.246 255.296C247.129 255.179 246.981 255.12 246.803 255.12C246.624 255.12 246.476 255.179 246.36 255.296C246.249 255.413 246.193 255.567 246.193 255.757C246.193 255.948 246.249 256.105 246.36 256.228C246.476 256.345 246.624 256.404 246.803 256.404ZM249.379 261.057C249.139 261.057 248.92 260.999 248.723 260.882C248.526 260.765 248.369 260.611 248.252 260.42C248.135 260.223 248.077 260.002 248.077 259.755C248.077 259.515 248.135 259.3 248.252 259.109C248.369 258.912 248.526 258.755 248.723 258.638C248.92 258.521 249.139 258.463 249.379 258.463C249.619 258.463 249.837 258.521 250.034 258.638C250.237 258.755 250.398 258.912 250.514 259.109C250.631 259.3 250.69 259.515 250.69 259.755C250.69 260.002 250.631 260.223 250.514 260.42C250.398 260.611 250.241 260.765 250.044 260.882C249.847 260.999 249.625 261.057 249.379 261.057ZM249.379 260.402C249.563 260.402 249.714 260.343 249.831 260.226C249.948 260.103 250.007 259.946 250.007 259.755C250.007 259.571 249.945 259.42 249.822 259.303C249.705 259.18 249.557 259.118 249.379 259.118C249.2 259.118 249.053 259.18 248.936 259.303C248.819 259.42 248.76 259.571 248.76 259.755C248.76 259.946 248.819 260.103 248.936 260.226C249.053 260.343 249.2 260.402 249.379 260.402ZM245.621 260.965L249.73 254.557H250.57L246.461 260.965H245.621Z" fill="#F83939"/>
<line x1="34.3105" y1="273.813" x2="251.29" y2="273.813" stroke="#DBDADF" stroke-opacity="0.3" stroke-width="0.769431"/>
<circle cx="37.3883" cy="294.007" r="3.07773" fill="#D2D2D2"/>
<path d="M47.3782 297.508V291.1H48.2461V297.508H47.3782ZM47.9691 297.508V296.714H51.4039V297.508H47.9691ZM54.1392 297.6C53.7083 297.6 53.3205 297.499 52.9758 297.295C52.6311 297.092 52.3572 296.818 52.1541 296.474C51.9509 296.123 51.8494 295.732 51.8494 295.301C51.8494 294.876 51.9509 294.495 52.1541 294.156C52.3572 293.811 52.6311 293.538 52.9758 293.334C53.3205 293.131 53.7083 293.03 54.1392 293.03C54.5639 293.03 54.9487 293.131 55.2934 293.334C55.6442 293.531 55.9212 293.802 56.1243 294.147C56.3275 294.492 56.429 294.876 56.429 295.301C56.429 295.732 56.3275 296.123 56.1243 296.474C55.9212 296.818 55.6442 297.092 55.2934 297.295C54.9487 297.499 54.5639 297.6 54.1392 297.6ZM54.1392 296.797C54.4162 296.797 54.6624 296.732 54.8779 296.603C55.0933 296.474 55.2626 296.298 55.3857 296.077C55.5088 295.849 55.5704 295.59 55.5704 295.301C55.5704 295.018 55.5057 294.766 55.3765 294.544C55.2533 294.322 55.0841 294.15 54.8686 294.027C54.6593 293.898 54.4162 293.833 54.1392 293.833C53.8622 293.833 53.616 293.898 53.4006 294.027C53.1851 294.15 53.0158 294.322 52.8927 294.544C52.7696 294.766 52.7081 295.018 52.7081 295.301C52.7081 295.59 52.7696 295.849 52.8927 296.077C53.0158 296.298 53.1851 296.474 53.4006 296.603C53.616 296.732 53.8622 296.797 54.1392 296.797ZM59.1289 297.6C58.7719 297.6 58.4487 297.52 58.1594 297.36C57.8762 297.194 57.6546 296.966 57.4946 296.677C57.3346 296.388 57.2545 296.052 57.2545 295.67V293.122H58.0855V295.633C58.0855 295.874 58.1255 296.083 58.2056 296.261C58.2917 296.434 58.4148 296.566 58.5749 296.658C58.7349 296.751 58.9227 296.797 59.1381 296.797C59.4643 296.797 59.7198 296.695 59.9045 296.492C60.0891 296.283 60.1815 295.997 60.1815 295.633V293.122H61.0124V295.67C61.0124 296.052 60.9324 296.388 60.7724 296.677C60.6123 296.966 60.3907 297.194 60.1076 297.36C59.8306 297.52 59.5044 297.6 59.1289 297.6ZM65.2285 297.508V294.95C65.2285 294.618 65.1239 294.344 64.9146 294.128C64.7053 293.913 64.4345 293.805 64.1021 293.805C63.8805 293.805 63.6835 293.855 63.5112 293.953C63.3388 294.052 63.2034 294.187 63.1049 294.359C63.0064 294.532 62.9572 294.729 62.9572 294.95L62.6156 294.756C62.6156 294.424 62.6894 294.128 62.8372 293.87C62.9849 293.611 63.1911 293.408 63.4558 293.261C63.7205 293.107 64.019 293.03 64.3514 293.03C64.6838 293.03 64.9762 293.113 65.2285 293.279C65.4871 293.445 65.6902 293.664 65.8379 293.935C65.9857 294.199 66.0595 294.482 66.0595 294.784V297.508H65.2285ZM62.1262 297.508V293.122H62.9572V297.508H62.1262ZM69.0035 299.438C68.5542 299.438 68.1541 299.354 67.8032 299.188C67.4585 299.022 67.1815 298.788 66.9722 298.487L67.5078 297.942C67.6863 298.17 67.8986 298.342 68.1449 298.459C68.3911 298.582 68.6835 298.643 69.022 298.643C69.4714 298.643 69.8253 298.523 70.0838 298.283C70.3485 298.049 70.4809 297.732 70.4809 297.332V296.243L70.6286 295.255L70.4809 294.276V293.122H71.3118V297.332C71.3118 297.751 71.2133 298.117 71.0164 298.431C70.8256 298.745 70.5547 298.991 70.2039 299.17C69.8591 299.348 69.459 299.438 69.0035 299.438ZM69.0035 297.434C68.6034 297.434 68.2433 297.339 67.9233 297.148C67.6093 296.957 67.36 296.695 67.1754 296.363C66.9907 296.024 66.8984 295.646 66.8984 295.227C66.8984 294.809 66.9907 294.436 67.1754 294.11C67.36 293.778 67.6093 293.516 67.9233 293.325C68.2433 293.128 68.6034 293.03 69.0035 293.03C69.3482 293.03 69.6529 293.097 69.9176 293.233C70.1823 293.368 70.3916 293.559 70.5455 293.805C70.7055 294.045 70.7917 294.329 70.804 294.655V295.818C70.7855 296.138 70.6963 296.421 70.5362 296.668C70.3824 296.908 70.1731 297.095 69.9084 297.231C69.6437 297.366 69.3421 297.434 69.0035 297.434ZM69.1697 296.649C69.4406 296.649 69.6776 296.591 69.8807 296.474C70.09 296.357 70.25 296.194 70.3608 295.984C70.4716 295.769 70.527 295.52 70.527 295.236C70.527 294.953 70.4685 294.707 70.3516 294.498C70.2408 294.282 70.0838 294.116 69.8807 293.999C69.6776 293.876 69.4375 293.815 69.1605 293.815C68.8835 293.815 68.6404 293.876 68.4311 293.999C68.2218 294.116 68.0556 294.282 67.9325 294.498C67.8155 294.707 67.7571 294.95 67.7571 295.227C67.7571 295.504 67.8155 295.75 67.9325 295.966C68.0556 296.181 68.2218 296.351 68.4311 296.474C68.6465 296.591 68.8927 296.649 69.1697 296.649ZM74.5629 297.6C74.1258 297.6 73.7319 297.502 73.381 297.305C73.0301 297.102 72.7531 296.828 72.55 296.483C72.3469 296.138 72.2453 295.747 72.2453 295.31C72.2453 294.879 72.3438 294.492 72.5408 294.147C72.7439 293.802 73.0148 293.531 73.3533 293.334C73.698 293.131 74.0827 293.03 74.5075 293.03C74.9137 293.03 75.2707 293.122 75.5785 293.307C75.8924 293.491 76.1356 293.747 76.3079 294.073C76.4864 294.399 76.5757 294.769 76.5757 295.181C76.5757 295.243 76.5726 295.31 76.5665 295.384C76.5603 295.452 76.548 295.532 76.5295 295.624H72.827V294.932H76.0863L75.7816 295.2C75.7816 294.904 75.7293 294.655 75.6247 294.452C75.52 294.242 75.3723 294.082 75.1815 293.972C74.9907 293.855 74.7598 293.796 74.489 293.796C74.2058 293.796 73.9565 293.858 73.7411 293.981C73.5257 294.104 73.3595 294.276 73.2425 294.498C73.1256 294.719 73.0671 294.981 73.0671 295.283C73.0671 295.59 73.1286 295.861 73.2517 296.095C73.3748 296.323 73.5503 296.501 73.778 296.631C74.0058 296.754 74.2674 296.815 74.5629 296.815C74.8091 296.815 75.0337 296.772 75.2369 296.686C75.4462 296.6 75.6247 296.471 75.7724 296.298L76.3079 296.843C76.0986 297.089 75.8401 297.277 75.5323 297.406C75.2307 297.536 74.9076 297.6 74.5629 297.6Z" fill="#2E2E32" fill-opacity="0.8"/>
<path d="M225.828 291.471C226.415 290.65 227.636 290.65 228.223 291.471L230.627 294.832C231.324 295.806 230.627 297.161 229.429 297.161H224.621C223.423 297.161 222.727 295.806 223.424 294.832L225.828 291.471Z" fill="#0BC420"/>
<path d="M238.657 297.508V291.1H239.516V297.508H238.657ZM237.346 291.876V291.1H239.423V291.876H237.346ZM241.49 297.508L243.891 291.608L244.749 291.636L242.404 297.508H241.49ZM240.484 291.876V291.1H244.749V291.636L244.371 291.876H240.484ZM246.803 293.602C246.569 293.602 246.353 293.544 246.156 293.427C245.959 293.31 245.802 293.153 245.686 292.956C245.569 292.759 245.51 292.54 245.51 292.3C245.51 292.054 245.565 291.836 245.676 291.645C245.793 291.454 245.95 291.3 246.147 291.183C246.344 291.066 246.563 291.008 246.803 291.008C247.049 291.008 247.271 291.066 247.468 291.183C247.664 291.3 247.821 291.454 247.938 291.645C248.055 291.836 248.114 292.054 248.114 292.3C248.114 292.54 248.055 292.759 247.938 292.956C247.821 293.153 247.664 293.31 247.468 293.427C247.277 293.544 247.055 293.602 246.803 293.602ZM246.803 292.947C246.987 292.947 247.138 292.888 247.255 292.771C247.372 292.648 247.431 292.491 247.431 292.3C247.431 292.109 247.369 291.956 247.246 291.839C247.129 291.722 246.981 291.663 246.803 291.663C246.624 291.663 246.476 291.722 246.36 291.839C246.249 291.956 246.193 292.109 246.193 292.3C246.193 292.491 246.249 292.648 246.36 292.771C246.476 292.888 246.624 292.947 246.803 292.947ZM249.379 297.6C249.139 297.6 248.92 297.542 248.723 297.425C248.526 297.308 248.369 297.154 248.252 296.963C248.135 296.766 248.077 296.544 248.077 296.298C248.077 296.058 248.135 295.843 248.252 295.652C248.369 295.455 248.526 295.298 248.723 295.181C248.92 295.064 249.139 295.006 249.379 295.006C249.619 295.006 249.837 295.064 250.034 295.181C250.237 295.298 250.398 295.455 250.514 295.652C250.631 295.843 250.69 296.058 250.69 296.298C250.69 296.544 250.631 296.766 250.514 296.963C250.398 297.154 250.241 297.308 250.044 297.425C249.847 297.542 249.625 297.6 249.379 297.6ZM249.379 296.945C249.563 296.945 249.714 296.886 249.831 296.769C249.948 296.646 250.007 296.489 250.007 296.298C250.007 296.114 249.945 295.963 249.822 295.846C249.705 295.723 249.557 295.661 249.379 295.661C249.2 295.661 249.053 295.723 248.936 295.846C248.819 295.963 248.76 296.114 248.76 296.298C248.76 296.489 248.819 296.646 248.936 296.769C249.053 296.886 249.2 296.945 249.379 296.945ZM245.621 297.508L249.73 291.1H250.57L246.461 297.508H245.621Z" fill="#0BC420"/>
</g>
<path d="M38.0961 47.082V36.4947H40.2044V47.082H38.0961ZM34.6491 38.1258V36.2638H43.6514V38.1258H34.6491ZM46.5259 47.2359C45.777 47.2359 45.0999 47.0666 44.4946 46.7281C43.8995 46.3793 43.4225 45.9125 43.0634 45.3277C42.7146 44.7327 42.5402 44.071 42.5402 43.3426C42.5402 42.6142 42.7146 41.9627 43.0634 41.3882C43.4122 40.8035 43.8893 40.3418 44.4946 40.0033C45.0999 39.6545 45.7718 39.48 46.5105 39.48C47.2697 39.48 47.9468 39.6545 48.5418 40.0033C49.1471 40.3418 49.6241 40.8035 49.9729 41.3882C50.3217 41.9627 50.4961 42.6142 50.4961 43.3426C50.4961 44.071 50.3217 44.7327 49.9729 45.3277C49.6241 45.9125 49.1471 46.3793 48.5418 46.7281C47.9468 47.0666 47.2748 47.2359 46.5259 47.2359ZM46.5105 45.3585C46.8901 45.3585 47.2235 45.2764 47.5107 45.1123C47.8083 44.9379 48.034 44.7019 48.1878 44.4044C48.352 44.0966 48.4341 43.7478 48.4341 43.358C48.4341 42.9681 48.352 42.6245 48.1878 42.3269C48.0237 42.0294 47.798 41.7986 47.5107 41.6345C47.2235 41.4601 46.8901 41.3728 46.5105 41.3728C46.1412 41.3728 45.8129 41.4601 45.5256 41.6345C45.2384 41.7986 45.0127 42.0294 44.8485 42.3269C44.6844 42.6245 44.6023 42.9681 44.6023 43.358C44.6023 43.7478 44.6844 44.0966 44.8485 44.4044C45.0127 44.7019 45.2384 44.9379 45.5256 45.1123C45.8129 45.2764 46.1412 45.3585 46.5105 45.3585ZM55.9181 47.2359C55.3846 47.2359 54.9025 47.1282 54.4716 46.9128C54.0407 46.6871 53.697 46.3844 53.4405 46.0048C53.1841 45.6252 53.0456 45.1892 53.025 44.6968V42.0653C53.0456 41.5729 53.1841 41.1369 53.4405 40.7573C53.7073 40.3675 54.051 40.0597 54.4716 39.834C54.9025 39.6083 55.3846 39.4954 55.9181 39.4954C56.6055 39.4954 57.221 39.6647 57.7647 40.0033C58.3085 40.3418 58.7342 40.8035 59.042 41.3882C59.36 41.973 59.519 42.6347 59.519 43.3734C59.519 44.1018 59.36 44.7583 59.042 45.3431C58.7342 45.9279 58.3085 46.3895 57.7647 46.7281C57.221 47.0666 56.6055 47.2359 55.9181 47.2359ZM55.5642 45.3739C55.9335 45.3739 56.2618 45.2918 56.549 45.1277C56.8363 44.9533 57.0569 44.7173 57.2108 44.4198C57.3749 44.112 57.457 43.7581 57.457 43.358C57.457 42.9681 57.3749 42.6245 57.2108 42.3269C57.0569 42.0192 56.8363 41.7832 56.549 41.6191C56.2618 41.4447 55.9335 41.3575 55.5642 41.3575C55.2051 41.3575 54.8819 41.4447 54.5947 41.6191C54.3074 41.7832 54.0817 42.0192 53.9176 42.3269C53.7637 42.6245 53.6868 42.9681 53.6868 43.358C53.6868 43.7581 53.7637 44.112 53.9176 44.4198C54.0817 44.7173 54.3023 44.9533 54.5793 45.1277C54.8666 45.2918 55.1948 45.3739 55.5642 45.3739ZM51.794 50.1905V39.6493H53.8099V41.6037L53.4713 43.4041L53.7945 45.2046V50.1905H51.794ZM69.0785 47.2359C68.2886 47.2359 67.555 47.0974 66.8779 46.8204C66.2008 46.5332 65.6058 46.1382 65.0929 45.6355C64.5902 45.1225 64.2003 44.5275 63.9233 43.8504C63.6566 43.1733 63.5232 42.4449 63.5232 41.6652C63.5232 40.8855 63.6566 40.1571 63.9233 39.48C64.2003 38.8029 64.5902 38.2131 65.0929 37.7104C65.6058 37.2077 66.1957 36.8127 66.8625 36.5254C67.5396 36.2382 68.2783 36.0945 69.0785 36.0945C69.9403 36.0945 70.6994 36.2382 71.356 36.5254C72.0126 36.8024 72.5922 37.1871 73.0949 37.6796L71.6792 39.0953C71.3817 38.767 71.0175 38.5106 70.5866 38.3259C70.1557 38.1412 69.653 38.0489 69.0785 38.0489C68.5758 38.0489 68.1142 38.1361 67.6935 38.3105C67.2832 38.4747 66.9241 38.7209 66.6163 39.0492C66.3086 39.3672 66.0726 39.7519 65.9085 40.2033C65.7443 40.6445 65.6622 41.1318 65.6622 41.6652C65.6622 42.209 65.7443 42.7014 65.9085 43.1425C66.0726 43.5837 66.3086 43.9684 66.6163 44.2967C66.9241 44.6147 67.2832 44.8609 67.6935 45.0353C68.1142 45.2097 68.5758 45.297 69.0785 45.297C69.6838 45.297 70.2019 45.2046 70.6328 45.02C71.0739 44.8353 71.4432 44.5737 71.7407 44.2351L73.1565 45.6509C72.6538 46.1536 72.069 46.5434 71.4022 46.8204C70.7354 47.0974 69.9608 47.2359 69.0785 47.2359ZM77.3091 47.2359C76.632 47.2359 76.0216 47.0666 75.4779 46.7281C74.9342 46.3895 74.5084 45.9279 74.2006 45.3431C73.8929 44.7583 73.739 44.1018 73.739 43.3734C73.739 42.6347 73.8929 41.973 74.2006 41.3882C74.5084 40.8035 74.9342 40.3418 75.4779 40.0033C76.0216 39.6647 76.632 39.4954 77.3091 39.4954C77.8426 39.4954 78.3197 39.6032 78.7403 39.8186C79.1609 40.034 79.4943 40.3367 79.7405 40.7265C79.997 41.1061 80.1355 41.537 80.156 42.0192V44.6968C80.1355 45.1892 79.997 45.6252 79.7405 46.0048C79.4943 46.3844 79.1609 46.6871 78.7403 46.9128C78.3197 47.1282 77.8426 47.2359 77.3091 47.2359ZM77.6785 45.3739C78.2427 45.3739 78.6992 45.1892 79.0481 44.8199C79.3969 44.4403 79.5713 43.953 79.5713 43.358C79.5713 42.9681 79.4892 42.6245 79.3251 42.3269C79.1712 42.0192 78.9506 41.7832 78.6633 41.6191C78.3863 41.4447 78.0581 41.3575 77.6785 41.3575C77.3091 41.3575 76.9809 41.4447 76.6936 41.6191C76.4166 41.7832 76.196 42.0192 76.0319 42.3269C75.878 42.6245 75.8011 42.9681 75.8011 43.358C75.8011 43.7581 75.878 44.112 76.0319 44.4198C76.196 44.7173 76.4166 44.9533 76.6936 45.1277C76.9809 45.2918 77.3091 45.3739 77.6785 45.3739ZM79.4635 47.082V45.0815L79.7867 43.2657L79.4635 41.4806V39.6493H81.4641V47.082H79.4635ZM85.802 47.2513C85.3814 47.2513 84.9659 47.1949 84.5555 47.082C84.1554 46.9692 83.7861 46.8153 83.4475 46.6204C83.109 46.4152 82.8166 46.169 82.5704 45.8817L83.7707 44.666C84.0272 44.9533 84.3247 45.1687 84.6632 45.3123C85.0018 45.456 85.3762 45.5278 85.7866 45.5278C86.1149 45.5278 86.3611 45.4816 86.5253 45.3893C86.6997 45.297 86.7869 45.1585 86.7869 44.9738C86.7869 44.7686 86.6945 44.6096 86.5099 44.4967C86.3355 44.3839 86.1046 44.2916 85.8174 44.2197C85.5301 44.1377 85.2275 44.0505 84.9094 43.9581C84.6017 43.8555 84.3042 43.7273 84.0169 43.5734C83.7296 43.4093 83.4937 43.1887 83.309 42.9117C83.1346 42.6245 83.0474 42.2551 83.0474 41.8037C83.0474 41.3318 83.1603 40.9214 83.386 40.5726C83.6219 40.2238 83.9553 39.952 84.3862 39.757C84.8171 39.5621 85.3249 39.4647 85.9097 39.4647C86.5252 39.4647 87.0792 39.5724 87.5717 39.7878C88.0744 40.0033 88.4899 40.3264 88.8182 40.7573L87.6025 41.973C87.3768 41.696 87.1203 41.496 86.833 41.3728C86.556 41.2497 86.2534 41.1882 85.9251 41.1882C85.6276 41.1882 85.3968 41.2344 85.2326 41.3267C85.0787 41.419 85.0018 41.5473 85.0018 41.7114C85.0018 41.8961 85.089 42.0397 85.2634 42.1423C85.448 42.2449 85.684 42.3372 85.9713 42.4193C86.2585 42.4911 86.556 42.5783 86.8638 42.6809C87.1818 42.7732 87.4793 42.9066 87.7563 43.081C88.0436 43.2554 88.2744 43.4862 88.4488 43.7735C88.6335 44.0607 88.7258 44.4301 88.7258 44.8815C88.7258 45.6099 88.4642 46.1895 87.941 46.6204C87.4178 47.041 86.7048 47.2513 85.802 47.2513ZM93.64 47.2359C92.8603 47.2359 92.1678 47.0718 91.5625 46.7435C90.9572 46.4049 90.475 45.9433 90.116 45.3585C89.7672 44.7737 89.5928 44.1069 89.5928 43.358C89.5928 42.6193 89.762 41.9627 90.1006 41.3882C90.4494 40.8035 90.9213 40.3418 91.5163 40.0033C92.1114 39.6545 92.7731 39.48 93.5015 39.48C94.2196 39.48 94.8505 39.6442 95.3943 39.9725C95.9483 40.2905 96.3791 40.7317 96.6869 41.2959C97.0049 41.8499 97.164 42.4808 97.164 43.1887C97.164 43.3221 97.1537 43.4606 97.1332 43.6042C97.1229 43.7376 97.0973 43.8915 97.0562 44.0659L90.8085 44.0812V42.5732L96.1175 42.5578L95.3019 43.1887C95.2814 42.7476 95.1993 42.3782 95.0557 42.0807C94.9224 41.7832 94.7223 41.5575 94.4556 41.4036C94.1991 41.2395 93.8811 41.1574 93.5015 41.1574C93.1014 41.1574 92.7526 41.2497 92.455 41.4344C92.1575 41.6088 91.9267 41.8602 91.7626 42.1884C91.6087 42.5065 91.5317 42.8861 91.5317 43.3272C91.5317 43.7786 91.6138 44.1736 91.7779 44.5121C91.9523 44.8404 92.1986 45.0969 92.5166 45.2816C92.8346 45.456 93.204 45.5432 93.6246 45.5432C94.0042 45.5432 94.3478 45.4816 94.6556 45.3585C94.9634 45.2251 95.2301 45.0302 95.4558 44.7737L96.6408 45.9587C96.2817 46.3793 95.8405 46.6973 95.3173 46.9128C94.8044 47.1282 94.2453 47.2359 93.64 47.2359Z" fill="#2E2E32"/>
<rect x="207.134" y="30.8886" width="44.5415" height="20.386" rx="2.69301" stroke="#DBDADF" stroke-width="0.769431"/>
<path d="M215.757 44.582L213.191 38.1742H214.132L216.247 43.5941H215.905L218.038 38.1742H218.97L216.385 44.582H215.757ZM219.88 44.582V40.1963H220.711V44.582H219.88ZM220.295 39.3191C220.141 39.3191 220.015 39.2699 219.917 39.1714C219.818 39.0667 219.769 38.9375 219.769 38.7836C219.769 38.6359 219.818 38.5128 219.917 38.4143C220.015 38.3096 220.141 38.2573 220.295 38.2573C220.449 38.2573 220.575 38.3096 220.674 38.4143C220.772 38.5128 220.822 38.6359 220.822 38.7836C220.822 38.9375 220.772 39.0667 220.674 39.1714C220.575 39.2699 220.449 39.3191 220.295 39.3191ZM223.967 44.6744C223.53 44.6744 223.136 44.5759 222.785 44.3789C222.434 44.1758 222.157 43.9019 221.954 43.5571C221.751 43.2124 221.649 42.8216 221.649 42.3845C221.649 41.9537 221.748 41.5659 221.945 41.2212C222.148 40.8764 222.419 40.6056 222.757 40.4086C223.102 40.2055 223.487 40.1039 223.911 40.1039C224.318 40.1039 224.675 40.1963 224.982 40.3809C225.296 40.5656 225.539 40.8211 225.712 41.1473C225.89 41.4735 225.979 41.8429 225.979 42.2553C225.979 42.3168 225.976 42.3845 225.97 42.4584C225.964 42.5261 225.952 42.6061 225.933 42.6985H222.231V42.006H225.49L225.185 42.2737C225.185 41.9783 225.133 41.729 225.028 41.5258C224.924 41.3166 224.776 41.1565 224.585 41.0457C224.394 40.9288 224.164 40.8703 223.893 40.8703C223.61 40.8703 223.36 40.9318 223.145 41.055C222.929 41.1781 222.763 41.3504 222.646 41.572C222.529 41.7936 222.471 42.0552 222.471 42.3568C222.471 42.6646 222.532 42.9354 222.656 43.1694C222.779 43.3971 222.954 43.5756 223.182 43.7049C223.41 43.828 223.671 43.8895 223.967 43.8895C224.213 43.8895 224.438 43.8465 224.641 43.7603C224.85 43.6741 225.028 43.5448 225.176 43.3725L225.712 43.9172C225.502 44.1635 225.244 44.3512 224.936 44.4805C224.635 44.6097 224.311 44.6744 223.967 44.6744ZM228.087 44.582L226.351 40.1963H227.219L228.475 43.6125H228.198L229.444 40.1963H229.925L231.171 43.6125H230.894L232.15 40.1963H233.018L231.291 44.582H230.802L229.537 41.2673H229.841L228.567 44.582H228.087ZM235.092 44.582L237.714 38.1742H238.342L240.955 44.582H240.014L237.862 39.1622H238.185L236.016 44.582H235.092ZM236.339 43.1324V42.3753H239.709V43.1324H236.339ZM241.844 44.582V37.9895H242.675V44.582H241.844ZM243.891 44.582V37.9895H244.722V44.582H243.891Z" fill="#919099"/>
</g>
<defs>
<filter id="filter0_d_65_2380" x="0" y="0" width="286.371" height="330.229" filterUnits="userSpaceOnUse" color-interpolation-filters="sRGB">
<feFlood flood-opacity="0" result="BackgroundImageFix"/>
<feColorMatrix in="SourceAlpha" type="matrix" values="0 0 0 0 0 0 0 0 0 0 0 0 0 0 0 0 0 0 127 0" result="hardAlpha"/>
<feOffset dy="4"/>
<feGaussianBlur stdDeviation="11"/>
<feComposite in2="hardAlpha" operator="out"/>
<feColorMatrix type="matrix" values="0 0 0 0 0.154167 0 0 0 0 0.147101 0 0 0 0 0.147101 0 0 0 0.07 0"/>
<feBlend mode="normal" in2="BackgroundImageFix" result="effect1_dropShadow_65_2380"/>
<feBlend mode="normal" in="SourceGraphic" in2="effect1_dropShadow_65_2380" result="shape"/>
</filter>
<clipPath id="clip0_65_2380">
<rect width="217.749" height="223.905" fill="white" transform="translate(34.3105 67.2441)"/>
</clipPath>
</defs>
</svg>
