<svg width="105" height="110" viewBox="0 0 105 110" fill="none" xmlns="http://www.w3.org/2000/svg">
<rect x="49.876" y="109.414" width="64.1783" height="87.5931" rx="32.0891" transform="rotate(-141 49.876 109.414)" fill="#AA88FD"/>
<g clip-path="url(#clip0_65_2136)">
<path d="M58.5322 58.1867V71.2455C58.5322 71.8301 59.0039 72.4523 59.5288 72.4523H64.3144C64.8401 72.4523 65.1708 71.8305 65.1708 71.2455V49.6914C64.7314 50.833 64.2131 51.8978 63.6157 52.8787C62.3001 55.039 60.5897 56.8232 58.5322 58.1867Z" fill="white"/>
<path d="M36.7197 71.2799C36.7197 71.848 37.2245 72.4527 37.825 72.4527H43.2944C43.8938 72.4527 44.3067 71.8484 44.3067 71.2799V61.7921C40.961 61.7571 38.1777 61.3401 36.7197 61.0723V71.2799Z" fill="white"/>
<path d="M47.1523 61.6844V71.2809C47.1523 71.8482 47.5216 72.4519 48.1234 72.4519H53.5909C54.1931 72.4519 54.7393 71.8479 54.7393 71.2809V60.123C53.5136 60.5618 52.2096 60.9176 50.8352 61.1855C49.6603 61.4146 48.429 61.581 47.1523 61.6844Z" fill="white"/>
<path d="M53.6183 50.858C53.6771 50.7855 53.7345 50.7128 53.7909 50.6401C53.7833 50.6399 53.7758 50.6387 53.7682 50.6387H48.1503C47.5318 50.6387 47.1523 51.2577 47.1523 51.8497V55.3805C47.3787 55.2937 47.6023 55.2045 47.821 55.111C50.2078 54.09 52.1583 52.6591 53.6183 50.858Z" fill="white"/>
<path d="M65.7276 43.7602H65.7682H68.9645L61.6636 37.3633L54.3627 43.7602H58.2878C58.235 44.9311 57.8416 48.8496 55.0018 52.4484C53.405 54.472 51.0347 56.3943 47.5163 57.6706C45.2451 58.4943 42.4954 59.0487 39.1665 59.1872C38.6279 59.2096 38.0747 59.2215 37.5052 59.2215C37.4327 59.2215 37.3593 59.2208 37.2864 59.2204C36.7927 59.2178 36.2891 59.2073 35.7715 59.1872C35.7715 59.1872 36.1767 59.2886 36.8933 59.4248C38.2842 59.689 40.8485 60.084 43.9014 60.1213C44.0554 60.1232 44.2104 60.1242 44.3668 60.1242C45.3764 60.1242 46.4341 60.0837 47.5163 59.9857C49.9775 59.7631 52.5653 59.2428 55.0018 58.2282C56.1425 57.7532 57.2497 57.1695 58.2955 56.4571C61.8822 54.0139 64.7436 50.0558 65.7276 43.7602Z" fill="white"/>
</g>
<defs>
<clipPath id="clip0_65_2136">
<rect width="37.9349" height="37.9349" fill="white" transform="translate(33.875 36.4141)"/>
</clipPath>
</defs>
</svg>
