<svg width="495" height="416" viewBox="0 0 495 416" fill="none" xmlns="http://www.w3.org/2000/svg">
<g filter="url(#filter0_d_65_2340)">
<rect x="22" y="18" width="451" height="372" rx="12" fill="white"/>
<path d="M50.02 59.22C48.9933 59.22 48.0333 59.0333 47.14 58.66C46.26 58.2867 45.4867 57.7733 44.82 57.12C44.1667 56.4533 43.6533 55.68 43.28 54.8C42.9067 53.9067 42.72 52.9533 42.72 51.94C42.72 50.9267 42.9 49.9867 43.26 49.12C43.6333 48.24 44.1467 47.4733 44.8 46.82C45.4667 46.1533 46.24 45.64 47.12 45.28C48 44.9067 48.9533 44.72 49.98 44.72C51.02 44.72 51.98 44.9067 52.86 45.28C53.74 45.64 54.5067 46.1533 55.16 46.82C55.8267 47.4733 56.3467 48.24 56.72 49.12C57.0933 50 57.28 50.9467 57.28 51.96C57.28 52.9733 57.0933 53.92 56.72 54.8C56.3467 55.68 55.8267 56.4533 55.16 57.12C54.5067 57.7733 53.74 58.2867 52.86 58.66C51.9933 59.0333 51.0467 59.22 50.02 59.22ZM49.98 56.68C50.8867 56.68 51.6733 56.48 52.34 56.08C53.0067 55.68 53.5267 55.1267 53.9 54.42C54.2867 53.7133 54.48 52.8867 54.48 51.94C54.48 51.2467 54.3733 50.6133 54.16 50.04C53.9467 49.4667 53.64 48.9733 53.24 48.56C52.84 48.1333 52.3667 47.8067 51.82 47.58C51.2733 47.3533 50.66 47.24 49.98 47.24C49.1 47.24 48.32 47.44 47.64 47.84C46.9733 48.2267 46.4467 48.7733 46.06 49.48C45.6867 50.1867 45.5 51.0067 45.5 51.94C45.5 52.6467 45.6067 53.2933 45.82 53.88C46.0467 54.4667 46.3533 54.9667 46.74 55.38C47.14 55.7933 47.6133 56.1133 48.16 56.34C48.72 56.5667 49.3267 56.68 49.98 56.68ZM62.2961 59L58.0361 49.34H60.9161L63.9761 57.3H62.5561L65.6361 49.34H68.4161L64.1761 59H62.2961ZM73.9519 59.2C72.9385 59.2 72.0385 58.9867 71.2519 58.56C70.4652 58.12 69.8385 57.52 69.3719 56.76C68.9185 56 68.6919 55.1333 68.6919 54.16C68.6919 53.2 68.9119 52.3467 69.3519 51.6C69.8052 50.84 70.4185 50.24 71.1919 49.8C71.9652 49.3467 72.8252 49.12 73.7719 49.12C74.7052 49.12 75.5252 49.3333 76.2319 49.76C76.9519 50.1733 77.5119 50.7467 77.9119 51.48C78.3252 52.2 78.5319 53.02 78.5319 53.94C78.5319 54.1133 78.5185 54.2933 78.4919 54.48C78.4785 54.6533 78.4452 54.8533 78.3919 55.08L70.2719 55.1V53.14L77.1719 53.12L76.1119 53.94C76.0852 53.3667 75.9785 52.8867 75.7919 52.5C75.6185 52.1133 75.3585 51.82 75.0119 51.62C74.6785 51.4067 74.2652 51.3 73.7719 51.3C73.2519 51.3 72.7985 51.42 72.4119 51.66C72.0252 51.8867 71.7252 52.2133 71.5119 52.64C71.3119 53.0533 71.2119 53.5467 71.2119 54.12C71.2119 54.7067 71.3185 55.22 71.5319 55.66C71.7585 56.0867 72.0785 56.42 72.4919 56.66C72.9052 56.8867 73.3852 57 73.9319 57C74.4252 57 74.8719 56.92 75.2719 56.76C75.6719 56.5867 76.0185 56.3333 76.3119 56L77.8519 57.54C77.3852 58.0867 76.8119 58.5 76.1319 58.78C75.4652 59.06 74.7385 59.2 73.9519 59.2ZM80.1522 59V49.34H82.7722V59H80.1522ZM82.7722 53.66L81.7522 52.98C81.8722 51.7933 82.2189 50.86 82.7922 50.18C83.3655 49.4867 84.1922 49.14 85.2722 49.14C85.7389 49.14 86.1589 49.22 86.5322 49.38C86.9055 49.5267 87.2455 49.7733 87.5522 50.12L85.9122 52C85.7655 51.84 85.5855 51.72 85.3722 51.64C85.1722 51.56 84.9389 51.52 84.6722 51.52C84.1122 51.52 83.6522 51.7 83.2922 52.06C82.9455 52.4067 82.7722 52.94 82.7722 53.66ZM97.5103 59L91.9703 44.94H94.9103L99.1903 56.32H98.0503L102.37 44.94H105.27L99.6703 59H97.5103ZM106.832 59V49.34H109.472V59H106.832ZM108.152 47.78C107.725 47.78 107.372 47.64 107.092 47.36C106.812 47.0667 106.672 46.7067 106.672 46.28C106.672 45.8667 106.812 45.5133 107.092 45.22C107.372 44.9267 107.725 44.78 108.152 44.78C108.592 44.78 108.945 44.9267 109.212 45.22C109.492 45.5133 109.632 45.8667 109.632 46.28C109.632 46.7067 109.492 47.0667 109.212 47.36C108.945 47.64 108.592 47.78 108.152 47.78ZM116.413 59.2C115.399 59.2 114.499 58.9867 113.713 58.56C112.926 58.12 112.299 57.52 111.833 56.76C111.379 56 111.153 55.1333 111.153 54.16C111.153 53.2 111.373 52.3467 111.813 51.6C112.266 50.84 112.879 50.24 113.653 49.8C114.426 49.3467 115.286 49.12 116.233 49.12C117.166 49.12 117.986 49.3333 118.693 49.76C119.413 50.1733 119.973 50.7467 120.373 51.48C120.786 52.2 120.993 53.02 120.993 53.94C120.993 54.1133 120.979 54.2933 120.953 54.48C120.939 54.6533 120.906 54.8533 120.853 55.08L112.733 55.1V53.14L119.633 53.12L118.573 53.94C118.546 53.3667 118.439 52.8867 118.253 52.5C118.079 52.1133 117.819 51.82 117.473 51.62C117.139 51.4067 116.726 51.3 116.233 51.3C115.713 51.3 115.259 51.42 114.873 51.66C114.486 51.8867 114.186 52.2133 113.973 52.64C113.773 53.0533 113.673 53.5467 113.673 54.12C113.673 54.7067 113.779 55.22 113.993 55.66C114.219 56.0867 114.539 56.42 114.953 56.66C115.366 56.8867 115.846 57 116.393 57C116.886 57 117.333 56.92 117.733 56.76C118.133 56.5867 118.479 56.3333 118.773 56L120.313 57.54C119.846 58.0867 119.273 58.5 118.593 58.78C117.926 59.06 117.199 59.2 116.413 59.2ZM125.076 59L121.456 49.34H124.096L126.456 56.36L125.656 56.38L128.076 49.34H129.976L132.396 56.38L131.596 56.36L133.956 49.34H136.596L132.996 59H131.096L128.656 52.32H129.396L126.956 59H125.076Z" fill="#2E2E32"/>
<path d="M440.25 52.0017C440.25 51.5905 439.914 51.2572 439.5 51.2572C439.086 51.2572 438.75 51.5905 438.75 52.0017C438.75 52.4128 439.086 52.7461 439.5 52.7461C439.914 52.7461 440.25 52.4128 440.25 52.0017Z" stroke="#686770" stroke-width="1.5" stroke-linecap="round" stroke-linejoin="round"/>
<path d="M445.75 52.0017C445.75 51.5905 445.414 51.2572 445 51.2572C444.586 51.2572 444.25 51.5905 444.25 52.0017C444.25 52.4128 444.586 52.7461 445 52.7461C445.414 52.7461 445.75 52.4128 445.75 52.0017Z" stroke="#686770" stroke-width="1.5" stroke-linecap="round" stroke-linejoin="round"/>
<path d="M451.25 52.0017C451.25 51.5905 450.914 51.2572 450.5 51.2572C450.086 51.2572 449.75 51.5905 449.75 52.0017C449.75 52.4128 450.086 52.7461 450.5 52.7461C450.914 52.7461 451.25 52.4128 451.25 52.0017Z" stroke="#686770" stroke-width="1.5" stroke-linecap="round" stroke-linejoin="round"/>
<circle cx="46" cy="91.5" r="4" fill="#7842E8"/>
<path d="M58.984 96V87.672H59.776L60.112 88.98V96H58.984ZM64.744 96L59.632 89.172L59.776 87.672L64.9 94.488L64.744 96ZM64.744 96L64.408 94.764V87.672H65.536V96H64.744ZM69.9155 96.12C69.3555 96.12 68.8515 95.988 68.4035 95.724C67.9555 95.46 67.5995 95.104 67.3355 94.656C67.0715 94.2 66.9395 93.692 66.9395 93.132C66.9395 92.58 67.0715 92.084 67.3355 91.644C67.5995 91.196 67.9555 90.84 68.4035 90.576C68.8515 90.312 69.3555 90.18 69.9155 90.18C70.4675 90.18 70.9675 90.312 71.4155 90.576C71.8715 90.832 72.2315 91.184 72.4955 91.632C72.7595 92.08 72.8915 92.58 72.8915 93.132C72.8915 93.692 72.7595 94.2 72.4955 94.656C72.2315 95.104 71.8715 95.46 71.4155 95.724C70.9675 95.988 70.4675 96.12 69.9155 96.12ZM69.9155 95.076C70.2755 95.076 70.5955 94.992 70.8755 94.824C71.1555 94.656 71.3755 94.428 71.5355 94.14C71.6955 93.844 71.7755 93.508 71.7755 93.132C71.7755 92.764 71.6915 92.436 71.5235 92.148C71.3635 91.86 71.1435 91.636 70.8635 91.476C70.5915 91.308 70.2755 91.224 69.9155 91.224C69.5555 91.224 69.2355 91.308 68.9555 91.476C68.6755 91.636 68.4555 91.86 68.2955 92.148C68.1355 92.436 68.0555 92.764 68.0555 93.132C68.0555 93.508 68.1355 93.844 68.2955 94.14C68.4555 94.428 68.6755 94.656 68.9555 94.824C69.2355 94.992 69.5555 95.076 69.9155 95.076ZM75.8418 96L73.2258 90.3H74.4258L76.5258 95.112H75.8298L77.9418 90.3H79.0938L76.4778 96H75.8418ZM85.6788 96.12C85.0548 96.12 84.4828 95.944 83.9628 95.592C83.4508 95.24 83.0428 94.744 82.7388 94.104C82.4348 93.456 82.2828 92.696 82.2828 91.824C82.2828 90.952 82.4308 90.196 82.7268 89.556C83.0308 88.916 83.4388 88.424 83.9508 88.08C84.4628 87.728 85.0268 87.552 85.6428 87.552C86.2748 87.552 86.8468 87.728 87.3588 88.08C87.8708 88.424 88.2748 88.916 88.5708 89.556C88.8748 90.196 89.0268 90.956 89.0268 91.836C89.0268 92.708 88.8748 93.468 88.5708 94.116C88.2748 94.756 87.8708 95.252 87.3588 95.604C86.8548 95.948 86.2948 96.12 85.6788 96.12ZM85.6548 95.052C86.0948 95.052 86.4788 94.932 86.8068 94.692C87.1428 94.444 87.4068 94.08 87.5988 93.6C87.7908 93.12 87.8867 92.528 87.8867 91.824C87.8867 91.12 87.7908 90.532 87.5988 90.06C87.4068 89.58 87.1428 89.22 86.8068 88.98C86.4708 88.732 86.0828 88.608 85.6428 88.608C85.2108 88.608 84.8268 88.732 84.4908 88.98C84.1548 89.22 83.8908 89.58 83.6988 90.06C83.5148 90.532 83.4228 91.12 83.4228 91.824C83.4228 92.528 83.5148 93.12 83.6988 93.6C83.8908 94.08 84.1548 94.444 84.4908 94.692C84.8268 94.932 85.2148 95.052 85.6548 95.052ZM91.6698 96V87.672H92.7858V96H91.6698ZM89.9658 88.68V87.672H92.6658V88.68H89.9658ZM97.042 93.456V92.436H100.99V93.456H97.042ZM106.005 96V94.968H108.321C108.937 94.968 109.477 94.836 109.941 94.572C110.405 94.3 110.765 93.928 111.021 93.456C111.285 92.984 111.417 92.44 111.417 91.824C111.417 91.216 111.285 90.676 111.021 90.204C110.757 89.732 110.393 89.364 109.929 89.1C109.465 88.836 108.929 88.704 108.321 88.704H106.017V87.672H108.345C108.953 87.672 109.513 87.776 110.025 87.984C110.545 88.192 110.993 88.484 111.369 88.86C111.753 89.236 112.049 89.676 112.257 90.18C112.473 90.684 112.581 91.236 112.581 91.836C112.581 92.428 112.473 92.98 112.257 93.492C112.049 93.996 111.757 94.436 111.381 94.812C111.005 95.188 110.557 95.48 110.037 95.688C109.525 95.896 108.969 96 108.369 96H106.005ZM105.261 96V87.672H106.389V96H105.261ZM116.592 96.12C116.024 96.12 115.512 95.992 115.056 95.736C114.6 95.472 114.24 95.116 113.976 94.668C113.712 94.22 113.58 93.712 113.58 93.144C113.58 92.584 113.708 92.08 113.964 91.632C114.228 91.184 114.58 90.832 115.02 90.576C115.468 90.312 115.968 90.18 116.52 90.18C117.048 90.18 117.512 90.3 117.912 90.54C118.32 90.78 118.636 91.112 118.86 91.536C119.092 91.96 119.208 92.44 119.208 92.976C119.208 93.056 119.204 93.144 119.196 93.24C119.188 93.328 119.172 93.432 119.148 93.552H114.336V92.652H118.572L118.176 93C118.176 92.616 118.108 92.292 117.972 92.028C117.836 91.756 117.644 91.548 117.396 91.404C117.148 91.252 116.848 91.176 116.496 91.176C116.128 91.176 115.804 91.256 115.524 91.416C115.244 91.576 115.028 91.8 114.876 92.088C114.724 92.376 114.648 92.716 114.648 93.108C114.648 93.508 114.728 93.86 114.888 94.164C115.048 94.46 115.276 94.692 115.572 94.86C115.868 95.02 116.208 95.1 116.592 95.1C116.912 95.1 117.204 95.044 117.468 94.932C117.74 94.82 117.972 94.652 118.164 94.428L118.86 95.136C118.588 95.456 118.252 95.7 117.852 95.868C117.46 96.036 117.04 96.12 116.592 96.12ZM122.99 96.12C122.43 96.12 121.922 95.988 121.466 95.724C121.018 95.46 120.662 95.104 120.398 94.656C120.142 94.2 120.014 93.696 120.014 93.144C120.014 92.584 120.142 92.08 120.398 91.632C120.662 91.184 121.018 90.832 121.466 90.576C121.922 90.312 122.43 90.18 122.99 90.18C123.43 90.18 123.838 90.264 124.214 90.432C124.59 90.592 124.914 90.828 125.186 91.14L124.466 91.86C124.29 91.652 124.074 91.496 123.818 91.392C123.57 91.28 123.294 91.224 122.99 91.224C122.63 91.224 122.31 91.308 122.03 91.476C121.75 91.636 121.53 91.86 121.37 92.148C121.21 92.436 121.13 92.768 121.13 93.144C121.13 93.52 121.21 93.852 121.37 94.14C121.53 94.428 121.75 94.656 122.03 94.824C122.31 94.992 122.63 95.076 122.99 95.076C123.294 95.076 123.57 95.024 123.818 94.92C124.074 94.808 124.294 94.648 124.478 94.44L125.186 95.16C124.922 95.464 124.598 95.7 124.214 95.868C123.838 96.036 123.43 96.12 122.99 96.12ZM131.921 96.12C131.297 96.12 130.725 95.944 130.205 95.592C129.693 95.24 129.285 94.744 128.981 94.104C128.677 93.456 128.525 92.696 128.525 91.824C128.525 90.952 128.673 90.196 128.969 89.556C129.273 88.916 129.681 88.424 130.193 88.08C130.705 87.728 131.269 87.552 131.885 87.552C132.517 87.552 133.089 87.728 133.601 88.08C134.113 88.424 134.517 88.916 134.813 89.556C135.117 90.196 135.269 90.956 135.269 91.836C135.269 92.708 135.117 93.468 134.813 94.116C134.517 94.756 134.113 95.252 133.601 95.604C133.097 95.948 132.537 96.12 131.921 96.12ZM131.897 95.052C132.337 95.052 132.721 94.932 133.049 94.692C133.385 94.444 133.649 94.08 133.841 93.6C134.033 93.12 134.129 92.528 134.129 91.824C134.129 91.12 134.033 90.532 133.841 90.06C133.649 89.58 133.385 89.22 133.049 88.98C132.713 88.732 132.325 88.608 131.885 88.608C131.453 88.608 131.069 88.732 130.733 88.98C130.397 89.22 130.133 89.58 129.941 90.06C129.757 90.532 129.665 91.12 129.665 91.824C129.665 92.528 129.757 93.12 129.941 93.6C130.133 94.08 130.397 94.444 130.733 94.692C131.069 94.932 131.457 95.052 131.897 95.052ZM137.912 96V87.672H139.028V96H137.912ZM136.208 88.68V87.672H138.908V88.68H136.208Z" fill="#919099"/>
<circle cx="164" cy="91.5" r="4" fill="#22B5F4"/>
<path d="M177.728 96V94.968H180.044C180.66 94.968 181.2 94.836 181.664 94.572C182.128 94.3 182.488 93.928 182.744 93.456C183.008 92.984 183.14 92.44 183.14 91.824C183.14 91.216 183.008 90.676 182.744 90.204C182.48 89.732 182.116 89.364 181.652 89.1C181.188 88.836 180.652 88.704 180.044 88.704H177.74V87.672H180.068C180.676 87.672 181.236 87.776 181.748 87.984C182.268 88.192 182.716 88.484 183.092 88.86C183.476 89.236 183.772 89.676 183.98 90.18C184.196 90.684 184.304 91.236 184.304 91.836C184.304 92.428 184.196 92.98 183.98 93.492C183.772 93.996 183.48 94.436 183.104 94.812C182.728 95.188 182.28 95.48 181.76 95.688C181.248 95.896 180.692 96 180.092 96H177.728ZM176.984 96V87.672H178.112V96H176.984ZM188.315 96.12C187.747 96.12 187.235 95.992 186.779 95.736C186.323 95.472 185.963 95.116 185.699 94.668C185.435 94.22 185.303 93.712 185.303 93.144C185.303 92.584 185.431 92.08 185.687 91.632C185.951 91.184 186.303 90.832 186.743 90.576C187.191 90.312 187.691 90.18 188.243 90.18C188.771 90.18 189.235 90.3 189.635 90.54C190.043 90.78 190.359 91.112 190.583 91.536C190.815 91.96 190.931 92.44 190.931 92.976C190.931 93.056 190.927 93.144 190.919 93.24C190.911 93.328 190.895 93.432 190.871 93.552H186.059V92.652H190.295L189.899 93C189.899 92.616 189.831 92.292 189.695 92.028C189.559 91.756 189.367 91.548 189.119 91.404C188.871 91.252 188.571 91.176 188.219 91.176C187.851 91.176 187.527 91.256 187.247 91.416C186.967 91.576 186.751 91.8 186.599 92.088C186.447 92.376 186.371 92.716 186.371 93.108C186.371 93.508 186.451 93.86 186.611 94.164C186.771 94.46 186.999 94.692 187.295 94.86C187.591 95.02 187.931 95.1 188.315 95.1C188.635 95.1 188.927 95.044 189.191 94.932C189.463 94.82 189.695 94.652 189.887 94.428L190.583 95.136C190.311 95.456 189.975 95.7 189.575 95.868C189.183 96.036 188.763 96.12 188.315 96.12ZM194.712 96.12C194.152 96.12 193.644 95.988 193.188 95.724C192.74 95.46 192.384 95.104 192.12 94.656C191.864 94.2 191.736 93.696 191.736 93.144C191.736 92.584 191.864 92.08 192.12 91.632C192.384 91.184 192.74 90.832 193.188 90.576C193.644 90.312 194.152 90.18 194.712 90.18C195.152 90.18 195.56 90.264 195.936 90.432C196.312 90.592 196.636 90.828 196.908 91.14L196.188 91.86C196.012 91.652 195.796 91.496 195.54 91.392C195.292 91.28 195.016 91.224 194.712 91.224C194.352 91.224 194.032 91.308 193.752 91.476C193.472 91.636 193.252 91.86 193.092 92.148C192.932 92.436 192.852 92.768 192.852 93.144C192.852 93.52 192.932 93.852 193.092 94.14C193.252 94.428 193.472 94.656 193.752 94.824C194.032 94.992 194.352 95.076 194.712 95.076C195.016 95.076 195.292 95.024 195.54 94.92C195.796 94.808 196.016 94.648 196.2 94.44L196.908 95.16C196.644 95.464 196.32 95.7 195.936 95.868C195.56 96.036 195.152 96.12 194.712 96.12ZM203.644 96.12C203.02 96.12 202.448 95.944 201.928 95.592C201.416 95.24 201.008 94.744 200.704 94.104C200.4 93.456 200.248 92.696 200.248 91.824C200.248 90.952 200.396 90.196 200.692 89.556C200.996 88.916 201.404 88.424 201.916 88.08C202.428 87.728 202.992 87.552 203.608 87.552C204.24 87.552 204.812 87.728 205.324 88.08C205.836 88.424 206.24 88.916 206.536 89.556C206.84 90.196 206.992 90.956 206.992 91.836C206.992 92.708 206.84 93.468 206.536 94.116C206.24 94.756 205.836 95.252 205.324 95.604C204.82 95.948 204.26 96.12 203.644 96.12ZM203.62 95.052C204.06 95.052 204.444 94.932 204.772 94.692C205.108 94.444 205.372 94.08 205.564 93.6C205.756 93.12 205.852 92.528 205.852 91.824C205.852 91.12 205.756 90.532 205.564 90.06C205.372 89.58 205.108 89.22 204.772 88.98C204.436 88.732 204.048 88.608 203.608 88.608C203.176 88.608 202.792 88.732 202.456 88.98C202.12 89.22 201.856 89.58 201.664 90.06C201.48 90.532 201.388 91.12 201.388 91.824C201.388 92.528 201.48 93.12 201.664 93.6C201.856 94.08 202.12 94.444 202.456 94.692C202.792 94.932 203.18 95.052 203.62 95.052ZM210.859 96.12C210.307 96.12 209.819 96.016 209.395 95.808C208.979 95.6 208.655 95.312 208.423 94.944C208.191 94.576 208.075 94.16 208.075 93.696C208.075 93.32 208.147 92.976 208.291 92.664C208.435 92.352 208.647 92.088 208.927 91.872C209.207 91.648 209.535 91.488 209.911 91.392L209.947 91.716C209.627 91.628 209.355 91.488 209.131 91.296C208.907 91.096 208.735 90.864 208.615 90.6C208.503 90.328 208.447 90.04 208.447 89.736C208.447 89.304 208.551 88.924 208.759 88.596C208.967 88.268 209.251 88.012 209.611 87.828C209.979 87.636 210.395 87.54 210.859 87.54C211.331 87.54 211.747 87.636 212.107 87.828C212.467 88.012 212.751 88.268 212.959 88.596C213.167 88.924 213.271 89.304 213.271 89.736C213.271 90.04 213.211 90.328 213.091 90.6C212.979 90.864 212.811 91.096 212.587 91.296C212.371 91.488 212.103 91.628 211.783 91.716L211.807 91.392C212.191 91.488 212.519 91.648 212.791 91.872C213.071 92.088 213.283 92.352 213.427 92.664C213.579 92.976 213.655 93.32 213.655 93.696C213.655 94.16 213.539 94.576 213.307 94.944C213.075 95.312 212.747 95.6 212.323 95.808C211.907 96.016 211.419 96.12 210.859 96.12ZM210.859 95.1C211.195 95.1 211.487 95.036 211.735 94.908C211.991 94.772 212.191 94.588 212.335 94.356C212.487 94.124 212.563 93.856 212.563 93.552C212.563 93.256 212.487 92.992 212.335 92.76C212.191 92.528 211.991 92.348 211.735 92.22C211.487 92.084 211.195 92.016 210.859 92.016C210.531 92.016 210.239 92.084 209.983 92.22C209.727 92.348 209.523 92.528 209.371 92.76C209.227 92.992 209.155 93.256 209.155 93.552C209.155 93.856 209.227 94.124 209.371 94.356C209.523 94.588 209.727 94.772 209.983 94.908C210.239 95.036 210.531 95.1 210.859 95.1ZM210.859 91.14C211.259 91.14 211.587 91.016 211.843 90.768C212.099 90.52 212.227 90.2 212.227 89.808C212.227 89.424 212.099 89.112 211.843 88.872C211.587 88.624 211.259 88.5 210.859 88.5C210.467 88.5 210.143 88.624 209.887 88.872C209.631 89.112 209.503 89.424 209.503 89.808C209.503 90.2 209.631 90.52 209.887 90.768C210.143 91.016 210.467 91.14 210.859 91.14ZM217.444 93.456V92.436H221.392V93.456H217.444ZM226.408 96V94.968H228.724C229.34 94.968 229.88 94.836 230.344 94.572C230.808 94.3 231.168 93.928 231.424 93.456C231.688 92.984 231.82 92.44 231.82 91.824C231.82 91.216 231.688 90.676 231.424 90.204C231.16 89.732 230.796 89.364 230.332 89.1C229.868 88.836 229.332 88.704 228.724 88.704H226.42V87.672H228.748C229.356 87.672 229.916 87.776 230.428 87.984C230.948 88.192 231.396 88.484 231.772 88.86C232.156 89.236 232.452 89.676 232.66 90.18C232.876 90.684 232.984 91.236 232.984 91.836C232.984 92.428 232.876 92.98 232.66 93.492C232.452 93.996 232.16 94.436 231.784 94.812C231.408 95.188 230.96 95.48 230.44 95.688C229.928 95.896 229.372 96 228.772 96H226.408ZM225.664 96V87.672H226.792V96H225.664ZM236.995 96.12C236.427 96.12 235.915 95.992 235.459 95.736C235.003 95.472 234.643 95.116 234.379 94.668C234.115 94.22 233.983 93.712 233.983 93.144C233.983 92.584 234.111 92.08 234.367 91.632C234.631 91.184 234.983 90.832 235.423 90.576C235.871 90.312 236.371 90.18 236.923 90.18C237.451 90.18 237.915 90.3 238.315 90.54C238.723 90.78 239.039 91.112 239.263 91.536C239.495 91.96 239.611 92.44 239.611 92.976C239.611 93.056 239.607 93.144 239.599 93.24C239.591 93.328 239.575 93.432 239.551 93.552H234.739V92.652H238.975L238.579 93C238.579 92.616 238.511 92.292 238.375 92.028C238.239 91.756 238.047 91.548 237.799 91.404C237.551 91.252 237.251 91.176 236.899 91.176C236.531 91.176 236.207 91.256 235.927 91.416C235.647 91.576 235.431 91.8 235.279 92.088C235.127 92.376 235.051 92.716 235.051 93.108C235.051 93.508 235.131 93.86 235.291 94.164C235.451 94.46 235.679 94.692 235.975 94.86C236.271 95.02 236.611 95.1 236.995 95.1C237.315 95.1 237.607 95.044 237.871 94.932C238.143 94.82 238.375 94.652 238.567 94.428L239.263 95.136C238.991 95.456 238.655 95.7 238.255 95.868C237.863 96.036 237.443 96.12 236.995 96.12ZM243.392 96.12C242.832 96.12 242.324 95.988 241.868 95.724C241.42 95.46 241.064 95.104 240.8 94.656C240.544 94.2 240.416 93.696 240.416 93.144C240.416 92.584 240.544 92.08 240.8 91.632C241.064 91.184 241.42 90.832 241.868 90.576C242.324 90.312 242.832 90.18 243.392 90.18C243.832 90.18 244.24 90.264 244.616 90.432C244.992 90.592 245.316 90.828 245.588 91.14L244.868 91.86C244.692 91.652 244.476 91.496 244.22 91.392C243.972 91.28 243.696 91.224 243.392 91.224C243.032 91.224 242.712 91.308 242.432 91.476C242.152 91.636 241.932 91.86 241.772 92.148C241.612 92.436 241.532 92.768 241.532 93.144C241.532 93.52 241.612 93.852 241.772 94.14C241.932 94.428 242.152 94.656 242.432 94.824C242.712 94.992 243.032 95.076 243.392 95.076C243.696 95.076 243.972 95.024 244.22 94.92C244.476 94.808 244.696 94.648 244.88 94.44L245.588 95.16C245.324 95.464 245 95.7 244.616 95.868C244.24 96.036 243.832 96.12 243.392 96.12ZM252.323 96.12C251.699 96.12 251.127 95.944 250.607 95.592C250.095 95.24 249.687 94.744 249.383 94.104C249.079 93.456 248.927 92.696 248.927 91.824C248.927 90.952 249.075 90.196 249.371 89.556C249.675 88.916 250.083 88.424 250.595 88.08C251.107 87.728 251.671 87.552 252.287 87.552C252.919 87.552 253.491 87.728 254.003 88.08C254.515 88.424 254.919 88.916 255.215 89.556C255.519 90.196 255.671 90.956 255.671 91.836C255.671 92.708 255.519 93.468 255.215 94.116C254.919 94.756 254.515 95.252 254.003 95.604C253.499 95.948 252.939 96.12 252.323 96.12ZM252.299 95.052C252.739 95.052 253.123 94.932 253.451 94.692C253.787 94.444 254.051 94.08 254.243 93.6C254.435 93.12 254.531 92.528 254.531 91.824C254.531 91.12 254.435 90.532 254.243 90.06C254.051 89.58 253.787 89.22 253.451 88.98C253.115 88.732 252.727 88.608 252.287 88.608C251.855 88.608 251.471 88.732 251.135 88.98C250.799 89.22 250.535 89.58 250.343 90.06C250.159 90.532 250.067 91.12 250.067 91.824C250.067 92.528 250.159 93.12 250.343 93.6C250.535 94.08 250.799 94.444 251.135 94.692C251.471 94.932 251.859 95.052 252.299 95.052ZM256.611 95.316L259.683 92.076C259.995 91.756 260.239 91.48 260.415 91.248C260.591 91.008 260.715 90.788 260.787 90.588C260.867 90.388 260.907 90.18 260.907 89.964C260.907 89.54 260.771 89.208 260.499 88.968C260.227 88.728 259.875 88.608 259.443 88.608C259.019 88.608 258.647 88.712 258.327 88.92C258.007 89.12 257.723 89.432 257.475 89.856L256.683 89.196C257.011 88.652 257.407 88.244 257.871 87.972C258.335 87.692 258.871 87.552 259.479 87.552C259.991 87.552 260.435 87.652 260.811 87.852C261.195 88.052 261.491 88.332 261.699 88.692C261.907 89.052 262.011 89.472 262.011 89.952C262.011 90.296 261.967 90.604 261.879 90.876C261.799 91.148 261.651 91.428 261.435 91.716C261.227 91.996 260.935 92.332 260.559 92.724L258.075 95.28L256.611 95.316ZM256.611 96V95.316L257.571 94.992H262.203V96H256.611Z" fill="#919099"/>
<line x1="42" y1="178.5" x2="452" y2="178.5" stroke="#DBDADF" stroke-opacity="0.3" stroke-linecap="round"/>
<line x1="42" y1="216" x2="452" y2="216" stroke="#DBDADF" stroke-opacity="0.3" stroke-linecap="round"/>
<line x1="42" y1="253.5" x2="452" y2="253.5" stroke="#DBDADF" stroke-opacity="0.3" stroke-linecap="round"/>
<line x1="42" y1="291" x2="452" y2="291" stroke="#DBDADF" stroke-opacity="0.3" stroke-linecap="round"/>
<line x1="42" y1="328.5" x2="452" y2="328.5" stroke="#DBDADF" stroke-opacity="0.3" stroke-linecap="round"/>
<line x1="42.5" y1="326.5" x2="42.5" y2="179.5" stroke="#DBDADF" stroke-opacity="0.3" stroke-linecap="round"/>
<line x1="110.5" y1="326.5" x2="110.5" y2="179.5" stroke="#DBDADF" stroke-opacity="0.3" stroke-linecap="round"/>
<line x1="179.5" y1="326.5" x2="179.5" y2="179.5" stroke="#DBDADF" stroke-opacity="0.3" stroke-linecap="round"/>
<line x1="247.5" y1="326.5" x2="247.5" y2="179.5" stroke="#DBDADF" stroke-opacity="0.3" stroke-linecap="round"/>
<line x1="315.5" y1="326.5" x2="315.5" y2="179.5" stroke="#DBDADF" stroke-opacity="0.3" stroke-linecap="round"/>
<line x1="384.5" y1="326.5" x2="384.5" y2="179.5" stroke="#DBDADF" stroke-opacity="0.3" stroke-linecap="round"/>
<line x1="452.5" y1="326.5" x2="452.5" y2="179.5" stroke="#DBDADF" stroke-opacity="0.3" stroke-linecap="round"/>
<path d="M47.5093 361.12C46.8933 361.12 46.3413 360.984 45.8533 360.712C45.3733 360.432 44.9933 360.052 44.7133 359.572C44.4333 359.084 44.2933 358.532 44.2933 357.916V352.672H45.4213V357.892C45.4213 358.332 45.5133 358.712 45.6973 359.032C45.8813 359.352 46.1293 359.6 46.4413 359.776C46.7613 359.952 47.1173 360.04 47.5093 360.04C47.9173 360.04 48.2733 359.952 48.5773 359.776C48.8893 359.6 49.1333 359.352 49.3093 359.032C49.4933 358.712 49.5853 358.336 49.5853 357.904V352.672H50.7253V357.928C50.7253 358.544 50.5853 359.092 50.3053 359.572C50.0253 360.052 49.6453 360.432 49.1653 360.712C48.6853 360.984 48.1333 361.12 47.5093 361.12ZM57.7287 361L53.5287 356.656L57.6447 352.672H59.1087L54.6687 356.944V356.32L59.2287 361H57.7287ZM52.5807 361V352.672H53.7087V361H52.5807Z" fill="#919099"/>
<path d="M117.11 361.12C116.494 361.12 115.942 360.984 115.454 360.712C114.974 360.432 114.594 360.052 114.314 359.572C114.034 359.084 113.894 358.532 113.894 357.916V352.672H115.022V357.892C115.022 358.332 115.114 358.712 115.298 359.032C115.482 359.352 115.73 359.6 116.042 359.776C116.362 359.952 116.718 360.04 117.11 360.04C117.518 360.04 117.874 359.952 118.178 359.776C118.49 359.6 118.734 359.352 118.91 359.032C119.094 358.712 119.186 358.336 119.186 357.904V352.672H120.326V357.928C120.326 358.544 120.186 359.092 119.906 359.572C119.626 360.052 119.246 360.432 118.766 360.712C118.286 360.984 117.734 361.12 117.11 361.12ZM127.329 361L123.129 356.656L127.245 352.672H128.709L124.269 356.944V356.32L128.829 361H127.329ZM122.181 361V352.672H123.309V361H122.181Z" fill="#919099"/>
<path d="M186.711 361.12C186.095 361.12 185.543 360.984 185.055 360.712C184.575 360.432 184.195 360.052 183.915 359.572C183.635 359.084 183.495 358.532 183.495 357.916V352.672H184.623V357.892C184.623 358.332 184.715 358.712 184.899 359.032C185.083 359.352 185.331 359.6 185.643 359.776C185.963 359.952 186.319 360.04 186.711 360.04C187.119 360.04 187.475 359.952 187.779 359.776C188.091 359.6 188.335 359.352 188.511 359.032C188.695 358.712 188.787 358.336 188.787 357.904V352.672H189.927V357.928C189.927 358.544 189.787 359.092 189.507 359.572C189.227 360.052 188.847 360.432 188.367 360.712C187.887 360.984 187.335 361.12 186.711 361.12ZM196.931 361L192.731 356.656L196.847 352.672H198.311L193.871 356.944V356.32L198.431 361H196.931ZM191.783 361V352.672H192.911V361H191.783Z" fill="#919099"/>
<path d="M271.984 361.12C271.368 361.12 270.816 360.984 270.328 360.712C269.848 360.432 269.468 360.052 269.188 359.572C268.908 359.084 268.768 358.532 268.768 357.916V352.672H269.896V357.892C269.896 358.332 269.988 358.712 270.172 359.032C270.356 359.352 270.604 359.6 270.916 359.776C271.236 359.952 271.592 360.04 271.984 360.04C272.392 360.04 272.748 359.952 273.052 359.776C273.364 359.6 273.608 359.352 273.784 359.032C273.968 358.712 274.06 358.336 274.06 357.904V352.672H275.2V357.928C275.2 358.544 275.06 359.092 274.78 359.572C274.5 360.052 274.12 360.432 273.64 360.712C273.16 360.984 272.608 361.12 271.984 361.12ZM279.278 361.12C278.622 361.12 278.062 361 277.598 360.76C277.134 360.52 276.722 360.172 276.362 359.716L277.13 358.948C277.394 359.316 277.698 359.596 278.042 359.788C278.386 359.972 278.81 360.064 279.314 360.064C279.81 360.064 280.206 359.956 280.502 359.74C280.806 359.524 280.958 359.228 280.958 358.852C280.958 358.54 280.886 358.288 280.742 358.096C280.598 357.904 280.402 357.748 280.154 357.628C279.914 357.5 279.65 357.388 279.362 357.292C279.074 357.188 278.786 357.08 278.498 356.968C278.21 356.848 277.946 356.704 277.706 356.536C277.466 356.36 277.27 356.132 277.118 355.852C276.974 355.572 276.902 355.22 276.902 354.796C276.902 354.324 277.014 353.924 277.238 353.596C277.47 353.26 277.782 353.004 278.174 352.828C278.574 352.644 279.022 352.552 279.518 352.552C280.062 352.552 280.55 352.66 280.982 352.876C281.414 353.084 281.766 353.36 282.038 353.704L281.27 354.472C281.022 354.184 280.754 353.968 280.466 353.824C280.186 353.68 279.862 353.608 279.494 353.608C279.046 353.608 278.69 353.708 278.426 353.908C278.162 354.1 278.03 354.372 278.03 354.724C278.03 355.004 278.102 355.232 278.246 355.408C278.398 355.576 278.594 355.72 278.834 355.84C279.074 355.96 279.338 356.072 279.626 356.176C279.922 356.272 280.214 356.38 280.502 356.5C280.79 356.62 281.054 356.772 281.294 356.956C281.534 357.14 281.726 357.38 281.87 357.676C282.022 357.964 282.098 358.328 282.098 358.768C282.098 359.504 281.842 360.08 281.33 360.496C280.826 360.912 280.142 361.12 279.278 361.12ZM282.736 361L286.144 352.672H286.96L290.356 361H289.132L286.336 353.956H286.756L283.936 361H282.736ZM284.356 359.116V358.132H288.736V359.116H284.356Z" fill="#919099"/>
<path d="M359.812 361L363.22 352.672H364.036L367.432 361H366.208L363.412 353.956H363.832L361.012 361H359.812ZM361.432 359.116V358.132H365.812V359.116H361.432ZM371.712 361.12C371.096 361.12 370.544 360.984 370.056 360.712C369.576 360.432 369.196 360.052 368.916 359.572C368.636 359.084 368.496 358.532 368.496 357.916V352.672H369.624V357.892C369.624 358.332 369.716 358.712 369.9 359.032C370.084 359.352 370.332 359.6 370.644 359.776C370.964 359.952 371.32 360.04 371.712 360.04C372.12 360.04 372.476 359.952 372.78 359.776C373.092 359.6 373.336 359.352 373.512 359.032C373.696 358.712 373.788 358.336 373.788 357.904V352.672H374.928V357.928C374.928 358.544 374.788 359.092 374.508 359.572C374.228 360.052 373.848 360.432 373.368 360.712C372.888 360.984 372.336 361.12 371.712 361.12ZM379.006 361.12C378.35 361.12 377.79 361 377.326 360.76C376.862 360.52 376.45 360.172 376.09 359.716L376.858 358.948C377.122 359.316 377.426 359.596 377.77 359.788C378.114 359.972 378.538 360.064 379.042 360.064C379.538 360.064 379.934 359.956 380.23 359.74C380.534 359.524 380.686 359.228 380.686 358.852C380.686 358.54 380.614 358.288 380.47 358.096C380.326 357.904 380.13 357.748 379.882 357.628C379.642 357.5 379.378 357.388 379.09 357.292C378.802 357.188 378.514 357.08 378.226 356.968C377.938 356.848 377.674 356.704 377.434 356.536C377.194 356.36 376.998 356.132 376.846 355.852C376.702 355.572 376.63 355.22 376.63 354.796C376.63 354.324 376.742 353.924 376.966 353.596C377.198 353.26 377.51 353.004 377.902 352.828C378.302 352.644 378.75 352.552 379.246 352.552C379.79 352.552 380.278 352.66 380.71 352.876C381.142 353.084 381.494 353.36 381.766 353.704L380.998 354.472C380.75 354.184 380.482 353.968 380.194 353.824C379.914 353.68 379.59 353.608 379.222 353.608C378.774 353.608 378.418 353.708 378.154 353.908C377.89 354.1 377.758 354.372 377.758 354.724C377.758 355.004 377.83 355.232 377.974 355.408C378.126 355.576 378.322 355.72 378.562 355.84C378.802 355.96 379.066 356.072 379.354 356.176C379.65 356.272 379.942 356.38 380.23 356.5C380.518 356.62 380.782 356.772 381.022 356.956C381.262 357.14 381.454 357.38 381.598 357.676C381.75 357.964 381.826 358.328 381.826 358.768C381.826 359.504 381.57 360.08 381.058 360.496C380.554 360.912 379.87 361.12 379.006 361.12Z" fill="#919099"/>
<path d="M437.062 361V360.016H439.582C440.062 360.016 440.438 359.876 440.71 359.596C440.982 359.308 441.118 358.964 441.118 358.564C441.118 358.292 441.058 358.048 440.938 357.832C440.818 357.608 440.642 357.432 440.41 357.304C440.186 357.176 439.922 357.112 439.618 357.112H437.062V356.128H439.45C439.85 356.128 440.166 356.024 440.398 355.816C440.638 355.6 440.758 355.292 440.758 354.892C440.758 354.492 440.634 354.188 440.386 353.98C440.138 353.764 439.81 353.656 439.402 353.656H437.062V352.672H439.426C439.97 352.672 440.422 352.772 440.782 352.972C441.15 353.164 441.426 353.42 441.61 353.74C441.802 354.06 441.898 354.412 441.898 354.796C441.898 355.244 441.774 355.636 441.526 355.972C441.286 356.308 440.93 356.572 440.458 356.764L440.554 356.404C441.09 356.596 441.506 356.888 441.802 357.28C442.106 357.664 442.258 358.12 442.258 358.648C442.258 359.088 442.15 359.484 441.934 359.836C441.718 360.188 441.406 360.472 440.998 360.688C440.598 360.896 440.106 361 439.522 361H437.062ZM436.306 361V352.672H437.434V361H436.306ZM444.527 361V359.968H446.843C447.459 359.968 447.999 359.836 448.463 359.572C448.927 359.3 449.287 358.928 449.543 358.456C449.807 357.984 449.939 357.44 449.939 356.824C449.939 356.216 449.807 355.676 449.543 355.204C449.279 354.732 448.915 354.364 448.451 354.1C447.987 353.836 447.451 353.704 446.843 353.704H444.539V352.672H446.867C447.475 352.672 448.035 352.776 448.547 352.984C449.067 353.192 449.515 353.484 449.891 353.86C450.275 354.236 450.571 354.676 450.779 355.18C450.995 355.684 451.103 356.236 451.103 356.836C451.103 357.428 450.995 357.98 450.779 358.492C450.571 358.996 450.279 359.436 449.903 359.812C449.527 360.188 449.079 360.48 448.559 360.688C448.047 360.896 447.491 361 446.891 361H444.527ZM443.783 361V352.672H444.911V361H443.783Z" fill="#919099"/>
<g filter="url(#filter1_d_65_2340)">
<path d="M43.9961 269.501L83.1933 231.979C87.2524 227.592 98.2225 221.452 109.63 231.979C123.889 245.137 129.614 244.465 138.149 236.973C146.684 229.481 150.222 230.634 157.924 231.979C165.627 233.323 179.366 236.205 184.986 231.979C189.482 228.598 197.823 221.349 201.431 218.148C204.762 214.37 213.879 209.081 223.705 218.148C233.53 227.215 243.802 234.751 261.935 244.126C270.873 249.334 288.92 250.584 299.173 244.126C308.669 238.146 325.567 226.6 339.237 213.922C343.192 209.952 352.435 202.934 357.764 206.622C364.425 211.233 366.715 210.849 366.299 222.374C365.882 233.9 370.046 241.199 379.413 241.391C388.78 241.583 402.311 237.934 409.597 245.81C415.426 252.11 432.981 268.284 441.03 275.584" stroke="#22B5F4" stroke-width="1.5" stroke-linecap="round" stroke-linejoin="round"/>
</g>
<g filter="url(#filter2_d_65_2340)">
<path d="M43.9961 237.418L48.5982 237.394C53.2003 237.369 62.4045 237.32 70.8768 235.645C79.3491 233.97 87.0896 230.669 98.5855 235.712C110.082 240.756 125.333 254.144 133.968 252.831C142.603 251.517 144.622 235.502 153.772 235.333C162.921 235.163 179.202 250.839 189.107 252.347C199.012 253.855 202.541 241.196 212.293 242.363C222.044 243.531 238.019 258.525 249.043 262.52C260.067 266.515 266.141 259.512 271.859 251.716C277.577 243.921 282.938 235.332 290.442 231.505C297.945 227.677 307.591 228.609 314.698 223.901C321.805 219.193 326.374 208.844 333.262 203.649C340.15 198.454 349.358 198.412 362.161 206.36C374.964 214.307 391.362 230.243 402.394 234.257C413.427 238.271 419.094 230.362 426.226 225.709C433.358 221.055 441.955 219.657 446.253 218.958L450.552 218.259" stroke="#8F5DF3" stroke-width="1.5"/>
</g>
<g filter="url(#filter3_d_65_2340)">
<path d="M210 120C210 115.582 213.582 112 218 112H365C369.418 112 373 115.582 373 120V185.654C373 190.073 369.418 193.654 365 193.654H312.242C309.58 193.654 307.093 194.978 305.606 197.186L294.911 213.072C293.325 215.427 289.86 215.427 288.275 213.072L277.579 197.186C276.092 194.978 273.605 193.654 270.943 193.654H218C213.582 193.654 210 190.073 210 185.654V120Z" fill="white"/>
</g>
<path d="M251.22 148.7C250.167 148.7 249.247 148.507 248.46 148.12C247.687 147.733 246.98 147.153 246.34 146.38L248.1 144.6C248.513 145.147 248.98 145.587 249.5 145.92C250.033 146.24 250.653 146.4 251.36 146.4C252.08 146.4 252.647 146.253 253.06 145.96C253.473 145.667 253.68 145.253 253.68 144.72C253.68 144.293 253.56 143.947 253.32 143.68C253.08 143.413 252.76 143.187 252.36 143C251.973 142.813 251.547 142.647 251.08 142.5C250.613 142.34 250.147 142.16 249.68 141.96C249.213 141.76 248.78 141.513 248.38 141.22C247.993 140.913 247.68 140.527 247.44 140.06C247.213 139.58 247.1 138.98 247.1 138.26C247.1 137.407 247.3 136.68 247.7 136.08C248.113 135.48 248.673 135.02 249.38 134.7C250.1 134.38 250.913 134.22 251.82 134.22C252.7 134.22 253.513 134.4 254.26 134.76C255.007 135.12 255.627 135.587 256.12 136.16L254.34 137.94C253.94 137.487 253.527 137.14 253.1 136.9C252.687 136.66 252.24 136.54 251.76 136.54C251.107 136.54 250.6 136.667 250.24 136.92C249.88 137.16 249.7 137.533 249.7 138.04C249.7 138.427 249.82 138.74 250.06 138.98C250.3 139.22 250.613 139.427 251 139.6C251.4 139.773 251.833 139.94 252.3 140.1C252.78 140.26 253.253 140.44 253.72 140.64C254.2 140.84 254.633 141.1 255.02 141.42C255.42 141.74 255.74 142.153 255.98 142.66C256.22 143.153 256.34 143.767 256.34 144.5C256.34 145.807 255.88 146.833 254.96 147.58C254.053 148.327 252.807 148.7 251.22 148.7ZM250.74 147.46H252.64V150.5H250.74V147.46ZM252.64 135.56H250.74V132.42H252.64V135.56ZM262.375 148.7C261.402 148.7 260.515 148.533 259.715 148.2C258.915 147.853 258.248 147.36 257.715 146.72L259.515 144.94C259.782 145.34 260.162 145.66 260.655 145.9C261.162 146.14 261.715 146.26 262.315 146.26C262.862 146.26 263.335 146.16 263.735 145.96C264.148 145.76 264.468 145.48 264.695 145.12C264.935 144.747 265.055 144.313 265.055 143.82C265.055 143.3 264.935 142.86 264.695 142.5C264.468 142.14 264.162 141.867 263.775 141.68C263.388 141.493 262.955 141.4 262.475 141.4C261.968 141.4 261.508 141.467 261.095 141.6C260.695 141.72 260.308 141.92 259.935 142.2L260.095 140.48C260.348 140.213 260.615 140 260.895 139.84C261.175 139.667 261.488 139.54 261.835 139.46C262.195 139.367 262.615 139.32 263.095 139.32C264.122 139.32 264.975 139.533 265.655 139.96C266.348 140.373 266.875 140.933 267.235 141.64C267.595 142.333 267.775 143.1 267.775 143.94C267.775 144.86 267.548 145.68 267.095 146.4C266.642 147.12 266.008 147.687 265.195 148.1C264.395 148.5 263.455 148.7 262.375 148.7ZM259.935 142.2L258.635 140.92L259.275 134.44H261.735L261.015 141.02L259.935 142.2ZM259.695 136.8L259.275 134.44H266.995V136.8H259.695ZM268.93 143.54L273.73 134.44H276.73L271.81 143.54H268.93ZM268.93 145.14V143.54L269.93 142.76H280.01V145.14H268.93ZM275.57 148.5V139.54H278.25V148.5H275.57ZM283.036 148.5V134.44H285.716V148.5H283.036ZM280.276 136.8V134.44H285.516V136.8H280.276ZM287.68 146.94L292.98 141.4C293.353 141 293.653 140.647 293.88 140.34C294.12 140.02 294.293 139.72 294.4 139.44C294.507 139.147 294.56 138.853 294.56 138.56C294.56 137.973 294.367 137.513 293.98 137.18C293.607 136.847 293.12 136.68 292.52 136.68C291.907 136.68 291.36 136.84 290.88 137.16C290.413 137.48 289.973 137.987 289.56 138.68L287.7 137.1C288.26 136.153 288.953 135.44 289.78 134.96C290.62 134.467 291.58 134.22 292.66 134.22C293.58 134.22 294.38 134.4 295.06 134.76C295.753 135.12 296.287 135.62 296.66 136.26C297.033 136.9 297.22 137.647 297.22 138.5C297.22 139.073 297.147 139.593 297 140.06C296.867 140.527 296.633 140.993 296.3 141.46C295.98 141.913 295.533 142.427 294.96 143L291.1 146.94H287.68ZM287.68 148.5V146.94L290 146.14H297.52V148.5H287.68ZM300.675 148.5L304.955 142.54L305.935 142.24C305.775 142.547 305.588 142.82 305.375 143.06C305.175 143.287 304.915 143.46 304.595 143.58C304.275 143.7 303.855 143.76 303.335 143.76C302.508 143.76 301.748 143.567 301.055 143.18C300.375 142.78 299.828 142.233 299.415 141.54C299.002 140.847 298.795 140.053 298.795 139.16C298.795 138.253 299.022 137.427 299.475 136.68C299.928 135.92 300.542 135.32 301.315 134.88C302.088 134.44 302.948 134.22 303.895 134.22C304.855 134.22 305.715 134.44 306.475 134.88C307.248 135.32 307.855 135.907 308.295 136.64C308.748 137.373 308.975 138.193 308.975 139.1C308.975 140.34 308.542 141.593 307.675 142.86L303.775 148.5H300.675ZM303.895 141.68C304.362 141.68 304.775 141.573 305.135 141.36C305.495 141.147 305.775 140.853 305.975 140.48C306.188 140.093 306.295 139.667 306.295 139.2C306.295 138.707 306.188 138.273 305.975 137.9C305.775 137.527 305.495 137.233 305.135 137.02C304.775 136.793 304.362 136.68 303.895 136.68C303.428 136.68 303.008 136.793 302.635 137.02C302.275 137.233 301.988 137.527 301.775 137.9C301.575 138.273 301.475 138.707 301.475 139.2C301.475 139.68 301.575 140.107 301.775 140.48C301.988 140.853 302.282 141.147 302.655 141.36C303.028 141.573 303.442 141.68 303.895 141.68ZM311.273 148.7C310.793 148.7 310.399 148.54 310.093 148.22C309.786 147.9 309.632 147.507 309.632 147.04C309.632 146.573 309.786 146.18 310.093 145.86C310.399 145.54 310.793 145.38 311.273 145.38C311.739 145.38 312.126 145.54 312.433 145.86C312.739 146.18 312.893 146.573 312.893 147.04C312.893 147.507 312.739 147.9 312.433 148.22C312.126 148.54 311.739 148.7 311.273 148.7ZM319.211 148.7C318.238 148.7 317.351 148.533 316.551 148.2C315.751 147.853 315.084 147.36 314.551 146.72L316.351 144.94C316.618 145.34 316.998 145.66 317.491 145.9C317.998 146.14 318.551 146.26 319.151 146.26C319.698 146.26 320.171 146.16 320.571 145.96C320.984 145.76 321.304 145.48 321.531 145.12C321.771 144.747 321.891 144.313 321.891 143.82C321.891 143.3 321.771 142.86 321.531 142.5C321.304 142.14 320.998 141.867 320.611 141.68C320.224 141.493 319.791 141.4 319.311 141.4C318.804 141.4 318.344 141.467 317.931 141.6C317.531 141.72 317.144 141.92 316.771 142.2L316.931 140.48C317.184 140.213 317.451 140 317.731 139.84C318.011 139.667 318.324 139.54 318.671 139.46C319.031 139.367 319.451 139.32 319.931 139.32C320.958 139.32 321.811 139.533 322.491 139.96C323.184 140.373 323.711 140.933 324.071 141.64C324.431 142.333 324.611 143.1 324.611 143.94C324.611 144.86 324.384 145.68 323.931 146.4C323.478 147.12 322.844 147.687 322.031 148.1C321.231 148.5 320.291 148.7 319.211 148.7ZM316.771 142.2L315.471 140.92L316.111 134.44H318.571L317.851 141.02L316.771 142.2ZM316.531 136.8L316.111 134.44H323.831V136.8H316.531ZM325.766 143.54L330.566 134.44H333.566L328.646 143.54H325.766ZM325.766 145.14V143.54L326.766 142.76H336.846V145.14H325.766ZM332.406 148.5V139.54H335.086V148.5H332.406ZM343.016 148.7C342.056 148.7 341.189 148.487 340.416 148.06C339.656 147.62 339.049 147.033 338.596 146.3C338.156 145.553 337.936 144.727 337.936 143.82C337.936 142.58 338.363 141.333 339.216 140.08L343.116 134.44H346.236L341.976 140.4L340.976 140.68C341.123 140.373 341.296 140.107 341.496 139.88C341.709 139.653 341.983 139.48 342.316 139.36C342.649 139.24 343.069 139.18 343.576 139.18C344.416 139.18 345.176 139.38 345.856 139.78C346.536 140.167 347.083 140.707 347.496 141.4C347.909 142.08 348.116 142.867 348.116 143.76C348.116 144.68 347.889 145.513 347.436 146.26C346.983 147.007 346.369 147.6 345.596 148.04C344.823 148.48 343.963 148.7 343.016 148.7ZM343.016 146.26C343.483 146.26 343.896 146.153 344.256 145.94C344.616 145.713 344.903 145.413 345.116 145.04C345.329 144.653 345.436 144.22 345.436 143.74C345.436 143.26 345.329 142.833 345.116 142.46C344.903 142.073 344.616 141.773 344.256 141.56C343.896 141.347 343.483 141.24 343.016 141.24C342.549 141.24 342.129 141.353 341.756 141.58C341.396 141.793 341.109 142.087 340.896 142.46C340.696 142.833 340.596 143.26 340.596 143.74C340.596 144.22 340.696 144.653 340.896 145.04C341.109 145.413 341.396 145.713 341.756 145.94C342.129 146.153 342.549 146.26 343.016 146.26Z" fill="#2E2E32"/>
<path d="M248.692 173.5V165.412H249.82V173.5H248.692ZM245.86 166.204V165.172H252.64V166.204H245.86ZM254.814 173.62C254.254 173.62 253.75 173.488 253.302 173.224C252.854 172.96 252.498 172.604 252.234 172.156C251.97 171.7 251.838 171.192 251.838 170.632C251.838 170.08 251.97 169.584 252.234 169.144C252.498 168.696 252.854 168.34 253.302 168.076C253.75 167.812 254.254 167.68 254.814 167.68C255.366 167.68 255.866 167.812 256.314 168.076C256.77 168.332 257.13 168.684 257.394 169.132C257.658 169.58 257.79 170.08 257.79 170.632C257.79 171.192 257.658 171.7 257.394 172.156C257.13 172.604 256.77 172.96 256.314 173.224C255.866 173.488 255.366 173.62 254.814 173.62ZM254.814 172.576C255.174 172.576 255.494 172.492 255.774 172.324C256.054 172.156 256.274 171.928 256.434 171.64C256.594 171.344 256.674 171.008 256.674 170.632C256.674 170.264 256.59 169.936 256.422 169.648C256.262 169.36 256.042 169.136 255.762 168.976C255.49 168.808 255.174 168.724 254.814 168.724C254.454 168.724 254.134 168.808 253.854 168.976C253.574 169.136 253.354 169.36 253.194 169.648C253.034 169.936 252.954 170.264 252.954 170.632C252.954 171.008 253.034 171.344 253.194 171.64C253.354 171.928 253.574 172.156 253.854 172.324C254.134 172.492 254.454 172.576 254.814 172.576ZM259.707 173.5V165.412H260.787V173.5H259.707ZM258.303 168.784V167.8H262.191V168.784H258.303ZM265.497 173.62C264.977 173.62 264.505 173.492 264.081 173.236C263.657 172.972 263.321 172.616 263.073 172.168C262.833 171.72 262.713 171.216 262.713 170.656C262.713 170.096 262.833 169.592 263.073 169.144C263.321 168.696 263.653 168.34 264.069 168.076C264.493 167.812 264.969 167.68 265.497 167.68C265.929 167.68 266.313 167.772 266.649 167.956C266.993 168.132 267.269 168.38 267.477 168.7C267.685 169.012 267.801 169.376 267.825 169.792V171.508C267.801 171.916 267.685 172.28 267.477 172.6C267.277 172.92 267.005 173.172 266.661 173.356C266.325 173.532 265.937 173.62 265.497 173.62ZM265.677 172.6C266.213 172.6 266.645 172.42 266.973 172.06C267.301 171.692 267.465 171.224 267.465 170.656C267.465 170.264 267.389 169.924 267.237 169.636C267.093 169.34 266.885 169.112 266.613 168.952C266.341 168.784 266.025 168.7 265.665 168.7C265.305 168.7 264.985 168.784 264.705 168.952C264.433 169.12 264.217 169.352 264.057 169.648C263.905 169.936 263.829 170.268 263.829 170.644C263.829 171.028 263.905 171.368 264.057 171.664C264.217 171.952 264.437 172.18 264.717 172.348C264.997 172.516 265.317 172.6 265.677 172.6ZM267.393 173.5V171.964L267.597 170.572L267.393 169.192V167.8H268.485V173.5H267.393ZM270.058 173.5V164.932H271.138V173.5H270.058ZM277.854 173.62C277.286 173.62 276.774 173.492 276.318 173.236C275.862 172.972 275.502 172.616 275.238 172.168C274.974 171.72 274.842 171.212 274.842 170.644C274.842 170.084 274.97 169.58 275.226 169.132C275.49 168.684 275.842 168.332 276.282 168.076C276.73 167.812 277.23 167.68 277.782 167.68C278.31 167.68 278.774 167.8 279.174 168.04C279.582 168.28 279.898 168.612 280.122 169.036C280.354 169.46 280.47 169.94 280.47 170.476C280.47 170.556 280.466 170.644 280.458 170.74C280.45 170.828 280.434 170.932 280.41 171.052H275.598V170.152H279.834L279.438 170.5C279.438 170.116 279.37 169.792 279.234 169.528C279.098 169.256 278.906 169.048 278.658 168.904C278.41 168.752 278.11 168.676 277.758 168.676C277.39 168.676 277.066 168.756 276.786 168.916C276.506 169.076 276.29 169.3 276.138 169.588C275.986 169.876 275.91 170.216 275.91 170.608C275.91 171.008 275.99 171.36 276.15 171.664C276.31 171.96 276.538 172.192 276.834 172.36C277.13 172.52 277.47 172.6 277.854 172.6C278.174 172.6 278.466 172.544 278.73 172.432C279.002 172.32 279.234 172.152 279.426 171.928L280.122 172.636C279.85 172.956 279.514 173.2 279.114 173.368C278.722 173.536 278.302 173.62 277.854 173.62ZM284.071 173.62C283.551 173.62 283.079 173.492 282.655 173.236C282.231 172.972 281.895 172.616 281.647 172.168C281.407 171.72 281.287 171.216 281.287 170.656C281.287 170.096 281.407 169.592 281.647 169.144C281.895 168.696 282.227 168.34 282.643 168.076C283.067 167.812 283.543 167.68 284.071 167.68C284.503 167.68 284.887 167.772 285.223 167.956C285.567 168.132 285.843 168.38 286.051 168.7C286.259 169.012 286.375 169.376 286.399 169.792V171.508C286.375 171.916 286.259 172.28 286.051 172.6C285.851 172.92 285.579 173.172 285.235 173.356C284.899 173.532 284.511 173.62 284.071 173.62ZM284.251 172.6C284.787 172.6 285.219 172.42 285.547 172.06C285.875 171.692 286.039 171.224 286.039 170.656C286.039 170.264 285.963 169.924 285.811 169.636C285.667 169.34 285.459 169.112 285.187 168.952C284.915 168.784 284.599 168.7 284.239 168.7C283.879 168.7 283.559 168.784 283.279 168.952C283.007 169.12 282.791 169.352 282.631 169.648C282.479 169.936 282.403 170.268 282.403 170.644C282.403 171.028 282.479 171.368 282.631 171.664C282.791 171.952 283.011 172.18 283.291 172.348C283.571 172.516 283.891 172.6 284.251 172.6ZM285.967 173.5V171.964L286.171 170.572L285.967 169.192V167.8H287.059V173.5H285.967ZM288.632 173.5V167.8H289.712V173.5H288.632ZM289.712 170.248L289.304 170.068C289.304 169.34 289.472 168.76 289.808 168.328C290.144 167.896 290.628 167.68 291.26 167.68C291.548 167.68 291.808 167.732 292.04 167.836C292.272 167.932 292.488 168.096 292.688 168.328L291.98 169.06C291.86 168.932 291.728 168.84 291.584 168.784C291.44 168.728 291.272 168.7 291.08 168.7C290.68 168.7 290.352 168.828 290.096 169.084C289.84 169.34 289.712 169.728 289.712 170.248ZM297.504 173.5V170.176C297.504 169.744 297.368 169.388 297.096 169.108C296.824 168.828 296.472 168.688 296.04 168.688C295.752 168.688 295.496 168.752 295.272 168.88C295.048 169.008 294.872 169.184 294.744 169.408C294.616 169.632 294.552 169.888 294.552 170.176L294.108 169.924C294.108 169.492 294.204 169.108 294.396 168.772C294.588 168.436 294.856 168.172 295.2 167.98C295.544 167.78 295.932 167.68 296.364 167.68C296.796 167.68 297.176 167.788 297.504 168.004C297.84 168.22 298.104 168.504 298.296 168.856C298.488 169.2 298.584 169.568 298.584 169.96V173.5H297.504ZM293.472 173.5V167.8H294.552V173.5H293.472ZM300.058 173.5V167.8H301.138V173.5H300.058ZM300.598 166.66C300.398 166.66 300.234 166.596 300.106 166.468C299.978 166.332 299.914 166.164 299.914 165.964C299.914 165.772 299.978 165.612 300.106 165.484C300.234 165.348 300.398 165.28 300.598 165.28C300.798 165.28 300.962 165.348 301.09 165.484C301.218 165.612 301.282 165.772 301.282 165.964C301.282 166.164 301.218 166.332 301.09 166.468C300.962 166.596 300.798 166.66 300.598 166.66ZM306.762 173.5V170.176C306.762 169.744 306.626 169.388 306.354 169.108C306.082 168.828 305.73 168.688 305.298 168.688C305.01 168.688 304.754 168.752 304.53 168.88C304.306 169.008 304.13 169.184 304.002 169.408C303.874 169.632 303.81 169.888 303.81 170.176L303.366 169.924C303.366 169.492 303.462 169.108 303.654 168.772C303.846 168.436 304.114 168.172 304.458 167.98C304.802 167.78 305.19 167.68 305.622 167.68C306.054 167.68 306.434 167.788 306.762 168.004C307.098 168.22 307.362 168.504 307.554 168.856C307.746 169.2 307.842 169.568 307.842 169.96V173.5H306.762ZM302.729 173.5V167.8H303.81V173.5H302.729ZM311.668 176.008C311.084 176.008 310.564 175.9 310.108 175.684C309.66 175.468 309.3 175.164 309.028 174.772L309.724 174.064C309.956 174.36 310.232 174.584 310.552 174.736C310.872 174.896 311.252 174.976 311.692 174.976C312.276 174.976 312.736 174.82 313.072 174.508C313.416 174.204 313.588 173.792 313.588 173.272V171.856L313.78 170.572L313.588 169.3V167.8H314.668V173.272C314.668 173.816 314.54 174.292 314.284 174.7C314.036 175.108 313.684 175.428 313.228 175.66C312.78 175.892 312.26 176.008 311.668 176.008ZM311.668 173.404C311.148 173.404 310.68 173.28 310.264 173.032C309.856 172.784 309.532 172.444 309.292 172.012C309.052 171.572 308.932 171.08 308.932 170.536C308.932 169.992 309.052 169.508 309.292 169.084C309.532 168.652 309.856 168.312 310.264 168.064C310.68 167.808 311.148 167.68 311.668 167.68C312.116 167.68 312.512 167.768 312.856 167.944C313.2 168.12 313.472 168.368 313.672 168.688C313.88 169 313.992 169.368 314.008 169.792V171.304C313.984 171.72 313.868 172.088 313.66 172.408C313.46 172.72 313.188 172.964 312.844 173.14C312.5 173.316 312.108 173.404 311.668 173.404ZM311.884 172.384C312.236 172.384 312.544 172.308 312.808 172.156C313.08 172.004 313.288 171.792 313.432 171.52C313.576 171.24 313.648 170.916 313.648 170.548C313.648 170.18 313.572 169.86 313.42 169.588C313.276 169.308 313.072 169.092 312.808 168.94C312.544 168.78 312.232 168.7 311.872 168.7C311.512 168.7 311.196 168.78 310.924 168.94C310.652 169.092 310.436 169.308 310.276 169.588C310.124 169.86 310.048 170.176 310.048 170.536C310.048 170.896 310.124 171.216 310.276 171.496C310.436 171.776 310.652 171.996 310.924 172.156C311.204 172.308 311.524 172.384 311.884 172.384Z" fill="#919099"/>
</g>
<defs>
<filter id="filter0_d_65_2340" x="0" y="0" width="495" height="416" filterUnits="userSpaceOnUse" color-interpolation-filters="sRGB">
<feFlood flood-opacity="0" result="BackgroundImageFix"/>
<feColorMatrix in="SourceAlpha" type="matrix" values="0 0 0 0 0 0 0 0 0 0 0 0 0 0 0 0 0 0 127 0" result="hardAlpha"/>
<feOffset dy="4"/>
<feGaussianBlur stdDeviation="11"/>
<feComposite in2="hardAlpha" operator="out"/>
<feColorMatrix type="matrix" values="0 0 0 0 0.154167 0 0 0 0 0.147101 0 0 0 0 0.147101 0 0 0 0.07 0"/>
<feBlend mode="normal" in2="BackgroundImageFix" result="effect1_dropShadow_65_2340"/>
<feBlend mode="normal" in="SourceGraphic" in2="effect1_dropShadow_65_2340" result="shape"/>
</filter>
<filter id="filter1_d_65_2340" x="41.2461" y="204.834" width="402.534" height="75.5" filterUnits="userSpaceOnUse" color-interpolation-filters="sRGB">
<feFlood flood-opacity="0" result="BackgroundImageFix"/>
<feColorMatrix in="SourceAlpha" type="matrix" values="0 0 0 0 0 0 0 0 0 0 0 0 0 0 0 0 0 0 127 0" result="hardAlpha"/>
<feOffset dy="2"/>
<feGaussianBlur stdDeviation="1"/>
<feComposite in2="hardAlpha" operator="out"/>
<feColorMatrix type="matrix" values="0 0 0 0 0.566667 0 0 0 0 0.406111 0 0 0 0 0.165278 0 0 0 0.2 0"/>
<feBlend mode="normal" in2="BackgroundImageFix" result="effect1_dropShadow_65_2340"/>
<feBlend mode="normal" in="SourceGraphic" in2="effect1_dropShadow_65_2340" result="shape"/>
</filter>
<filter id="filter2_d_65_2340" x="39.8955" y="199.312" width="414.885" height="73.0781" filterUnits="userSpaceOnUse" color-interpolation-filters="sRGB">
<feFlood flood-opacity="0" result="BackgroundImageFix"/>
<feColorMatrix in="SourceAlpha" type="matrix" values="0 0 0 0 0 0 0 0 0 0 0 0 0 0 0 0 0 0 127 0" result="hardAlpha"/>
<feOffset dy="4"/>
<feGaussianBlur stdDeviation="2"/>
<feComposite in2="hardAlpha" operator="out"/>
<feColorMatrix type="matrix" values="0 0 0 0 0.0780558 0 0 0 0 0.0670833 0 0 0 0 0.1 0 0 0 0.2 0"/>
<feBlend mode="normal" in2="BackgroundImageFix" result="effect1_dropShadow_65_2340"/>
<feBlend mode="normal" in="SourceGraphic" in2="effect1_dropShadow_65_2340" result="shape"/>
</filter>
<filter id="filter3_d_65_2340" x="176" y="81" width="231" height="170.838" filterUnits="userSpaceOnUse" color-interpolation-filters="sRGB">
<feFlood flood-opacity="0" result="BackgroundImageFix"/>
<feColorMatrix in="SourceAlpha" type="matrix" values="0 0 0 0 0 0 0 0 0 0 0 0 0 0 0 0 0 0 127 0" result="hardAlpha"/>
<feOffset dy="3"/>
<feGaussianBlur stdDeviation="17"/>
<feComposite in2="hardAlpha" operator="out"/>
<feColorMatrix type="matrix" values="0 0 0 0 0.104514 0 0 0 0 0.104514 0 0 0 0 0.116667 0 0 0 0.12 0"/>
<feBlend mode="normal" in2="BackgroundImageFix" result="effect1_dropShadow_65_2340"/>
<feBlend mode="normal" in="SourceGraphic" in2="effect1_dropShadow_65_2340" result="shape"/>
</filter>
</defs>
</svg>
