<svg width="106" height="115" viewBox="0 0 106 115" fill="none" xmlns="http://www.w3.org/2000/svg">
<rect width="65.5842" height="90.503" rx="32.7921" transform="matrix(-0.760486 -0.649354 0.609086 -0.793104 50.543 114.365)" fill="#61ABFF"/>
<g clip-path="url(#clip0_65_2165)">
<path d="M67.0919 43.7402L52.8663 38.7402C52.6292 38.6152 52.3921 38.6152 52.155 38.7402L37.9294 43.7402C37.4552 43.8652 37.0996 44.3652 37.0996 44.8652V51.1152C37.0996 59.3652 40.7746 67.1152 47.0575 72.1152L51.7994 75.8652C52.2736 76.2402 52.7478 76.2402 53.2219 75.8652L57.9638 72.1152C64.2468 67.1152 67.9217 59.3652 67.9217 51.1152V44.8652C67.9217 44.3652 67.5661 43.8652 67.0919 43.7402ZM51.5623 67.8652C51.3252 68.2402 50.9696 68.3652 50.6139 68.3652C50.3768 68.3652 50.1397 68.2402 49.9026 68.1152C44.8051 64.1152 41.8415 57.7402 41.8415 51.1152C41.8415 50.3652 42.3157 49.8652 43.0269 49.8652C43.7382 49.8652 44.2124 50.3652 44.2124 51.1152C44.2124 56.9902 46.8204 62.6152 51.3252 66.1152C51.7994 66.4902 51.9179 67.3652 51.5623 67.8652Z" fill="white"/>
</g>
<defs>
<clipPath id="clip0_65_2165">
<rect width="37.9349" height="40" fill="white" transform="translate(33.543 37.3652)"/>
</clipPath>
</defs>
</svg>
