<svg width="537" height="540" viewBox="0 0 537 540" fill="none" xmlns="http://www.w3.org/2000/svg">
<ellipse cx="268.5" cy="462" rx="268.5" ry="78" fill="#F4EEFF"/>
<path d="M74.6899 289.249L82.9766 283.885C82.9766 283.885 87.0002 262.512 84.0112 243.649C79.8152 217.035 61.7281 207.886 55.1562 210.511C48.5844 213.136 47.0324 221.049 58.902 236.377C65.905 245.44 74.9102 264.59 74.6899 289.249Z" fill="#A77CFF"/>
<g opacity="0.3">
<path d="M74.6899 289.249L82.9766 283.885C82.9766 283.885 87.0002 262.512 84.0112 243.649C79.8152 217.035 61.7281 207.886 55.1562 210.511C48.5844 213.136 47.0324 221.049 58.902 236.377C65.905 245.44 74.9102 264.59 74.6899 289.249Z" fill="white"/>
</g>
<path d="M77.7076 278.702H77.6214C77.4661 278.679 77.3263 278.595 77.2315 278.47C77.1367 278.345 77.0944 278.188 77.1136 278.032C80.5529 253.124 70.5513 225.897 59.3044 214.909C59.1914 214.799 59.1268 214.648 59.125 214.49C59.1232 214.332 59.1843 214.179 59.2948 214.066C59.4054 213.953 59.5563 213.889 59.7144 213.887C59.8725 213.885 60.0248 213.946 60.1379 214.057C71.586 225.236 81.7791 252.913 78.292 278.185C78.2735 278.327 78.2041 278.458 78.0967 278.553C77.9893 278.648 77.8511 278.701 77.7076 278.702Z" fill="white"/>
<path d="M53.8244 302.729C52.579 303.438 49.0344 300.708 48.0764 300.047C46.3938 298.9 45.0346 297.339 44.1294 295.515C43.1193 293.434 42.7844 291.09 43.1714 288.809C43.3707 287.607 43.6524 286.419 44.0145 285.255C44.3498 284.106 44.6755 282.956 44.9725 281.806C45.3754 280.694 45.545 279.51 45.4706 278.329C45.1736 275.972 43.0756 274.324 41.1788 272.897C39.0712 271.326 36.8869 269.247 36.8965 266.411C37.0475 264.209 37.9272 262.119 39.3969 260.472C40.7573 258.747 42.3667 257.234 43.5929 255.413C44.5583 254.151 45.0621 252.596 45.0204 251.007C44.8884 250.035 44.5626 249.1 44.0624 248.257C43.1044 246.408 41.744 244.713 41.0542 242.73C40.3645 240.746 40.4603 238.275 42.0122 236.857C43.2768 235.688 45.1736 235.525 46.8885 235.64C48.5003 235.838 50.0499 236.383 51.4294 237.24C55.932 239.741 58.509 245.077 63.2894 247.002C65.1736 247.596 67.0934 248.069 69.0374 248.42C70.9534 248.928 72.9173 249.915 73.8274 251.687C75.5806 255.193 72.3234 259.514 73.5592 263.231C74.6513 266.526 77.851 267.781 79.6425 270.751C80.3747 272.062 80.67 273.572 80.4855 275.062C80.3291 277.58 79.7122 280.048 78.6653 282.343C77.4833 284.725 76.1556 287.032 74.6896 289.25L53.8244 302.729Z" fill="#A77CFF"/>
<g opacity="0.65">
<path d="M53.8244 302.729C52.579 303.438 49.0344 300.708 48.0764 300.047C46.3938 298.9 45.0346 297.339 44.1294 295.515C43.1193 293.434 42.7844 291.09 43.1714 288.809C43.3707 287.607 43.6524 286.419 44.0145 285.255C44.3498 284.106 44.6755 282.956 44.9725 281.806C45.3754 280.694 45.545 279.51 45.4706 278.329C45.1736 275.972 43.0756 274.324 41.1788 272.897C39.0712 271.326 36.8869 269.247 36.8965 266.411C37.0475 264.209 37.9272 262.119 39.3969 260.472C40.7573 258.747 42.3667 257.234 43.5929 255.413C44.5583 254.151 45.0621 252.596 45.0204 251.007C44.8884 250.035 44.5626 249.1 44.0624 248.257C43.1044 246.408 41.744 244.713 41.0542 242.73C40.3645 240.746 40.4603 238.275 42.0122 236.857C43.2768 235.688 45.1736 235.525 46.8885 235.64C48.5003 235.838 50.0499 236.383 51.4294 237.24C55.932 239.741 58.509 245.077 63.2894 247.002C65.1736 247.596 67.0934 248.069 69.0374 248.42C70.9534 248.928 72.9173 249.915 73.8274 251.687C75.5806 255.193 72.3234 259.514 73.5592 263.231C74.6513 266.526 77.851 267.781 79.6425 270.751C80.3747 272.062 80.67 273.572 80.4855 275.062C80.3291 277.58 79.7122 280.048 78.6653 282.343C77.4833 284.725 76.1556 287.032 74.6896 289.25L53.8244 302.729Z" fill="white"/>
</g>
<path d="M65.8564 295.678C65.7826 295.675 65.71 295.658 65.6429 295.627C65.5758 295.596 65.5155 295.552 65.4655 295.498C65.4155 295.444 65.3769 295.38 65.352 295.31C65.327 295.241 65.3161 295.167 65.3199 295.093C66.2779 272.829 55.7399 248.238 48.0759 241.1C47.9827 240.995 47.932 240.859 47.9336 240.719C47.9353 240.578 47.9893 240.443 48.085 240.34C48.1807 240.238 48.3113 240.174 48.4513 240.162C48.5913 240.15 48.7307 240.191 48.8423 240.277C56.6213 247.567 67.3317 272.561 66.3929 295.141C66.3859 295.281 66.3272 295.414 66.228 295.513C66.1289 295.612 65.9964 295.671 65.8564 295.678Z" fill="white"/>
<path d="M62.2353 268.46H62.0725C56.8088 267.003 51.403 266.12 45.9493 265.825C45.8755 265.823 45.8029 265.806 45.7358 265.775C45.6687 265.744 45.6084 265.7 45.5584 265.646C45.5085 265.591 45.4699 265.528 45.4449 265.458C45.4199 265.389 45.409 265.315 45.4129 265.241C45.414 265.167 45.4302 265.093 45.4606 265.026C45.491 264.958 45.5349 264.897 45.5896 264.847C45.6443 264.797 45.7086 264.758 45.7787 264.734C45.8488 264.709 45.9232 264.699 45.9972 264.704C51.5598 264.994 57.0747 265.884 62.4461 267.358C62.5866 267.406 62.7031 267.507 62.7709 267.639C62.8388 267.771 62.8529 267.925 62.8101 268.067C62.7719 268.187 62.6946 268.291 62.5904 268.362C62.4862 268.434 62.3613 268.468 62.2353 268.46Z" fill="white"/>
<path d="M265.026 464.649C387.24 464.649 486.314 407.449 486.314 336.89C486.314 266.33 387.24 209.131 265.026 209.131C142.811 209.131 43.7373 266.33 43.7373 336.89C43.7373 407.449 142.811 464.649 265.026 464.649Z" fill="#FAFAFA"/>
<path d="M147.422 282.427C194.297 255.373 270.285 255.373 317.15 282.427C356.879 305.362 362.914 340.377 335.295 366.999L438.424 425.782C444.708 429.413 444.708 435.295 438.424 438.926L429.15 444.281C422.866 447.912 412.864 447.625 406.771 443.649L316.719 380.67C269.777 407.494 194.172 407.389 147.46 380.421C100.556 353.357 100.556 309.491 147.422 282.427Z" fill="#E6E6E6"/>
<path d="M166.419 44.5473L158.295 49.2415C158.337 48.8853 158.359 48.5272 158.363 48.1686V45.8119C158.363 41.6159 155.421 39.9202 151.791 41.9799C150.226 42.9347 148.889 44.2196 147.872 45.7448C147.269 40.4758 143.14 38.5119 138.11 41.4051C132.679 44.5473 128.281 52.173 128.281 58.4479V61.9638C128.244 63.3731 128.529 64.7723 129.115 66.0544L122.409 69.9535C121.34 70.6467 120.452 71.5843 119.817 72.6887C119.182 73.7931 118.82 75.0327 118.759 76.305C118.759 78.633 120.387 79.5718 122.409 78.4126L166.477 52.9682C167.54 52.2787 168.426 51.3472 169.06 50.2499C169.694 49.1526 170.06 47.9207 170.127 46.6549C170.069 44.327 168.441 43.3882 166.419 44.5473Z" fill="#EBEBEB"/>
<path d="M59.2666 65.6809L63.8458 62.1459V52.0486C63.8458 44.0397 70.2357 34.7471 77.162 30.7523C84.0979 26.7478 89.7214 29.9954 89.7214 37.9947V39.4605C91.1833 37.0922 93.1777 35.0978 95.546 33.6358C100.537 30.7618 104.58 33.0898 104.58 38.8474V39.518L110.97 35.8297C114.256 33.9137 116.919 35.4656 116.919 39.2593C116.807 41.3242 116.211 43.3337 115.177 45.1247C114.143 46.9157 112.702 48.4378 110.97 49.5674L59.2666 79.4187C55.9806 81.3347 53.3174 79.7731 53.3174 75.9794C53.4289 73.9159 54.0258 71.9077 55.0595 70.1182C56.0932 68.3288 57.5346 66.8085 59.2666 65.6809Z" fill="#EBEBEB"/>
<path d="M127.217 300.036V329.188C127.217 345.014 137.678 360.802 158.591 372.92C200.418 397.072 268.244 397.072 310.07 372.92C330.983 360.84 341.445 345.014 341.445 329.188V300.036C341.445 284.21 330.983 268.422 310.07 256.313C268.244 232.161 200.418 232.161 158.591 256.313C137.678 268.383 127.217 284.21 127.217 300.036ZM331.079 300.036C331.079 312.701 321.777 325.04 304.887 334.792C286.206 345.579 261.155 351.519 234.331 351.519C207.507 351.519 182.455 345.579 163.774 334.792C146.885 325.04 137.582 312.701 137.582 300.036C137.582 287.371 146.885 275.032 163.774 265.279C182.455 254.492 207.507 248.553 234.331 248.553C261.155 248.553 286.216 254.492 304.887 265.279C321.787 275.032 331.079 287.4 331.079 300.036Z" fill="#A77CFF"/>
<path opacity="0.2" d="M127.217 300.036V329.188C127.217 345.014 137.678 360.802 158.591 372.92C200.418 397.072 268.244 397.072 310.07 372.92C330.983 360.84 341.445 345.014 341.445 329.188V300.036C341.445 284.21 330.983 268.422 310.07 256.313C268.244 232.161 200.418 232.161 158.591 256.313C137.678 268.383 127.217 284.21 127.217 300.036ZM331.079 300.036C331.079 312.701 321.777 325.04 304.887 334.792C286.206 345.579 261.155 351.519 234.331 351.519C207.507 351.519 182.455 345.579 163.774 334.792C146.885 325.04 137.582 312.701 137.582 300.036C137.582 287.371 146.885 275.032 163.774 265.279C182.455 254.492 207.507 248.553 234.331 248.553C261.155 248.553 286.216 254.492 304.887 265.279C321.787 275.032 331.079 287.4 331.079 300.036Z" fill="white"/>
<path opacity="0.6" d="M341.339 331.908C339.672 341.938 335.256 349.487 317.466 363.369C292.319 383.008 228.64 391.026 191.681 378.831C156.819 367.335 145.697 344.832 145.697 329.398L145.792 320.326C140.408 313.917 137.573 307.029 137.573 300.035C137.573 292.87 140.552 285.809 146.195 279.266L146.319 266.486H144.336C132.926 276.67 127.217 288.348 127.217 300.016V329.168C127.217 344.994 137.678 360.782 158.591 372.901C200.418 397.052 268.244 397.052 310.07 372.901C329.786 361.539 340.209 346.795 341.339 331.908Z" fill="#A77CFF"/>
<path d="M310.08 256.313C268.244 232.161 200.427 232.161 158.601 256.313C116.775 280.464 116.765 319.617 158.601 343.768C200.437 367.92 268.244 367.92 310.08 343.768C351.916 319.617 351.906 280.464 310.08 256.313ZM304.897 334.792C286.216 345.579 261.155 351.519 234.34 351.519C207.526 351.519 182.465 345.579 163.774 334.792C146.885 325.04 137.582 312.701 137.582 300.036C137.582 287.371 146.885 275.032 163.774 265.279C182.455 254.492 207.516 248.553 234.34 248.553C261.164 248.553 286.216 254.492 304.897 265.279C321.787 275.032 331.089 287.381 331.089 300.036C331.089 312.691 321.787 325.04 304.897 334.792Z" fill="#A77CFF"/>
<path opacity="0.5" d="M310.08 256.313C268.244 232.161 200.427 232.161 158.601 256.313C116.775 280.464 116.765 319.617 158.601 343.768C200.437 367.92 268.244 367.92 310.08 343.768C351.916 319.617 351.906 280.464 310.08 256.313ZM304.897 334.792C286.216 345.579 261.155 351.519 234.34 351.519C207.526 351.519 182.465 345.579 163.774 334.792C146.885 325.04 137.582 312.701 137.582 300.036C137.582 287.371 146.885 275.032 163.774 265.279C182.455 254.492 207.516 248.553 234.34 248.553C261.164 248.553 286.216 254.492 304.897 265.279C321.787 275.032 331.089 287.381 331.089 300.036C331.089 312.691 321.787 325.04 304.897 334.792Z" fill="white"/>
<path d="M331.098 300.036C331.036 305.184 329.59 310.22 326.912 314.616C322.668 307.269 315.186 300.371 304.878 294.441C286.216 283.644 261.145 277.705 234.321 277.705C207.497 277.705 182.445 283.644 163.774 294.441C153.475 300.371 146.003 307.269 141.74 314.616C139.082 310.212 137.647 305.179 137.582 300.036C137.582 287.38 146.884 275.032 163.783 265.27C182.455 254.502 207.516 248.553 234.33 248.553C261.145 248.553 286.225 254.502 304.887 265.27C321.796 275.032 331.098 287.4 331.098 300.036Z" fill="#A77CFF"/>
<path opacity="0.3" d="M331.098 300.036C331.036 305.184 329.59 310.22 326.912 314.616C322.668 307.269 315.186 300.371 304.878 294.441C286.216 283.644 261.145 277.705 234.321 277.705C207.497 277.705 182.445 283.644 163.774 294.441C153.475 300.371 146.003 307.269 141.74 314.616C139.082 310.212 137.647 305.179 137.582 300.036C137.582 287.38 146.884 275.032 163.783 265.27C182.455 254.502 207.516 248.553 234.33 248.553C261.145 248.553 286.225 254.502 304.887 265.27C321.796 275.032 331.098 287.4 331.098 300.036Z" fill="white"/>
<path opacity="0.6" d="M163.783 265.27C146.884 275.032 137.582 287.381 137.582 300.036C137.65 305.18 139.089 310.214 141.749 314.617C146.022 307.269 153.494 300.371 163.783 294.441C168.134 291.953 172.654 289.773 177.31 287.917C173.229 289.498 160.699 293.531 165.268 281.585C170.7 267.397 197.208 252.031 216.684 249.482C196.652 251.465 178.287 256.907 163.783 265.27Z" fill="#A77CFF"/>
<path opacity="0.4" d="M304.897 278.481C286.216 267.693 261.155 261.754 234.34 261.754C207.526 261.754 182.455 267.693 163.774 278.481C149.845 286.528 141.088 296.338 138.444 306.636C141.088 316.935 149.845 326.754 163.774 334.792C182.464 345.579 207.516 351.518 234.34 351.518C261.164 351.518 286.216 345.579 304.897 334.792C318.836 326.745 327.592 316.935 330.226 306.636C327.601 296.338 318.836 286.528 304.897 278.481Z" fill="white"/>
<path d="M156.618 313.323C162.606 318.017 169.398 320.987 176.324 323.343C183.269 325.643 190.383 327.399 197.601 328.593C212.024 330.935 226.652 331.77 241.248 331.084C248.538 330.758 255.838 330.078 263.09 329.101C270.319 328.13 277.483 326.719 284.54 324.876C291.563 323.119 298.357 320.547 304.782 317.212C306.369 316.367 307.904 315.43 309.381 314.405C310.864 313.393 312.27 312.272 313.586 311.052C314.915 309.826 316.101 308.454 317.121 306.962C318.178 305.429 318.983 303.737 319.507 301.951C319.538 303.909 319.214 305.857 318.549 307.699C317.846 309.551 316.926 311.313 315.809 312.949C314.705 314.597 313.447 316.136 312.054 317.547C310.674 318.965 309.205 320.292 307.656 321.523C301.414 326.282 294.494 330.079 287.126 332.789C279.863 335.526 272.371 337.613 264.738 339.026C257.146 340.463 249.464 341.375 241.746 341.756C226.256 342.566 210.735 340.914 195.762 336.861C188.272 334.808 181.038 331.916 174.197 328.239C170.791 326.371 167.554 324.211 164.522 321.782C163.765 321.178 163.056 320.517 162.328 319.866C161.6 319.214 160.91 318.553 160.249 317.854C158.915 316.447 157.7 314.932 156.618 313.323Z" fill="white"/>
<path d="M306.89 362.325C307.018 359.72 307.761 357.182 309.056 354.918C310.351 352.654 312.162 350.728 314.343 349.296C316.393 348.099 318.261 347.974 319.621 348.741L343.495 362.392C344.846 363.168 345.689 364.845 345.698 367.182C345.567 369.787 344.824 372.324 343.529 374.587C342.234 376.851 340.424 378.778 338.245 380.211C336.176 381.418 334.298 381.543 332.938 380.757L309.074 367.115C307.752 366.406 306.899 364.73 306.89 362.325Z" fill="#37474F"/>
<path d="M309.122 367.182C307.752 366.406 306.899 364.729 306.89 362.325C306.924 360.386 307.358 358.475 308.164 356.711L342.47 376.369C341.353 377.939 339.933 379.268 338.293 380.278C336.224 381.485 334.346 381.609 332.986 380.824L309.122 367.182Z" fill="#263238"/>
<path d="M424.781 401.22L348.812 362.507L348.716 362.45C346.953 361.492 344.558 361.664 341.924 363.197C336.54 366.339 332.2 373.927 332.229 380.154C332.229 383.277 333.35 385.461 335.103 386.477L406.502 432.461C408.557 433.761 410.852 434.634 413.251 435.028C415.65 435.422 418.104 435.329 420.466 434.754C422.829 434.18 425.051 433.135 427.001 431.683C428.951 430.23 430.588 428.4 431.816 426.302C433.043 424.203 433.835 421.878 434.145 419.467C434.454 417.055 434.275 414.606 433.618 412.266C432.96 409.925 431.838 407.74 430.318 405.843C428.799 403.945 426.912 402.373 424.771 401.22H424.781Z" fill="#455A64"/>
<path d="M335.113 386.495L406.512 432.479C409.167 434.145 412.209 435.093 415.34 435.23C418.471 435.367 421.584 434.688 424.374 433.259C427.163 431.83 429.534 429.701 431.253 427.081C432.972 424.46 433.98 421.438 434.179 418.31C432.81 424.259 422.98 429.317 410.795 422.506C398.609 415.695 353.468 387.156 332.957 375.344C332.476 376.895 332.224 378.509 332.21 380.134C332.22 383.295 333.35 385.479 335.113 386.495Z" fill="#37474F"/>
<path d="M335.112 386.496C333.33 385.48 332.238 383.296 332.238 380.173C332.238 373.946 336.549 366.359 341.933 363.216C344.568 361.684 346.963 361.521 348.725 362.469L355.431 365.88C353.621 364.922 351.178 365.075 348.467 366.646C342.949 369.865 338.494 377.654 338.523 384.043C338.523 387.243 339.624 389.533 341.445 390.567" fill="#A77CFF"/>
<path opacity="0.2" d="M341.435 390.566C339.615 389.532 338.561 387.242 338.513 384.042C338.523 382.349 338.785 380.667 339.289 379.051C337 377.691 334.863 376.445 332.957 375.344C332.715 376.145 332.526 376.961 332.392 377.787C332.334 378.189 332.286 378.591 332.248 378.994C332.248 379.396 332.2 379.789 332.248 380.172C332.248 383.295 333.369 385.479 335.122 386.495L341.435 390.566Z" fill="black"/>
<path d="M153.447 430.871L95.9675 402.121L73.0713 412.257L153.447 430.871Z" fill="#A77CFF"/>
<g opacity="0.15">
<path d="M153.447 430.871L95.9675 402.121L73.0713 412.257L153.447 430.871Z" fill="white"/>
</g>
<path d="M153.448 430.869L102.817 397.023L111.88 383.994L153.448 430.869Z" fill="#A77CFF"/>
<g opacity="0.15">
<path d="M153.448 430.869L102.817 397.023L111.88 383.994L153.448 430.869Z" fill="white"/>
</g>
<path d="M102.817 397.023L103.766 406.019L153.448 430.87L102.817 397.023Z" fill="#A77CFF"/>
<g opacity="0.2">
<path d="M102.817 397.023L103.766 406.019L153.448 430.87L102.817 397.023Z" fill="black"/>
</g>
<path d="M94.617 395.3C94.7562 395.296 94.8892 395.242 94.9906 395.147C95.1079 395.031 95.1786 394.876 95.1892 394.712C95.1998 394.548 95.1496 394.385 95.0481 394.256L93.9464 392.78C93.9018 392.718 93.8443 392.666 93.7779 392.628C93.7115 392.59 93.6377 392.566 93.5615 392.559C93.4852 392.552 93.4083 392.561 93.3359 392.586C93.2635 392.611 93.1973 392.651 93.1417 392.704C93.0249 392.819 92.9537 392.973 92.9414 393.137C92.929 393.3 92.9764 393.463 93.0746 393.595C93.4387 394.083 93.8123 394.553 94.1859 395.041C94.2329 395.115 94.2963 395.176 94.3711 395.221C94.4459 395.266 94.5301 395.293 94.617 395.3Z" fill="#455A64"/>
<path d="M89.5678 388.766C88.8844 387.769 88.2234 386.764 87.5847 385.748C87.4983 385.609 87.4653 385.443 87.4917 385.281C87.5181 385.119 87.6022 384.972 87.7284 384.867C87.788 384.82 87.8571 384.786 87.931 384.768C88.0049 384.75 88.0818 384.748 88.1565 384.763C88.2311 384.777 88.3017 384.808 88.3634 384.852C88.4251 384.897 88.4765 384.954 88.514 385.02C89.1558 386.026 89.8073 387.022 90.43 388.009C90.5238 388.144 90.564 388.309 90.5427 388.472C90.5215 388.635 90.4403 388.784 90.315 388.89C90.2221 388.971 90.1029 389.015 89.9797 389.015C89.8969 389.006 89.8171 388.979 89.7459 388.936C89.6747 388.893 89.6139 388.835 89.5678 388.766ZM84.5 380.537C83.9156 379.473 83.3408 378.391 82.7947 377.308C82.7197 377.162 82.7007 376.994 82.7413 376.835C82.7819 376.676 82.8793 376.538 83.0151 376.446C83.081 376.405 83.1549 376.379 83.2318 376.37C83.3087 376.361 83.3866 376.368 83.4604 376.392C83.5341 376.416 83.6018 376.455 83.6589 376.507C83.716 376.56 83.7611 376.624 83.791 376.695C84.3275 377.758 84.8927 378.822 85.4675 379.876C85.5491 380.018 85.5757 380.185 85.5421 380.346C85.5086 380.507 85.4173 380.649 85.2855 380.747C85.1961 380.802 85.0935 380.832 84.9885 380.834C84.8881 380.832 84.7898 380.804 84.7039 380.751C84.618 380.699 84.5476 380.625 84.5 380.537ZM80.2273 371.761C79.7483 370.621 79.2693 369.472 78.8669 368.332C78.8081 368.181 78.8069 368.013 78.8634 367.861C78.9199 367.71 79.0303 367.584 79.1735 367.508C79.2448 367.477 79.3217 367.462 79.3992 367.464C79.4767 367.465 79.5531 367.482 79.6235 367.515C79.6939 367.547 79.7567 367.594 79.8078 367.652C79.859 367.71 79.8975 367.779 79.9207 367.853C80.3327 368.974 80.7829 370.104 81.2619 371.225C81.3263 371.375 81.3336 371.544 81.2825 371.699C81.2313 371.854 81.1252 371.985 80.9841 372.068C80.9097 372.105 80.8278 372.125 80.7446 372.125C80.6322 372.122 80.5233 372.086 80.4314 372.021C80.3394 371.956 80.2685 371.866 80.2273 371.761ZM76.9126 362.488C76.5677 361.29 76.242 360.074 75.9546 358.895C75.9088 358.739 75.9251 358.571 76.0001 358.427C76.075 358.282 76.2029 358.172 76.357 358.119C76.4319 358.1 76.5102 358.095 76.5868 358.107C76.6634 358.119 76.7368 358.146 76.8024 358.188C76.868 358.229 76.9244 358.283 76.9681 358.347C77.0117 358.412 77.0418 358.484 77.0563 358.56C77.3341 359.729 77.6503 360.917 78.0143 362.095C78.0631 362.249 78.0528 362.416 77.9855 362.563C77.9183 362.71 77.7988 362.826 77.6503 362.89H77.4778C77.353 362.892 77.2307 362.854 77.129 362.782C77.0273 362.71 76.9515 362.607 76.9126 362.488ZM74.69 352.802C74.4984 351.586 74.326 350.34 74.1823 349.105C74.1543 348.946 74.1898 348.783 74.2812 348.65C74.3727 348.517 74.5126 348.426 74.6709 348.396C74.828 348.385 74.983 348.436 75.1029 348.538C75.2228 348.64 75.2981 348.785 75.3127 348.942C75.4469 350.158 75.6193 351.385 75.8109 352.582C75.8432 352.738 75.8145 352.9 75.7307 353.036C75.647 353.171 75.5145 353.269 75.3606 353.31H75.2553C75.1171 353.303 74.9856 353.249 74.8827 353.156C74.7798 353.064 74.7118 352.939 74.69 352.802ZM73.732 342.878C73.732 341.92 73.6746 340.962 73.6746 339.937V339.132C73.6707 339.054 73.6823 338.976 73.7086 338.902C73.7349 338.829 73.7755 338.761 73.828 338.703C73.8805 338.645 73.9439 338.598 74.0146 338.565C74.0852 338.532 74.1617 338.513 74.2398 338.509C74.3983 338.521 74.5455 338.596 74.6495 338.716C74.7536 338.836 74.806 338.992 74.7954 339.151V339.937C74.7954 340.895 74.7954 341.853 74.7954 342.811C74.8088 342.97 74.7592 343.129 74.6571 343.252C74.5551 343.376 74.4087 343.455 74.2494 343.472C74.1055 343.453 73.9734 343.382 73.8781 343.273C73.7828 343.163 73.7308 343.023 73.732 342.878ZM74.4889 333.595C74.3321 333.566 74.192 333.479 74.0976 333.351C74.0031 333.223 73.9614 333.063 73.9811 332.905C74.0865 331.669 74.2206 330.414 74.3739 329.178C74.3797 329.1 74.4015 329.024 74.4379 328.954C74.4743 328.885 74.5246 328.823 74.5856 328.774C74.6467 328.724 74.7172 328.688 74.7928 328.667C74.8684 328.646 74.9476 328.641 75.0253 328.651C75.1818 328.684 75.3195 328.776 75.4089 328.908C75.4984 329.041 75.5326 329.203 75.5043 329.36C75.3511 330.577 75.2169 331.813 75.1116 333.02C75.1048 333.168 75.0433 333.309 74.939 333.415C74.8347 333.521 74.6948 333.585 74.5463 333.595H74.4889ZM75.8301 323.804C75.6767 323.755 75.5476 323.65 75.4693 323.509C75.391 323.368 75.3693 323.203 75.4085 323.047C75.6576 321.83 75.945 320.614 76.2612 319.416C76.2755 319.34 76.3055 319.268 76.3493 319.204C76.3931 319.141 76.4498 319.087 76.5156 319.046C76.5814 319.006 76.655 318.979 76.7316 318.969C76.8082 318.958 76.8862 318.964 76.9605 318.985C77.1121 319.043 77.2365 319.156 77.3092 319.302C77.3818 319.447 77.3976 319.614 77.3533 319.771C77.0467 320.939 76.7593 322.147 76.5102 323.334C76.4903 323.467 76.4248 323.588 76.3252 323.677C76.2255 323.766 76.0978 323.818 75.9642 323.823L75.8301 323.804ZM78.4167 314.329C78.2709 314.258 78.1573 314.135 78.0987 313.984C78.0401 313.833 78.0407 313.665 78.1005 313.515C78.5125 312.365 78.9723 311.206 79.4513 310.076C79.4784 310.004 79.52 309.939 79.5736 309.884C79.6271 309.829 79.6915 309.786 79.7626 309.757C79.8337 309.728 79.91 309.714 79.9867 309.716C80.0633 309.718 80.1387 309.736 80.2081 309.769C80.3477 309.853 80.4525 309.984 80.5035 310.139C80.5545 310.294 80.5483 310.462 80.4859 310.612C80.0069 311.723 79.5279 312.854 79.1543 313.984C79.1184 314.097 79.0483 314.195 78.9538 314.265C78.8593 314.336 78.7452 314.375 78.6274 314.377C78.5542 314.38 78.4816 314.363 78.4167 314.329ZM82.354 305.429C82.2191 305.334 82.1239 305.193 82.0868 305.032C82.0497 304.871 82.0732 304.702 82.1529 304.558C82.7372 303.494 83.3504 302.431 83.9731 301.406C84.0099 301.338 84.0609 301.279 84.1227 301.232C84.1845 301.186 84.2555 301.153 84.331 301.137C84.4065 301.121 84.4847 301.121 84.5601 301.137C84.6356 301.154 84.7066 301.187 84.7682 301.233C84.8943 301.338 84.979 301.484 85.0071 301.646C85.0352 301.807 85.0048 301.974 84.9215 302.115C84.2988 303.121 83.6952 304.165 83.13 305.209C83.0844 305.3 83.0148 305.377 82.9286 305.431C82.8425 305.485 82.7431 305.514 82.6414 305.516C82.5393 305.515 82.4395 305.485 82.354 305.429ZM87.441 297.296C87.3249 297.182 87.2541 297.03 87.2417 296.868C87.2294 296.706 87.2764 296.545 87.374 296.415C88.0925 295.457 88.8493 294.499 89.6061 293.598C89.6556 293.54 89.7172 293.493 89.7867 293.46C89.8562 293.428 89.9318 293.411 90.0085 293.411C90.0851 293.411 90.1607 293.428 90.2302 293.46C90.2997 293.493 90.3614 293.54 90.4108 293.598C90.5199 293.721 90.5802 293.879 90.5802 294.044C90.5802 294.208 90.5199 294.366 90.4108 294.489C89.6636 295.38 88.9259 296.3 88.217 297.248C88.167 297.319 88.1009 297.376 88.0243 297.416C87.9477 297.456 87.8627 297.477 87.7763 297.478C87.7032 297.476 87.6313 297.459 87.5652 297.428C87.4991 297.397 87.4405 297.352 87.3931 297.296H87.441ZM93.601 290.13C93.4919 290.007 93.4316 289.849 93.4316 289.685C93.4316 289.52 93.4919 289.362 93.601 289.239C94.444 288.406 95.3158 287.591 96.1876 286.825C96.2451 286.774 96.3129 286.736 96.3865 286.713C96.4601 286.69 96.5377 286.684 96.614 286.694C96.6903 286.704 96.7637 286.73 96.8289 286.771C96.8942 286.812 96.9499 286.866 96.9923 286.93C97.085 287.066 97.1263 287.23 97.1088 287.394C97.0912 287.557 97.0159 287.709 96.8965 287.821C96.0343 288.569 95.1817 289.364 94.3482 290.178C94.2499 290.279 94.1157 290.338 93.9746 290.341C93.893 290.339 93.8129 290.32 93.7399 290.283C93.667 290.247 93.6031 290.195 93.5531 290.13H93.601ZM100.652 284.066C100.573 283.924 100.547 283.758 100.579 283.599C100.611 283.439 100.697 283.296 100.824 283.194C101.782 282.504 102.74 281.863 103.698 281.278C103.764 281.239 103.837 281.215 103.913 281.206C103.989 281.198 104.065 281.206 104.138 281.229C104.21 281.253 104.277 281.292 104.333 281.343C104.39 281.394 104.434 281.457 104.465 281.527C104.539 281.672 104.558 281.838 104.517 281.996C104.477 282.153 104.379 282.29 104.244 282.38C103.286 282.955 102.328 283.587 101.37 284.296C101.281 284.359 101.173 284.392 101.064 284.392C100.966 284.381 100.872 284.345 100.792 284.288C100.712 284.231 100.647 284.155 100.604 284.066H100.652Z" fill="#455A64"/>
<path d="M109.082 279.927H109.255C109.761 279.736 110.284 279.591 110.816 279.496C110.974 279.462 111.111 279.367 111.201 279.234C111.29 279.1 111.324 278.936 111.295 278.778C111.289 278.7 111.268 278.624 111.232 278.555C111.197 278.486 111.147 278.424 111.088 278.374C111.028 278.324 110.959 278.287 110.884 278.264C110.809 278.241 110.731 278.233 110.654 278.241C110.06 278.352 109.477 278.512 108.91 278.72C108.758 278.78 108.635 278.896 108.566 279.044C108.496 279.192 108.486 279.36 108.536 279.515C108.573 279.633 108.645 279.736 108.743 279.81C108.841 279.884 108.96 279.925 109.082 279.927Z" fill="#455A64"/>
<path d="M378.089 59.5388L319.172 41.4805L364.562 72.6634L378.089 59.5388Z" fill="#A77CFF"/>
<path opacity="0.15" d="M378.089 59.5388L319.172 41.4805L364.562 72.6634L378.089 59.5388Z" fill="white"/>
<path d="M319.172 41.4805L382.582 51.6832L396.109 38.5586L319.172 41.4805Z" fill="#A77CFF"/>
<path opacity="0.15" d="M319.172 41.4805L382.582 51.6832L396.109 38.5586L319.172 41.4805Z" fill="white"/>
<path d="M382.582 51.6832L382.639 67.356L378.089 59.5388L319.172 41.4805L382.582 51.6832Z" fill="#A77CFF"/>
<path opacity="0.2" d="M382.582 51.6832L382.639 67.356L378.089 59.5388L319.172 41.4805L382.582 51.6832Z" fill="black"/>
<path d="M382.64 67.3563L373.577 63.9171L378.089 59.5391L382.64 67.3563Z" fill="#A77CFF"/>
<path opacity="0.2" d="M378.089 59.5391L373.577 63.9171L375.024 64.4632L378.089 59.5391Z" fill="black"/>
<path d="M394.528 56.7799C394.473 56.8208 394.427 56.8725 394.393 56.9318C394.358 56.9911 394.336 57.0567 394.327 57.1248C394.307 57.2883 394.347 57.4536 394.438 57.5906C394.529 57.7277 394.667 57.8275 394.825 57.8721L396.569 58.3415C396.642 58.3645 396.719 58.3713 396.796 58.3613C396.872 58.3514 396.944 58.325 397.009 58.2839C397.074 58.2429 397.129 58.1882 397.17 58.1237C397.212 58.0591 397.239 57.9864 397.249 57.9104C397.272 57.7491 397.236 57.585 397.148 57.4479C397.06 57.3107 396.926 57.2097 396.77 57.1631L395.007 56.6937C394.926 56.6701 394.841 56.6656 394.758 56.6805C394.675 56.6955 394.596 56.7295 394.528 56.7799Z" fill="#455A64"/>
<path d="M402.508 58.9163C403.648 59.2995 404.788 59.7019 405.909 60.1138C406.063 60.172 406.19 60.2831 406.27 60.4271C406.349 60.5711 406.374 60.7386 406.34 60.8994C406.32 60.9735 406.285 61.0425 406.236 61.1017C406.187 61.1609 406.126 61.2089 406.057 61.2425C405.988 61.2761 405.912 61.2945 405.836 61.2965C405.759 61.2984 405.683 61.2839 405.612 61.2539C404.501 60.8419 403.37 60.4491 402.24 60.0659C402.086 60.0134 401.956 59.9066 401.875 59.7656C401.794 59.6247 401.767 59.459 401.799 59.2995C401.822 59.1766 401.89 59.0669 401.991 58.993C402.064 58.938 402.149 58.9021 402.24 58.8887C402.33 58.8753 402.422 58.8848 402.508 58.9163ZM411.523 62.3843C412.644 62.8825 413.745 63.3423 414.838 63.9267C414.985 63.9959 415.103 64.1173 415.166 64.2677C415.23 64.418 415.236 64.5866 415.182 64.741C415.154 64.8125 415.111 64.8771 415.055 64.9306C415 64.9842 414.934 65.0254 414.862 65.0516C414.789 65.0779 414.712 65.0885 414.635 65.0829C414.559 65.0772 414.484 65.0554 414.416 65.0188C413.343 64.4919 412.251 63.9842 411.149 63.5052C411.001 63.4379 410.882 63.3198 410.813 63.1721C410.745 63.0244 410.731 62.8571 410.776 62.7004C410.807 62.597 410.871 62.5064 410.958 62.4418C411.038 62.3822 411.133 62.3455 411.232 62.3353C411.332 62.3252 411.432 62.3421 411.523 62.3843ZM420.241 66.7815C421.314 67.3946 422.367 68.0365 423.402 68.6975C423.54 68.783 423.642 68.9156 423.689 69.0706C423.737 69.2255 423.727 69.3925 423.661 69.5406C423.623 69.6084 423.571 69.6674 423.508 69.7139C423.446 69.7604 423.375 69.7933 423.299 69.8105C423.223 69.8276 423.144 69.8287 423.068 69.8135C422.992 69.7984 422.92 69.7674 422.856 69.7226C421.841 69.0807 420.796 68.458 419.743 67.8066C419.6 67.7274 419.493 67.5985 419.44 67.4448C419.387 67.291 419.392 67.1231 419.455 66.9731C419.487 66.8933 419.54 66.8237 419.608 66.7719C419.703 66.7116 419.814 66.6803 419.926 66.682C420.038 66.6837 420.148 66.7183 420.241 66.7815ZM428.499 72.1559C429.505 72.8936 430.491 73.66 431.44 74.4264C431.568 74.5254 431.654 74.6693 431.681 74.8292C431.708 74.9892 431.673 75.1533 431.583 75.2886C431.536 75.3506 431.476 75.402 431.408 75.4394C431.34 75.4768 431.264 75.4994 431.186 75.5058C431.109 75.5121 431.031 75.502 430.957 75.4761C430.883 75.4503 430.816 75.4092 430.76 75.3556C429.802 74.5988 428.844 73.8516 427.886 73.1235C427.751 73.0301 427.657 72.8896 427.621 72.7298C427.586 72.5701 427.612 72.4028 427.694 72.2613C427.722 72.2111 427.761 72.1684 427.809 72.1367C427.912 72.0677 428.033 72.0325 428.157 72.0359C428.281 72.0393 428.4 72.0813 428.499 72.1559ZM436.115 78.5553C437.015 79.408 437.906 80.2893 438.768 81.1898C438.88 81.3058 438.942 81.4603 438.942 81.6209C438.942 81.7816 438.88 81.9361 438.768 82.052C438.713 82.1077 438.648 82.1518 438.575 82.1819C438.503 82.212 438.425 82.2275 438.347 82.2275C438.269 82.2275 438.191 82.212 438.119 82.1819C438.046 82.1518 437.981 82.1077 437.925 82.052C437.082 81.1707 436.201 80.2989 435.32 79.4654C435.2 79.3584 435.125 79.2097 435.111 79.0495C435.096 78.8893 435.144 78.7298 435.243 78.6032L435.32 78.5266C435.432 78.4322 435.576 78.3829 435.723 78.3882C435.87 78.3935 436.009 78.453 436.115 78.5553ZM442.907 85.8553C443.53 86.6121 444.133 87.3785 444.737 88.1641L445.216 88.8059C445.316 88.9284 445.364 89.0854 445.35 89.2432C445.336 89.4009 445.26 89.5466 445.139 89.649C445.074 89.6939 445.001 89.7253 444.923 89.7414C444.846 89.7576 444.766 89.758 444.688 89.7429C444.611 89.7277 444.537 89.6972 444.471 89.6531C444.405 89.609 444.349 89.5522 444.306 89.4861L443.827 88.8538C443.242 88.0874 442.648 87.3306 442.035 86.5834C441.925 86.469 441.863 86.3162 441.863 86.1571C441.863 85.998 441.925 85.8451 442.035 85.7308C442.097 85.6758 442.169 85.6342 442.247 85.6085C442.325 85.5829 442.408 85.5739 442.49 85.582C442.572 85.5901 442.651 85.6152 442.723 85.6556C442.795 85.6961 442.858 85.751 442.907 85.817V85.8553ZM447.936 93.7109C448.077 93.6368 448.241 93.6193 448.394 93.662C448.547 93.7048 448.678 93.8045 448.76 93.9408C449.421 94.9946 450.073 96.0676 450.676 97.1501C450.718 97.2159 450.746 97.2894 450.759 97.3662C450.773 97.4431 450.77 97.5218 450.752 97.5976C450.734 97.6735 450.701 97.7451 450.656 97.8081C450.61 97.871 450.552 97.9242 450.485 97.9644C450.339 98.0294 450.174 98.0369 450.023 97.9854C449.872 97.9338 449.746 97.8271 449.67 97.6866C449.057 96.6232 448.416 95.5598 447.754 94.5348C447.669 94.4131 447.633 94.2639 447.653 94.1167C447.672 93.9696 447.746 93.835 447.86 93.7396L447.936 93.7109ZM452.794 102.333C452.946 102.278 453.114 102.283 453.264 102.347C453.413 102.411 453.533 102.529 453.598 102.678C454.125 103.799 454.642 104.939 455.112 106.079C455.145 106.149 455.164 106.225 455.167 106.303C455.17 106.38 455.157 106.458 455.129 106.53C455.101 106.603 455.059 106.669 455.005 106.725C454.951 106.78 454.887 106.825 454.815 106.855C454.659 106.899 454.491 106.883 454.346 106.811C454.201 106.738 454.088 106.614 454.029 106.462C453.57 105.341 453.071 104.22 452.544 103.128C452.479 103.009 452.457 102.871 452.483 102.738C452.509 102.604 452.582 102.485 452.688 102.4C452.713 102.348 452.749 102.302 452.794 102.266V102.333ZM456.482 111.434C456.641 111.404 456.806 111.434 456.945 111.519C457.083 111.604 457.184 111.738 457.229 111.894C457.593 113.063 457.938 114.26 458.235 115.448C458.258 115.522 458.265 115.599 458.256 115.676C458.247 115.752 458.221 115.826 458.181 115.892C458.141 115.958 458.088 116.015 458.025 116.059C457.961 116.103 457.889 116.133 457.813 116.147C457.653 116.168 457.491 116.129 457.358 116.037C457.225 115.945 457.132 115.806 457.095 115.649C456.798 114.48 456.463 113.302 456.137 112.162C456.096 112.052 456.091 111.932 456.122 111.818C456.153 111.705 456.219 111.604 456.309 111.53C456.353 111.462 456.412 111.406 456.482 111.367V111.434ZM458.781 120.87C458.945 120.866 459.105 120.922 459.23 121.028C459.356 121.134 459.438 121.283 459.461 121.445C459.653 122.642 459.806 123.859 459.931 125.066C459.94 125.141 459.934 125.218 459.912 125.29C459.889 125.362 459.852 125.429 459.803 125.486C459.753 125.543 459.691 125.589 459.623 125.621C459.554 125.652 459.479 125.669 459.404 125.67C459.24 125.668 459.082 125.605 458.962 125.494C458.841 125.382 458.767 125.23 458.752 125.066C458.628 123.888 458.484 122.7 458.292 121.522C458.275 121.422 458.285 121.32 458.32 121.226C458.355 121.132 458.415 121.049 458.494 120.985C458.567 120.895 458.668 120.831 458.781 120.803V120.87Z" fill="#455A64"/>
<path d="M469.271 273.824C466.704 272.292 463.083 272.502 459.059 274.782L386.098 316.934C378.309 321.427 371.986 332.119 371.986 340.808C371.986 345.052 373.5 348.022 375.952 349.43L383.779 353.942C386.337 355.398 389.911 355.168 393.877 352.879L466.848 310.727C474.636 306.234 480.949 295.542 480.949 286.853C480.949 282.638 479.455 279.659 477.021 278.231C475.69 277.503 470.555 274.591 469.271 273.824Z" fill="#E0E0E0"/>
<path d="M387.401 354.459C382.994 354.459 380.254 350.972 380.254 345.368C380.254 336.851 386.471 326.322 394.116 321.916L467.087 279.764C468.966 278.598 471.114 277.938 473.324 277.848C477.73 277.848 480.47 281.335 480.47 286.939C480.47 295.465 474.253 305.984 466.608 310.401L393.637 352.553C391.759 353.719 389.61 354.376 387.401 354.459Z" fill="#FAFAFA"/>
<path d="M473.323 278.288C477.433 278.288 480.029 281.593 480.029 286.91C480.029 295.283 473.917 305.62 466.406 309.902L393.436 352.054C391.63 353.181 389.564 353.821 387.438 353.913C386.528 353.943 385.623 353.765 384.793 353.391C383.963 353.018 383.229 352.459 382.648 351.757C381.287 349.889 380.611 347.609 380.732 345.3C380.732 336.937 386.844 326.6 394.355 322.308L467.326 280.156C469.131 279.03 471.197 278.389 473.323 278.298M473.323 277.34C471.027 277.427 468.795 278.114 466.847 279.332L393.876 321.484C386.088 325.987 379.774 336.669 379.774 345.358C379.774 351.441 382.869 354.938 387.438 354.938C389.732 354.849 391.964 354.166 393.915 352.955L466.885 310.803C474.674 306.31 480.987 295.618 480.987 286.929C480.987 280.846 477.893 277.349 473.323 277.349V277.34Z" fill="#EBEBEB"/>
<path d="M405.315 330.856C405.612 330.3 405.564 329.725 405.315 329.572L402.872 328.164C402.821 328.137 402.763 328.123 402.705 328.123C402.646 328.123 402.589 328.137 402.537 328.164L400.295 329.026L399.558 327.455C399.521 327.377 399.461 327.314 399.385 327.273L396.942 325.855C396.636 325.683 396.128 326.075 395.927 326.727L394.404 331.718C394.321 332.019 394.147 332.286 393.906 332.484L390.505 335.119C389.959 335.531 389.748 336.546 390.141 336.824L392.603 338.606C392.687 338.693 392.749 338.8 392.783 338.917C392.816 339.034 392.82 339.158 392.794 339.277L392.21 344.134C392.162 344.488 392.267 344.728 392.43 344.814L394.873 346.232C395.065 346.337 395.352 346.232 395.611 345.916L398.657 342.026C398.721 341.92 398.81 341.831 398.918 341.769C399.025 341.707 399.146 341.674 399.27 341.672L402.326 342.007C402.805 342.074 403.371 341.193 403.284 340.532L402.7 336.345C402.673 336.036 402.74 335.725 402.892 335.454L405.315 330.856Z" fill="#A77CFF"/>
<path opacity="0.15" d="M405.287 329.552C405.234 329.527 405.177 329.515 405.119 329.515C405.061 329.515 405.004 329.527 404.951 329.552L401.541 330.854C401.496 330.876 401.448 330.889 401.399 330.891C401.349 330.893 401.3 330.885 401.254 330.867C401.208 330.849 401.166 330.821 401.132 330.786C401.097 330.751 401.07 330.709 401.052 330.663L400.267 328.996L402.508 328.143C402.56 328.117 402.618 328.104 402.676 328.104C402.734 328.104 402.792 328.117 402.844 328.143L405.287 329.552Z" fill="white"/>
<path opacity="0.15" d="M396.818 333.115C396.733 333.415 396.559 333.682 396.32 333.882L392.919 336.507C392.763 336.628 392.638 336.786 392.555 336.966L390.112 335.549C390.2 335.371 390.324 335.215 390.476 335.089L393.877 332.464C394.116 332.268 394.29 332.004 394.375 331.707L396.818 333.115Z" fill="white"/>
<path opacity="0.1" d="M399.376 327.263C399.069 327.062 398.552 327.455 398.341 328.125L396.818 333.116L394.375 331.698L395.898 326.707C396.099 326.056 396.607 325.663 396.914 325.836C396.981 325.836 399.05 327.081 399.366 327.253L399.376 327.263Z" fill="black"/>
<path opacity="0.25" d="M395.017 340.004L392.593 338.605L390.131 336.823C389.844 336.613 389.882 336.038 390.131 335.568L392.574 336.986C392.325 337.446 392.287 338.03 392.574 338.241L395.017 340.004Z" fill="black"/>
<path opacity="0.15" d="M394.662 345.532C394.662 345.886 394.72 346.126 394.902 346.222L392.449 344.804C392.353 344.723 392.282 344.615 392.244 344.495C392.207 344.374 392.205 344.245 392.238 344.124L392.823 339.267C392.847 339.152 392.844 339.034 392.814 338.92C392.784 338.807 392.728 338.703 392.65 338.615L395.074 340.014C395.152 340.099 395.209 340.202 395.239 340.314C395.269 340.425 395.272 340.543 395.247 340.656L394.662 345.532Z" fill="black"/>
<path d="M399.529 327.434L401.053 330.672C401.07 330.718 401.097 330.76 401.132 330.796C401.167 330.831 401.208 330.858 401.254 330.876C401.3 330.894 401.35 330.902 401.399 330.9C401.448 330.898 401.497 330.886 401.541 330.864L404.952 329.561C405.488 329.35 405.708 330.117 405.316 330.854L402.854 335.472C402.702 335.743 402.635 336.053 402.662 336.363L403.246 340.549C403.333 341.21 402.767 342.092 402.288 342.025L399.242 341.651C399.118 341.653 398.997 341.687 398.889 341.749C398.782 341.811 398.692 341.899 398.629 342.005L395.621 345.895C395.132 346.518 394.567 346.297 394.663 345.521L395.247 340.664C395.275 340.545 395.272 340.421 395.238 340.304C395.205 340.187 395.142 340.08 395.055 339.994L392.593 338.221C392.201 337.934 392.421 336.928 392.957 336.507L396.358 333.882C396.599 333.684 396.773 333.416 396.856 333.115L398.38 328.124C398.581 327.329 399.28 326.927 399.529 327.434Z" fill="#A77CFF"/>
<path opacity="0.5" d="M399.529 327.434L401.053 330.672C401.07 330.718 401.097 330.76 401.132 330.796C401.167 330.831 401.208 330.858 401.254 330.876C401.3 330.894 401.35 330.902 401.399 330.9C401.448 330.898 401.497 330.886 401.541 330.864L404.952 329.561C405.488 329.35 405.708 330.117 405.316 330.854L402.854 335.472C402.702 335.743 402.635 336.053 402.662 336.363L403.246 340.549C403.333 341.21 402.767 342.092 402.288 342.025L399.242 341.651C399.118 341.653 398.997 341.687 398.889 341.749C398.782 341.811 398.692 341.899 398.629 342.005L395.621 345.895C395.132 346.518 394.567 346.297 394.663 345.521L395.247 340.664C395.275 340.545 395.272 340.421 395.238 340.304C395.205 340.187 395.142 340.08 395.055 339.994L392.593 338.221C392.201 337.934 392.421 336.928 392.957 336.507L396.358 333.882C396.599 333.684 396.773 333.416 396.856 333.115L398.38 328.124C398.581 327.329 399.28 326.927 399.529 327.434Z" fill="white"/>
<path d="M422.445 320.987C422.742 320.431 422.684 319.866 422.445 319.713L420.011 318.304C419.958 318.278 419.899 318.263 419.839 318.263C419.779 318.263 419.72 318.278 419.667 318.304L417.434 319.167L416.687 317.596C416.657 317.517 416.599 317.452 416.524 317.414L414.081 315.996C413.775 315.823 413.267 316.216 413.066 316.867L411.476 321.887C411.389 322.186 411.215 322.453 410.978 322.654L407.577 325.279C407.031 325.7 406.82 326.716 407.203 326.994L409.675 328.775C409.759 328.863 409.82 328.97 409.852 329.087C409.884 329.205 409.885 329.328 409.857 329.446L409.282 334.303C409.234 334.658 409.33 334.897 409.493 334.983L411.907 336.353C412.098 336.459 412.376 336.353 412.644 336.037L415.691 332.148C415.754 332.041 415.844 331.953 415.951 331.891C416.059 331.829 416.18 331.795 416.304 331.793L419.35 332.167C419.829 332.224 420.395 331.352 420.308 330.691L419.734 326.505C419.703 326.195 419.77 325.884 419.925 325.614L422.445 320.987Z" fill="#A77CFF"/>
<path opacity="0.15" d="M422.387 319.704C422.334 319.68 422.277 319.668 422.219 319.668C422.161 319.668 422.104 319.68 422.051 319.704L418.612 321.007C418.567 321.029 418.518 321.041 418.468 321.044C418.418 321.046 418.368 321.038 418.321 321.02C418.274 321.002 418.232 320.974 418.196 320.939C418.161 320.904 418.132 320.862 418.114 320.815L417.338 319.148L419.57 318.296C419.624 318.269 419.683 318.256 419.742 318.256C419.802 318.256 419.861 318.269 419.915 318.296L422.387 319.704Z" fill="white"/>
<path opacity="0.15" d="M413.919 323.258C413.833 323.558 413.66 323.825 413.421 324.025L409.991 326.678C409.834 326.8 409.71 326.958 409.627 327.138L407.203 325.72C407.298 325.545 407.424 325.389 407.577 325.26L410.978 322.636C411.216 322.435 411.389 322.168 411.476 321.869L413.919 323.258Z" fill="white"/>
<path opacity="0.1" d="M416.476 317.405C416.17 317.203 415.652 317.596 415.442 318.267L413.919 323.258L411.476 321.888L412.999 316.897C413.2 316.245 413.708 315.853 414.014 316.025C414.081 316.025 416.151 317.27 416.457 317.433L416.476 317.405Z" fill="black"/>
<path opacity="0.25" d="M412.117 330.137L409.693 328.748L407.231 326.966C406.954 326.755 406.992 326.18 407.231 325.711L409.684 327.129C409.435 327.589 409.396 328.173 409.684 328.374L412.117 330.137Z" fill="black"/>
<path opacity="0.15" d="M411.724 335.665C411.676 336.029 411.782 336.269 411.954 336.364L409.511 334.946C409.348 334.851 409.253 334.621 409.3 334.266L409.885 329.409C409.907 329.295 409.903 329.177 409.873 329.064C409.843 328.951 409.788 328.846 409.712 328.758L412.136 330.147C412.214 330.232 412.271 330.335 412.301 330.447C412.331 330.558 412.334 330.676 412.309 330.789L411.724 335.665Z" fill="black"/>
<path d="M416.62 317.578L418.143 320.816C418.162 320.862 418.19 320.905 418.225 320.94C418.261 320.975 418.303 321.002 418.35 321.02C418.397 321.038 418.447 321.046 418.497 321.044C418.547 321.042 418.596 321.029 418.641 321.007L422.052 319.705C422.588 319.494 422.808 320.26 422.416 320.988L419.954 325.615C419.798 325.885 419.731 326.197 419.762 326.506L420.337 330.693C420.433 331.354 419.867 332.226 419.379 332.168L416.332 331.795C416.208 331.797 416.087 331.83 415.98 331.892C415.872 331.954 415.783 332.043 415.719 332.149L412.673 336.038C412.184 336.661 411.619 336.441 411.715 335.665L412.299 330.808C412.325 330.689 412.321 330.565 412.288 330.448C412.254 330.331 412.192 330.224 412.108 330.137L409.645 328.365C409.253 328.077 409.463 327.072 410.01 326.65L413.41 324.025C413.651 323.827 413.825 323.559 413.909 323.259L415.432 318.268C415.681 317.472 416.38 317.099 416.62 317.578Z" fill="#A77CFF"/>
<path opacity="0.5" d="M416.62 317.578L418.143 320.816C418.162 320.862 418.19 320.905 418.225 320.94C418.261 320.975 418.303 321.002 418.35 321.02C418.397 321.038 418.447 321.046 418.497 321.044C418.547 321.042 418.596 321.029 418.641 321.007L422.052 319.705C422.588 319.494 422.808 320.26 422.416 320.988L419.954 325.615C419.798 325.885 419.731 326.197 419.762 326.506L420.337 330.693C420.433 331.354 419.867 332.226 419.379 332.168L416.332 331.795C416.208 331.797 416.087 331.83 415.98 331.892C415.872 331.954 415.783 332.043 415.719 332.149L412.673 336.038C412.184 336.661 411.619 336.441 411.715 335.665L412.299 330.808C412.325 330.689 412.321 330.565 412.288 330.448C412.254 330.331 412.192 330.224 412.108 330.137L409.645 328.365C409.253 328.077 409.463 327.072 410.01 326.65L413.41 324.025C413.651 323.827 413.825 323.559 413.909 323.259L415.432 318.268C415.681 317.472 416.38 317.099 416.62 317.578Z" fill="white"/>
<path d="M439.516 311.13C439.804 310.574 439.756 310.009 439.516 309.856L437.045 308.476C436.99 308.452 436.932 308.439 436.872 308.439C436.813 308.439 436.754 308.452 436.7 308.476L434.458 309.339L433.72 307.767C433.69 307.689 433.632 307.624 433.558 307.585L431.115 306.168C430.808 305.995 430.291 306.388 430.099 307.039L428.576 312.031C428.489 312.329 428.316 312.596 428.078 312.797L424.667 315.422C424.131 315.843 423.911 316.849 424.303 317.137L426.765 318.919C426.854 319.003 426.919 319.11 426.952 319.228C426.986 319.346 426.988 319.47 426.957 319.589L426.373 324.446C426.373 324.801 426.43 325.031 426.593 325.126L429.036 326.544C429.237 326.65 429.515 326.544 429.783 326.228L432.82 322.339C432.884 322.231 432.976 322.142 433.085 322.079C433.194 322.017 433.317 321.985 433.443 321.984L436.48 322.358C436.968 322.415 437.533 321.543 437.438 320.882L436.863 316.696C436.832 316.387 436.896 316.077 437.045 315.805L439.516 311.13Z" fill="#A77CFF"/>
<path opacity="0.15" d="M439.488 309.846C439.433 309.823 439.374 309.81 439.315 309.81C439.256 309.81 439.197 309.823 439.143 309.846L435.742 311.149C435.697 311.171 435.648 311.184 435.598 311.186C435.548 311.188 435.498 311.18 435.451 311.162C435.404 311.144 435.362 311.117 435.326 311.082C435.29 311.046 435.262 311.004 435.244 310.958L434.458 309.291L436.7 308.438C436.752 308.412 436.809 308.398 436.867 308.398C436.926 308.398 436.983 308.412 437.035 308.438L439.488 309.846Z" fill="white"/>
<path opacity="0.15" d="M431.066 313.391C430.979 313.692 430.806 313.962 430.568 314.167L427.167 316.792C427.01 316.916 426.883 317.073 426.794 317.251L424.351 315.834C424.445 315.658 424.572 315.502 424.724 315.374L428.125 312.749C428.363 312.548 428.536 312.281 428.623 311.982L431.066 313.391Z" fill="white"/>
<path opacity="0.1" d="M433.577 307.517C433.27 307.316 432.743 307.709 432.542 308.37L431.067 313.39L428.624 311.982L430.147 306.991C430.348 306.339 430.856 305.946 431.163 306.119C431.23 306.119 433.289 307.364 433.606 307.527L433.577 307.517Z" fill="black"/>
<path opacity="0.25" d="M429.208 320.279L426.794 318.89L424.303 317.099C424.025 316.888 424.054 316.313 424.303 315.844L426.746 317.262C426.507 317.721 426.468 318.306 426.746 318.507L429.208 320.279Z" fill="black"/>
<path opacity="0.15" d="M428.825 325.806C428.777 326.17 428.882 326.409 429.054 326.505L426.612 325.087C426.449 324.991 426.353 324.761 426.391 324.407L426.976 319.54C427 319.428 426.999 319.312 426.97 319.2C426.942 319.089 426.888 318.985 426.813 318.898L429.227 320.288C429.302 320.375 429.356 320.478 429.386 320.589C429.416 320.7 429.421 320.816 429.399 320.929L428.825 325.806Z" fill="black"/>
<path d="M433.72 307.719L435.243 310.957C435.262 311.004 435.29 311.046 435.326 311.081C435.361 311.117 435.404 311.144 435.451 311.162C435.497 311.18 435.547 311.188 435.597 311.186C435.648 311.184 435.697 311.171 435.742 311.149L439.142 309.846C439.689 309.635 439.899 310.402 439.516 311.13L437.044 315.757C436.896 316.029 436.832 316.339 436.862 316.648L437.437 320.834C437.533 321.495 436.968 322.367 436.479 322.31L433.442 321.936C433.317 321.937 433.194 321.969 433.084 322.031C432.975 322.094 432.884 322.183 432.82 322.291L429.783 326.18C429.294 326.803 428.729 326.582 428.825 325.806L429.4 320.949C429.428 320.831 429.427 320.708 429.395 320.591C429.363 320.473 429.302 320.366 429.218 320.279L426.746 318.497C426.363 318.219 426.574 317.204 427.12 316.792L430.52 314.167C430.758 313.966 430.932 313.699 431.019 313.4L432.542 308.409C432.781 307.614 433.481 307.212 433.72 307.719Z" fill="#A77CFF"/>
<path opacity="0.5" d="M433.72 307.719L435.243 310.957C435.262 311.004 435.29 311.046 435.326 311.081C435.361 311.117 435.404 311.144 435.451 311.162C435.497 311.18 435.547 311.188 435.597 311.186C435.648 311.184 435.697 311.171 435.742 311.149L439.142 309.846C439.689 309.635 439.899 310.402 439.516 311.13L437.044 315.757C436.896 316.029 436.832 316.339 436.862 316.648L437.437 320.834C437.533 321.495 436.968 322.367 436.479 322.31L433.442 321.936C433.317 321.937 433.194 321.969 433.084 322.031C432.975 322.094 432.884 322.183 432.82 322.291L429.783 326.18C429.294 326.803 428.729 326.582 428.825 325.806L429.4 320.949C429.428 320.831 429.427 320.708 429.395 320.591C429.363 320.473 429.302 320.366 429.218 320.279L426.746 318.497C426.363 318.219 426.574 317.204 427.12 316.792L430.52 314.167C430.758 313.966 430.932 313.699 431.019 313.4L432.542 308.409C432.781 307.614 433.481 307.212 433.72 307.719Z" fill="white"/>
<path d="M456.607 301.272C456.904 300.716 456.856 300.151 456.607 299.998L454.174 298.58C454.119 298.556 454.061 298.543 454.001 298.543C453.942 298.543 453.883 298.556 453.829 298.58L451.587 299.442L450.849 297.871C450.817 297.791 450.76 297.724 450.687 297.679C450.38 297.516 448.311 296.309 448.244 296.271C447.937 296.099 447.42 296.491 447.219 297.143L445.695 302.134C445.612 302.432 445.442 302.699 445.207 302.9L441.796 305.525C441.26 305.947 441.039 306.953 441.432 307.24L443.894 309.022C443.981 309.106 444.045 309.211 444.078 309.327C444.112 309.443 444.115 309.566 444.086 309.683L443.502 314.54C443.502 314.895 443.559 315.134 443.722 315.23L446.165 316.648C446.356 316.753 446.644 316.648 446.902 316.332L449.949 312.442C450.012 312.336 450.102 312.247 450.209 312.185C450.317 312.123 450.438 312.09 450.562 312.088L453.608 312.461C454.097 312.519 454.662 311.647 454.566 310.986L453.982 306.799C453.959 306.49 454.026 306.181 454.174 305.909L456.607 301.272Z" fill="#A77CFF"/>
<path opacity="0.15" d="M456.579 299.989C456.526 299.965 456.469 299.952 456.411 299.952C456.353 299.952 456.296 299.965 456.243 299.989L452.833 301.292C452.788 301.314 452.74 301.326 452.691 301.328C452.641 301.33 452.592 301.322 452.546 301.304C452.5 301.286 452.458 301.259 452.424 301.223C452.389 301.188 452.362 301.146 452.344 301.1L451.559 299.433L453.8 298.581C453.852 298.552 453.909 298.537 453.968 298.537C454.027 298.537 454.084 298.552 454.136 298.581L456.579 299.989Z" fill="white"/>
<path opacity="0.15" d="M448.119 303.533C448.032 303.835 447.859 304.105 447.621 304.309L444.22 306.934C444.063 307.058 443.935 307.215 443.846 307.394L441.403 305.976C441.494 305.801 441.618 305.645 441.767 305.516L445.168 302.891C445.412 302.694 445.59 302.427 445.676 302.125L448.119 303.533Z" fill="white"/>
<path opacity="0.1" d="M450.677 297.689C450.37 297.488 449.843 297.88 449.642 298.541L448.119 303.533L445.676 302.124L447.199 297.133C447.391 296.482 447.908 296.089 448.214 296.261C448.282 296.261 450.341 297.507 450.657 297.67L450.677 297.689Z" fill="black"/>
<path opacity="0.25" d="M446.308 310.393L443.894 309.004L441.432 307.222C441.145 307.011 441.183 306.436 441.432 305.967L443.875 307.385C443.626 307.844 443.597 308.429 443.875 308.63L446.308 310.393Z" fill="black"/>
<path opacity="0.15" d="M445.915 315.949C445.915 316.313 445.982 316.553 446.155 316.649L443.693 315.183C443.53 315.087 443.434 314.857 443.472 314.503L444.057 309.636C444.079 309.524 444.076 309.408 444.048 309.297C444.02 309.185 443.967 309.082 443.894 308.994L446.308 310.383C446.383 310.47 446.437 310.573 446.465 310.685C446.494 310.796 446.496 310.913 446.471 311.025L445.915 315.949Z" fill="black"/>
<path d="M450.821 297.862L452.344 301.1C452.362 301.147 452.39 301.189 452.426 301.224C452.462 301.259 452.504 301.287 452.551 301.305C452.598 301.323 452.648 301.331 452.698 301.329C452.748 301.326 452.797 301.314 452.842 301.292L456.243 299.989C456.789 299.778 457 300.545 456.607 301.273L454.145 305.9C453.997 306.172 453.93 306.482 453.953 306.791L454.538 310.977C454.633 311.638 454.068 312.51 453.58 312.453L450.533 312.079C450.409 312.081 450.288 312.115 450.181 312.177C450.073 312.239 449.984 312.327 449.92 312.433L446.874 316.323C446.395 316.946 445.829 316.725 445.916 315.949L446.5 311.092C446.53 310.974 446.529 310.849 446.495 310.731C446.461 310.613 446.397 310.506 446.308 310.422L443.846 308.64C443.454 308.362 443.674 307.346 444.21 306.935L447.621 304.31C447.857 304.107 448.03 303.841 448.119 303.543L449.642 298.542C449.882 297.757 450.581 297.355 450.821 297.862Z" fill="#A77CFF"/>
<path opacity="0.5" d="M450.821 297.862L452.344 301.1C452.362 301.147 452.39 301.189 452.426 301.224C452.462 301.259 452.504 301.287 452.551 301.305C452.598 301.323 452.648 301.331 452.698 301.329C452.748 301.326 452.797 301.314 452.842 301.292L456.243 299.989C456.789 299.778 457 300.545 456.607 301.273L454.145 305.9C453.997 306.172 453.93 306.482 453.953 306.791L454.538 310.977C454.633 311.638 454.068 312.51 453.58 312.453L450.533 312.079C450.409 312.081 450.288 312.115 450.181 312.177C450.073 312.239 449.984 312.327 449.92 312.433L446.874 316.323C446.395 316.946 445.829 316.725 445.916 315.949L446.5 311.092C446.53 310.974 446.529 310.849 446.495 310.731C446.461 310.613 446.397 310.506 446.308 310.422L443.846 308.64C443.454 308.362 443.674 307.346 444.21 306.935L447.621 304.31C447.857 304.107 448.03 303.841 448.119 303.543L449.642 298.542C449.882 297.757 450.581 297.355 450.821 297.862Z" fill="white"/>
<path d="M473.707 291.415C474.004 290.859 473.956 290.294 473.707 290.131L471.264 288.723C471.211 288.699 471.154 288.686 471.096 288.686C471.039 288.686 470.981 288.699 470.929 288.723L468.687 289.585L467.949 288.014C467.91 287.939 467.855 287.873 467.787 287.823C467.47 287.66 465.401 286.453 465.344 286.414C465.028 286.242 464.52 286.625 464.319 287.286L462.795 292.277C462.712 292.578 462.538 292.846 462.297 293.044L458.848 295.659C458.302 296.081 458.092 297.086 458.484 297.374L460.946 299.156C461.033 299.239 461.097 299.345 461.131 299.461C461.164 299.577 461.167 299.699 461.138 299.817L460.573 304.645C460.573 304.999 460.63 305.239 460.793 305.335L463.236 306.753C463.428 306.858 463.715 306.753 463.974 306.436L467.02 302.547C467.084 302.441 467.173 302.352 467.281 302.29C467.388 302.228 467.509 302.195 467.633 302.193L470.68 302.566C471.159 302.624 471.724 301.752 471.638 301.091L471.053 296.904C471.026 296.595 471.093 296.284 471.245 296.013L473.707 291.415Z" fill="#A77CFF"/>
<path opacity="0.15" d="M473.678 290.131C473.626 290.105 473.569 290.091 473.51 290.091C473.452 290.091 473.395 290.105 473.343 290.131L469.932 291.433C469.888 291.455 469.84 291.468 469.79 291.47C469.741 291.472 469.692 291.464 469.646 291.446C469.6 291.428 469.558 291.4 469.523 291.365C469.488 291.33 469.461 291.288 469.444 291.242L468.658 289.575L470.9 288.713C470.952 288.686 471.009 288.672 471.068 288.672C471.126 288.672 471.183 288.686 471.235 288.713L473.678 290.131Z" fill="white"/>
<path opacity="0.15" d="M465.219 293.676C465.13 293.978 464.953 294.248 464.712 294.452L461.311 297.077C461.157 297.201 461.033 297.358 460.947 297.537L458.504 296.119C458.592 295.942 458.716 295.785 458.868 295.659L462.269 293.034C462.51 292.836 462.684 292.568 462.767 292.268L465.219 293.676Z" fill="white"/>
<path opacity="0.1" d="M467.777 287.822C467.47 287.63 466.943 288.023 466.742 288.684L465.219 293.675L462.767 292.267L464.29 287.276C464.491 286.624 465.008 286.231 465.315 286.404C465.382 286.404 467.442 287.649 467.758 287.812L467.777 287.822Z" fill="black"/>
<path opacity="0.25" d="M463.409 300.563L460.985 299.174L458.523 297.392C458.235 297.181 458.274 296.606 458.523 296.137L460.966 297.555C460.717 298.014 460.678 298.599 460.966 298.8L463.409 300.563Z" fill="black"/>
<path opacity="0.15" d="M463.016 306.091C463.016 306.455 463.074 306.694 463.256 306.78L460.765 305.363C460.602 305.267 460.506 305.037 460.545 304.673L461.129 299.816C461.152 299.703 461.149 299.586 461.119 299.474C461.089 299.363 461.033 299.26 460.957 299.174L463.38 300.563C463.456 300.649 463.511 300.753 463.539 300.864C463.567 300.976 463.569 301.093 463.543 301.205L463.016 306.091Z" fill="black"/>
<path d="M467.921 288.004L469.444 291.242C469.463 291.288 469.491 291.33 469.527 291.366C469.562 291.401 469.605 291.428 469.652 291.446C469.698 291.464 469.748 291.472 469.798 291.47C469.848 291.468 469.898 291.455 469.943 291.433L473.343 290.131C473.88 289.92 474.1 290.686 473.707 291.414L471.245 296.022C471.093 296.293 471.026 296.604 471.054 296.913L471.638 301.1C471.724 301.761 471.159 302.632 470.68 302.575L467.634 302.201C467.51 302.203 467.388 302.237 467.281 302.299C467.174 302.361 467.084 302.449 467.021 302.556L463.974 306.445C463.495 307.068 462.93 306.838 463.016 306.072L463.601 301.215C463.628 301.096 463.625 300.972 463.592 300.854C463.558 300.737 463.495 300.63 463.409 300.544L460.947 298.762C460.554 298.484 460.774 297.469 461.311 297.057L464.721 294.432C464.953 294.227 465.122 293.962 465.21 293.666L466.733 288.665C466.982 287.898 467.682 287.486 467.921 288.004Z" fill="#A77CFF"/>
<path opacity="0.5" d="M467.921 288.004L469.444 291.242C469.463 291.288 469.491 291.33 469.527 291.366C469.562 291.401 469.605 291.428 469.652 291.446C469.698 291.464 469.748 291.472 469.798 291.47C469.848 291.468 469.898 291.455 469.943 291.433L473.343 290.131C473.88 289.92 474.1 290.686 473.707 291.414L471.245 296.022C471.093 296.293 471.026 296.604 471.054 296.913L471.638 301.1C471.724 301.761 471.159 302.632 470.68 302.575L467.634 302.201C467.51 302.203 467.388 302.237 467.281 302.299C467.174 302.361 467.084 302.449 467.021 302.556L463.974 306.445C463.495 307.068 462.93 306.838 463.016 306.072L463.601 301.215C463.628 301.096 463.625 300.972 463.592 300.854C463.558 300.737 463.495 300.63 463.409 300.544L460.947 298.762C460.554 298.484 460.774 297.469 461.311 297.057L464.721 294.432C464.953 294.227 465.122 293.962 465.21 293.666L466.733 288.665C466.982 287.898 467.682 287.486 467.921 288.004Z" fill="white"/>
<path d="M480.231 54.6062L472.567 57.8921L470.929 66.0639C470.882 66.2884 470.773 66.4954 470.616 66.6618C470.458 66.8282 470.257 66.9474 470.035 67.0061C469.813 67.0647 469.58 67.0605 469.36 66.9939C469.141 66.9274 468.944 66.801 468.792 66.6291L463.303 60.3542L455.016 61.3122C454.779 61.3481 454.536 61.3136 454.318 61.213C454.101 61.1123 453.917 60.9499 453.79 60.7459C453.664 60.5419 453.6 60.3053 453.607 60.0654C453.614 59.8254 453.691 59.5928 453.828 59.3962L458.091 52.2399L454.624 44.6621C454.539 44.4587 454.511 44.2362 454.542 44.0182C454.574 43.8001 454.663 43.5945 454.801 43.423C454.94 43.2514 455.121 43.1203 455.328 43.0433C455.534 42.9664 455.758 42.9465 455.974 42.9856L464.098 44.8346L470.229 39.192C470.398 39.0345 470.607 38.9277 470.833 38.8838C471.059 38.8399 471.294 38.8606 471.509 38.9436C471.724 39.0266 471.911 39.1685 472.049 39.3531C472.187 39.5377 472.27 39.7574 472.289 39.9871L473.046 48.2834L480.307 52.3645C480.521 52.4679 480.701 52.6313 480.823 52.8347C480.946 53.0381 481.007 53.2728 480.999 53.5103C480.991 53.7477 480.914 53.9777 480.778 54.1723C480.641 54.3668 480.451 54.5176 480.231 54.6062Z" fill="#E0E0E0"/>
<path d="M437.993 40.4084C437.925 40.4968 437.844 40.5743 437.753 40.6383C437.591 40.7553 437.399 40.8245 437.199 40.838C436.999 40.8516 436.799 40.8089 436.623 40.715L432.36 38.4732L428.087 40.715C427.91 40.8089 427.71 40.8516 427.511 40.838C427.311 40.8245 427.119 40.7553 426.956 40.6383C426.792 40.522 426.665 40.3607 426.59 40.1737C426.515 39.9867 426.496 39.7821 426.535 39.5845L427.349 34.7945L423.891 31.4319C423.747 31.2923 423.645 31.1148 423.598 30.9198C423.55 30.7249 423.559 30.5205 423.623 30.3302C423.682 30.1396 423.795 29.97 423.948 29.8411C424.101 29.7122 424.287 29.6293 424.485 29.6022L429.275 28.9124L431.411 24.5822C431.499 24.4034 431.636 24.2529 431.805 24.1479C431.974 24.0429 432.17 23.9876 432.369 23.9883C432.568 23.9898 432.762 24.046 432.931 24.1507C433.1 24.2555 433.237 24.4048 433.327 24.5822L435.463 28.9124L440.253 29.6022C440.451 29.6311 440.637 29.7148 440.79 29.8439C440.943 29.973 441.057 30.1422 441.119 30.3326C441.181 30.5229 441.188 30.7267 441.14 30.921C441.092 31.1152 440.991 31.2922 440.847 31.4319L437.389 34.7945L438.213 39.5845C438.25 39.8774 438.171 40.1731 437.993 40.4084ZM424.36 30.4548L424.303 30.5793C424.279 30.6509 424.276 30.7277 424.295 30.8008C424.314 30.8738 424.353 30.94 424.408 30.9913L428.106 34.6029L427.234 39.6995C427.222 39.7745 427.232 39.8513 427.261 39.9215C427.29 39.9916 427.338 40.0523 427.399 40.0969C427.461 40.1415 427.533 40.1683 427.609 40.1742C427.685 40.1802 427.76 40.1651 427.828 40.1306L432.407 37.726L436.977 40.1306C437.043 40.1684 437.117 40.1883 437.193 40.1883C437.268 40.1883 437.343 40.1684 437.408 40.1306C437.472 40.0869 437.521 40.0255 437.55 39.9539C437.579 39.8824 437.586 39.8039 437.571 39.7282L436.699 34.6317L440.397 31.02C440.45 30.9674 440.489 30.9013 440.507 30.8287C440.526 30.7561 440.524 30.6798 440.503 30.6081C440.481 30.5352 440.439 30.4702 440.381 30.4209C440.323 30.3716 440.252 30.3401 440.177 30.3302L435.051 29.583L432.714 24.908C432.682 24.8384 432.631 24.7795 432.566 24.7387C432.502 24.6978 432.426 24.6768 432.35 24.678C432.281 24.6857 432.214 24.7108 432.157 24.751C432.1 24.7912 432.055 24.8452 432.024 24.908L429.744 29.5447L424.619 30.2919C424.516 30.3128 424.424 30.3707 424.36 30.4548Z" fill="#E0E0E0"/>
<path d="M384.641 104.422C377.427 100.245 367.512 100.811 356.552 107.133C334.518 119.875 316.613 151.077 316.613 176.838C316.613 189.799 321.154 198.872 328.464 203.115C330.159 204.073 336.789 207.905 336.789 207.905C336.478 210.821 335.471 213.619 333.852 216.063C332.233 218.507 330.05 220.526 327.487 221.95C327.065 222.189 327.324 222.601 327.697 222.812L337.823 228.665C337.96 228.747 338.115 228.793 338.274 228.799C348.246 228.799 359.79 222.093 363.009 208.164C364.216 207.589 365.433 206.967 366.669 206.248C388.703 193.516 406.608 162.305 406.608 136.554C406.608 123.582 402.076 114.52 394.767 110.247L384.641 104.422Z" fill="#37474F"/>
<path d="M366.669 112.977C344.635 125.709 326.729 156.92 326.729 182.671C326.729 200.155 334.959 210.616 347.144 211.574C346.685 217.131 345.066 223.377 337.564 227.793C336.971 228.148 337.746 228.809 338.245 228.809C348.217 228.809 359.761 222.103 362.98 208.173C364.187 207.598 365.404 206.976 366.64 206.257C388.674 193.525 406.579 162.314 406.579 136.563C406.579 110.812 388.722 100.245 366.669 112.977Z" fill="#455A64"/>
<path d="M337.594 227.794C337.23 228.024 337.392 228.359 337.699 228.589L327.697 222.841C327.324 222.611 327.065 222.218 327.487 221.969C330.055 220.543 332.242 218.518 333.862 216.067C335.481 213.615 336.485 210.809 336.789 207.887L337.891 208.538L338.906 209.132C341.444 210.527 344.256 211.351 347.145 211.546C346.695 217.131 345.066 223.378 337.594 227.794Z" fill="#263238"/>
<path d="M362.453 186.706C361.39 185.949 360.854 184.588 360.854 182.625C360.877 180.578 361.417 178.571 362.425 176.79C363.34 175.01 364.733 173.521 366.448 172.489C368.077 171.55 369.415 171.438 370.462 172.154C371.506 172.863 372.033 174.204 372.033 176.168C372.002 178.25 371.452 180.291 370.434 182.107C369.541 183.906 368.16 185.416 366.448 186.466C364.858 187.376 363.526 187.462 362.453 186.706ZM361.026 134.629L371.861 128.373L370.05 164.892L362.837 169.059L361.026 134.629Z" fill="#FAFAFA"/>
<path opacity="0.2" d="M371.995 202.76C383.759 194.138 393.905 180.468 400.112 165.791C388.348 174.423 378.203 188.084 371.995 202.76Z" fill="black"/>
<path d="M447.218 252.672C443.137 252.72 440.1 249.865 438.193 246.272C450.417 231.241 458.685 211.219 458.685 193.707C458.685 180.726 454.134 171.606 446.806 167.391L436.699 161.566C429.485 157.399 419.579 157.973 408.629 164.287C386.595 177.028 368.69 208.23 368.69 233.991C368.69 246.952 373.222 256.025 380.531 260.288C382.237 261.246 388.952 265.135 390.609 266.103C397.833 270.308 407.767 269.753 418.746 263.411C421.686 261.7 424.477 259.745 427.09 257.567C434.505 263.44 443.549 257.04 447.131 253.975C447.61 253.572 447.668 252.672 447.218 252.672Z" fill="#E0E0E0"/>
<path d="M401.071 268.24C387.716 268.24 379.43 257.366 379.43 239.873C379.43 214.352 397.21 183.351 419.053 170.715C425.165 167.19 431.008 165.398 436.421 165.398C449.766 165.398 458.062 176.262 458.062 193.765C458.062 210.501 450.264 230.495 437.714 245.928L437.456 246.254L437.647 246.618C439.899 250.862 443.165 253.237 446.863 253.324C446.837 253.404 446.791 253.477 446.729 253.534C444.181 255.719 439.123 259.369 433.882 259.369C431.549 259.379 429.284 258.58 427.473 257.108L427.081 256.801L426.688 257.117C424.099 259.258 421.337 261.181 418.43 262.865C412.327 266.4 406.484 268.24 401.071 268.24Z" fill="#FAFAFA"/>
<path d="M436.421 164.775V166.021C449.383 166.021 457.44 176.655 457.44 193.755C457.44 210.367 449.699 230.207 437.235 245.535L436.708 246.177L437.101 246.905C439.17 250.813 442.083 253.218 445.426 253.822C442.773 255.939 438.375 258.765 433.882 258.765C431.688 258.775 429.558 258.023 427.856 256.638L427.071 256.015L426.295 256.657C423.734 258.795 421 260.717 418.123 262.405C412.107 265.873 406.369 267.636 401.071 267.636C388.109 267.636 380.052 257.002 380.052 239.854C380.052 214.534 397.689 183.753 419.33 171.232C425.347 167.764 431.085 166.002 436.383 166.002V164.775M436.383 164.775C431.056 164.775 425.059 166.509 418.708 170.179C396.674 182.91 378.769 214.112 378.769 239.873C378.769 258.219 387.841 268.862 401.032 268.862C406.359 268.862 412.356 267.128 418.708 263.459C421.648 261.748 424.439 259.793 427.052 257.615C428.968 259.18 431.37 260.027 433.844 260.01C439.324 260.01 444.564 256.178 447.093 254.023C447.572 253.62 447.63 252.72 447.179 252.72H447.084C443.06 252.72 440.052 249.894 438.155 246.32C450.379 231.289 458.647 211.267 458.647 193.755C458.647 175.409 449.574 164.775 436.383 164.775Z" fill="#A77CFF"/>
<path d="M416.695 221.154C417.858 218.366 419.192 215.653 420.69 213.03C421.723 211.23 422.663 209.379 423.507 207.483C424.088 206.183 424.398 204.778 424.417 203.355C424.417 201.439 423.842 200.26 422.693 199.8C421.543 199.34 420.029 199.676 418.123 200.758C416.238 201.864 414.588 203.329 413.266 205.069C411.789 206.997 410.584 209.118 409.683 211.373L402.642 209.926C404.217 205.766 406.448 201.885 409.252 198.43C411.995 195.04 415.34 192.186 419.119 190.01C423.59 187.455 427.17 186.657 429.858 187.615C432.547 188.573 433.895 191.312 433.901 195.834C433.914 197.875 433.649 199.909 433.116 201.879C432.643 203.664 432.002 205.399 431.2 207.062C430.443 208.614 429.456 210.463 428.259 212.609C427.098 214.589 426.048 216.633 425.116 218.73C424.474 220.245 424.148 221.875 424.158 223.52L415.373 228.598C415.338 226.055 415.787 223.529 416.695 221.154ZM415.737 245.803C414.674 245.047 414.138 243.686 414.138 241.713C414.161 239.667 414.701 237.66 415.709 235.879C416.623 234.101 418.013 232.612 419.723 231.577C421.361 230.619 422.693 230.523 423.746 231.242C424.8 231.96 425.317 233.302 425.317 235.265C425.285 237.344 424.735 239.382 423.718 241.196C422.824 242.997 421.439 244.508 419.723 245.554C418.18 246.474 416.858 246.551 415.785 245.803H415.737Z" fill="#455A64"/>
<path d="M214.347 177.518L170.279 203.039L187.782 232.794C188.119 233.597 188.707 234.269 189.458 234.71C191.547 235.889 203.915 243.054 204.595 243.447C205.125 243.753 205.718 243.935 206.329 243.979C206.94 244.024 207.553 243.929 208.122 243.702C208.691 243.475 209.201 243.122 209.614 242.67C210.026 242.218 210.331 241.678 210.506 241.09L229.512 186.312L214.347 177.518Z" fill="#A77CFF"/>
<path opacity="0.2" d="M214.347 177.518L170.279 203.039L187.782 232.794C188.119 233.597 188.707 234.269 189.458 234.71C191.547 235.889 203.915 243.054 204.595 243.447C205.125 243.753 205.718 243.935 206.329 243.979C206.94 244.024 207.553 243.929 208.122 243.702C208.691 243.475 209.201 243.122 209.614 242.67C210.026 242.218 210.331 241.678 210.506 241.09L229.512 186.312L214.347 177.518Z" fill="black"/>
<path d="M185.444 211.795L202.947 241.55C203.281 242.306 203.84 242.941 204.547 243.368C205.254 243.796 206.076 243.997 206.9 243.942C207.725 243.888 208.513 243.582 209.158 243.065C209.803 242.548 210.273 241.845 210.506 241.052L229.512 186.273L185.444 211.795Z" fill="#A77CFF"/>
<path d="M263.511 24.908L97.3271 120.833C96.213 121.555 95.2852 122.53 94.6193 123.679C93.9534 124.827 93.5682 126.117 93.4951 127.443V242.776C93.5657 244.097 93.9501 245.383 94.6165 246.526C95.283 247.668 96.2121 248.636 97.3271 249.348L110.998 257.012C112.187 257.61 113.499 257.922 114.83 257.922C116.161 257.922 117.473 257.61 118.662 257.012L284.856 161.03C285.968 160.306 286.895 159.331 287.56 158.182C288.226 157.034 288.612 155.745 288.688 154.42V39.0864C288.616 37.7655 288.232 36.4805 287.565 35.3377C286.899 34.195 285.97 33.2272 284.856 32.5145L271.195 24.8505C269.998 24.2596 268.68 23.9571 267.346 23.967C266.012 23.977 264.699 24.2993 263.511 24.908Z" fill="#A77CFF"/>
<path opacity="0.3" d="M288.621 38.3872C288.314 36.4712 286.752 35.7815 284.846 36.8736L118.671 132.827C117.539 133.534 116.611 134.525 115.979 135.701L94.7021 123.582C95.3407 122.476 96.2423 121.545 97.3271 120.871L263.521 24.9082C264.71 24.3122 266.022 24.002 267.353 24.002C268.683 24.002 269.995 24.3122 271.185 24.9082L284.846 32.5722C285.852 33.218 286.709 34.0706 287.359 35.0733C288.01 36.0759 288.44 37.2056 288.621 38.3872Z" fill="white"/>
<path d="M114.849 255.212V139.869C114.922 138.544 115.307 137.256 115.973 136.109C116.639 134.962 117.567 133.988 118.681 133.268L284.855 37.3628C286.953 36.1462 288.687 37.1329 288.687 39.5662V154.862C288.612 156.187 288.226 157.476 287.56 158.624C286.894 159.772 285.968 160.748 284.855 161.472L118.661 257.415C116.554 258.661 114.849 257.645 114.849 255.212Z" fill="#A77CFF"/>
<path opacity="0.2" d="M118.662 256.974C117.469 257.557 116.158 257.86 114.83 257.86C113.502 257.86 112.191 257.557 110.998 256.974L97.3369 249.31C96.2228 248.601 95.294 247.637 94.6275 246.498C93.961 245.358 93.5761 244.076 93.5049 242.757V127.414C93.5729 126.053 93.9921 124.733 94.7215 123.582L115.98 135.682C115.279 136.809 114.889 138.101 114.849 139.427V254.761C114.849 256.993 116.42 258.277 118.662 256.974Z" fill="black"/>
<path d="M161.475 162.861L159.818 161.903C159.183 161.54 158.465 161.349 157.734 161.349C157.003 161.349 156.285 161.54 155.651 161.903L145.524 167.747V153.913L164.273 143.097C165.15 142.579 165.877 141.841 166.381 140.955C166.885 140.07 167.149 139.068 167.147 138.049V130.289C167.149 129.27 166.885 128.268 166.381 127.382C165.877 126.496 165.15 125.758 164.273 125.24C163.386 124.727 162.38 124.457 161.355 124.457C160.331 124.457 159.325 124.727 158.438 125.24L132.438 140.252C130.899 141.14 129.621 142.417 128.733 143.956C127.845 145.495 127.378 147.241 127.38 149.018V221.05C127.376 222.07 127.639 223.074 128.143 223.962C128.647 224.849 129.375 225.589 130.254 226.108C131.141 226.619 132.147 226.888 133.171 226.888C134.195 226.888 135.201 226.619 136.088 226.108L142.574 222.372C143.453 221.853 144.181 221.113 144.685 220.226C145.189 219.338 145.452 218.334 145.448 217.314V189.053L161.408 179.837C162.04 179.469 162.565 178.942 162.93 178.309C163.295 177.675 163.487 176.956 163.487 176.225V166.492C163.5 165.763 163.321 165.044 162.968 164.406C162.615 163.769 162.1 163.236 161.475 162.861Z" fill="#E0E0E0"/>
<path opacity="0.1" d="M136.682 225.764L136.126 226.089C135.239 226.599 134.233 226.868 133.21 226.867C132.187 226.866 131.181 226.597 130.295 226.086C129.408 225.574 128.672 224.839 128.158 223.954C127.645 223.069 127.373 222.064 127.37 221.041V149.009C127.373 147.336 127.791 145.69 128.587 144.219L134.421 147.581C133.622 149.051 133.203 150.698 133.204 152.371V223.733C133.206 224.139 133.314 224.539 133.517 224.891C133.72 225.243 134.012 225.536 134.363 225.742C134.714 225.947 135.113 226.057 135.519 226.06C135.926 226.064 136.327 225.962 136.682 225.764Z" fill="black"/>
<path d="M145.524 153.914V174.492L161.455 165.304C161.669 165.179 161.911 165.112 162.159 165.111C162.406 165.11 162.649 165.175 162.864 165.299C163.078 165.422 163.256 165.601 163.378 165.815C163.501 166.03 163.565 166.274 163.563 166.521V176.273C163.563 177.001 163.371 177.716 163.008 178.346C162.645 178.976 162.123 179.5 161.494 179.866L145.524 189.082V217.333C145.528 218.351 145.265 219.353 144.76 220.237C144.256 221.121 143.528 221.857 142.65 222.372L136.749 225.783C136.394 225.989 135.992 226.097 135.582 226.098C135.172 226.098 134.77 225.99 134.415 225.785C134.06 225.58 133.766 225.285 133.562 224.929C133.357 224.574 133.251 224.171 133.252 223.761V152.371C133.252 150.595 133.72 148.85 134.607 147.311C135.495 145.773 136.772 144.495 138.31 143.606L164.061 128.737C164.382 128.552 164.746 128.455 165.116 128.455C165.487 128.455 165.85 128.553 166.171 128.739C166.491 128.924 166.757 129.191 166.942 129.512C167.127 129.833 167.223 130.197 167.223 130.567V138.068C167.225 139.084 166.961 140.082 166.457 140.962C165.952 141.843 165.225 142.577 164.349 143.088L145.524 153.914Z" fill="#FAFAFA"/>
<path d="M201.146 110.4C200.851 109.4 200.332 108.48 199.63 107.708C198.928 106.937 198.06 106.336 197.092 105.948C196.124 105.561 195.081 105.398 194.04 105.473C193 105.547 191.99 105.856 191.087 106.376L184.639 110.103C183.809 110.581 183.088 111.228 182.522 112.002C181.956 112.776 181.558 113.659 181.354 114.596L162.126 202.138C161.976 202.876 162.06 203.642 162.368 204.33C162.675 205.017 163.191 205.591 163.841 205.97L165.604 206.985C166.15 207.301 166.77 207.467 167.4 207.467C168.031 207.467 168.65 207.301 169.197 206.985L176.966 202.502C178.047 201.84 178.928 200.896 179.514 199.772C180.169 198.636 180.651 197.409 180.942 196.131L184.065 180.171L199.776 171.099L201.404 177.584C201.635 178.43 202.162 179.165 202.889 179.654C203.541 180.037 208.072 182.633 208.724 183.026C209.144 183.206 209.606 183.269 210.06 183.208C210.513 183.148 210.942 182.965 211.301 182.681L220.785 177.201L201.146 110.4ZM188.376 158.137L191.738 140.826L191.939 139.868L195.503 154.018L188.376 158.137Z" fill="#E0E0E0"/>
<path opacity="0.1" d="M208.647 182.979C207.794 182.471 203.521 180.028 202.899 179.655C202.171 179.166 201.644 178.431 201.414 177.585L199.785 171.1L204.134 168.59L207.248 180.948C207.478 181.761 207.969 182.475 208.647 182.979Z" fill="black"/>
<path opacity="0.1" d="M201.337 157.381L195.503 154.009L191.939 139.869C191.939 139.869 191.939 139.869 191.939 139.811C192.246 138.432 192.553 136.86 192.897 135.117C193.309 132.942 193.693 130.624 194.057 128.143C194.472 130.135 194.884 131.971 195.292 133.651C195.704 135.328 196.088 136.765 196.452 137.972L201.337 157.381Z" fill="black"/>
<path opacity="0.1" d="M168.066 205.013C168.014 205.243 168.023 205.483 168.091 205.708C168.16 205.934 168.285 206.138 168.456 206.3C168.627 206.462 168.838 206.577 169.066 206.634C169.295 206.691 169.535 206.687 169.762 206.623V206.699L169.216 207.006C168.67 207.321 168.05 207.487 167.419 207.487C166.789 207.487 166.169 207.321 165.623 207.006L163.841 205.971C163.191 205.592 162.675 205.018 162.368 204.331C162.06 203.644 161.976 202.877 162.126 202.139L181.344 114.636C181.52 113.826 181.845 113.056 182.302 112.365L188.136 115.737C187.674 116.422 187.349 117.19 187.178 117.998L168.066 205.013Z" fill="black"/>
<path d="M220.794 177.231L211.301 182.71C210.237 183.324 209.385 183.438 208.733 183.055C208.007 182.565 207.48 181.831 207.248 180.986L204.135 168.609L184.017 180.191L180.903 196.151C180.603 197.431 180.119 198.66 179.466 199.801C178.883 200.925 178.001 201.866 176.918 202.522L170.049 206.498C169.818 206.629 169.554 206.69 169.289 206.675C169.023 206.66 168.768 206.568 168.554 206.412C168.339 206.255 168.174 206.039 168.079 205.791C167.984 205.543 167.963 205.273 168.018 205.013L187.13 117.969C187.336 117.034 187.734 116.152 188.3 115.38C188.866 114.608 189.587 113.963 190.416 113.485L196.614 109.902C197.055 109.648 197.548 109.498 198.055 109.462C198.562 109.426 199.071 109.505 199.543 109.694C200.016 109.883 200.439 110.177 200.781 110.553C201.123 110.929 201.376 111.378 201.519 111.866L220.794 177.231ZM201.337 157.4L196.452 137.953C196.088 136.755 195.704 135.309 195.292 133.632C194.88 131.956 194.469 130.116 194.057 128.124C193.702 130.605 193.309 132.914 192.907 135.098C192.505 137.282 192.102 139.16 191.738 140.788L186.891 165.696L201.337 157.4Z" fill="#FAFAFA"/>
<path d="M266.203 143.701C267.877 140.825 269.346 137.835 270.601 134.753C271.897 131.576 272.985 128.319 273.858 125.001C274.739 121.648 275.411 118.244 275.87 114.808C276.34 111.337 276.577 107.839 276.579 104.337C276.681 99.1875 276.022 94.0516 274.624 89.0948C273.627 85.3699 271.718 81.9523 269.068 79.1508C268.233 78.3514 267.3 77.6624 266.29 77.1007L260.542 73.7668C258.722 72.7119 256.675 72.1106 254.573 72.0137C251.201 71.8221 247.465 72.911 243.365 75.2805C239.074 77.8003 235.271 81.0713 232.137 84.9371C228.681 89.1319 225.771 93.7479 223.477 98.6748C218.539 109.301 215.964 120.871 215.928 132.588C215.828 137.745 216.493 142.887 217.901 147.849C218.895 151.585 220.812 155.011 223.477 157.812C224.308 158.636 225.245 159.345 226.264 159.92C227.222 160.456 231.007 162.66 231.945 163.206C233.788 164.272 235.863 164.874 237.99 164.959C241.363 165.125 245.105 164.023 249.218 161.654C250.968 160.644 252.631 159.49 254.19 158.205L256.566 160.935C256.89 161.267 257.257 161.554 257.658 161.788C258.329 162.181 263.1 164.921 263.464 165.141C264.103 165.534 264.851 165.715 265.6 165.658C266.987 165.493 268.32 165.018 269.499 164.269L279.568 158.464L266.203 143.701ZM257.217 119.655C256.607 123.035 255.627 126.337 254.296 129.503C253.128 132.309 251.563 134.932 249.649 137.292C247.901 139.446 245.779 141.266 243.384 142.666C241.629 143.803 239.608 144.463 237.521 144.582C236.471 142.881 235.722 141.011 235.308 139.055C234.571 135.669 234.23 132.21 234.293 128.746C234.274 124.91 234.614 121.081 235.308 117.308C235.903 113.93 236.866 110.627 238.182 107.46C239.361 104.642 240.935 102.007 242.857 99.6328C244.617 97.4502 246.759 95.6062 249.18 94.1914C250.903 93.0893 252.885 92.4553 254.928 92.352C255.989 94.0683 256.747 95.9543 257.17 97.9276C257.921 101.317 258.278 104.783 258.233 108.255C258.244 112.091 257.905 115.92 257.217 119.693V119.655Z" fill="#E0E0E0"/>
<path opacity="0.1" d="M231.706 163.101C230.489 162.401 227.146 160.457 226.264 159.958C225.245 159.384 224.308 158.675 223.477 157.851C220.812 155.05 218.895 151.624 217.901 147.888C216.493 142.926 215.828 137.783 215.928 132.627C215.927 126.727 216.589 120.847 217.901 115.095C219.07 109.857 220.764 104.751 222.959 99.8535L228.794 103.226C224.186 113.552 221.791 124.729 221.762 136.037C221.662 141.191 222.327 146.33 223.735 151.289C224.727 155.028 226.645 158.458 229.311 161.261C230.039 161.96 230.843 162.577 231.706 163.101Z" fill="black"/>
<path opacity="0.1" d="M260.129 94.8433C259.566 94.137 258.862 93.5552 258.062 93.1347C257.263 92.7142 256.384 92.4642 255.483 92.4004C255.32 92.4004 255.148 92.4004 254.985 92.4004C256.041 94.1146 256.796 95.9972 257.217 97.9664C257.949 101.346 258.29 104.798 258.232 108.255C258.248 112.11 257.908 115.959 257.217 119.751C256.607 123.131 255.627 126.434 254.295 129.6C253.127 132.405 251.563 135.028 249.649 137.388C247.901 139.542 245.778 141.363 243.383 142.762C241.629 143.899 239.608 144.56 237.521 144.678C237.729 145.015 237.963 145.335 238.22 145.636C238.782 146.348 239.49 146.931 240.296 147.346C241.103 147.761 241.989 147.998 242.895 148.041C245.144 148.03 247.341 147.364 249.218 146.125C251.613 144.725 253.735 142.905 255.483 140.751C257.393 138.388 258.957 135.765 260.129 132.962C261.462 129.793 262.442 126.488 263.051 123.104C263.742 119.312 264.082 115.463 264.067 111.608C264.122 108.161 263.781 104.718 263.051 101.348C262.595 98.9827 261.594 96.7557 260.129 94.8433Z" fill="black"/>
<path opacity="0.1" d="M255.848 156.807C255.302 157.305 254.756 157.765 254.19 158.244L256.566 160.974C256.89 161.306 257.258 161.593 257.658 161.827C258.31 162.21 262.803 164.787 263.406 165.151C263.035 164.923 262.694 164.649 262.391 164.337L255.848 156.807Z" fill="black"/>
<path d="M279.568 158.501L269.499 164.316C268.32 165.057 266.992 165.528 265.61 165.696C265.007 165.726 264.405 165.619 263.849 165.383C263.294 165.148 262.798 164.789 262.401 164.335L255.848 156.806C253.822 158.67 251.599 160.308 249.218 161.691C245.105 164.061 241.363 165.162 237.991 164.996C234.725 164.876 231.626 163.528 229.311 161.222C226.649 158.416 224.732 154.987 223.736 151.249C222.336 146.302 221.671 141.176 221.762 136.036C221.798 124.319 224.374 112.749 229.311 102.123C231.61 97.1849 234.526 92.5591 237.991 88.3564C241.126 84.4927 244.929 81.2222 249.218 78.6998C253.319 76.3239 257.055 75.235 260.427 75.433C263.679 75.5883 266.755 76.9553 269.049 79.265C271.704 82.0663 273.614 85.4885 274.605 89.2186C276.012 94.1577 276.677 99.2781 276.579 104.413C276.58 107.915 276.346 111.413 275.88 114.883C275.411 118.335 274.733 121.755 273.849 125.124C272.972 128.439 271.881 131.694 270.582 134.867C269.331 137.951 267.861 140.941 266.185 143.815L279.568 158.501ZM234.293 128.803C234.231 132.27 234.572 135.733 235.308 139.121C235.76 141.473 236.743 143.692 238.182 145.607C238.748 146.314 239.457 146.894 240.263 147.309C241.068 147.723 241.953 147.962 242.857 148.011C245.106 147.999 247.303 147.333 249.18 146.095C251.575 144.695 253.697 142.875 255.445 140.721C257.358 138.358 258.926 135.736 260.101 132.932C261.418 129.762 262.382 126.456 262.975 123.074C263.672 119.282 264.012 115.434 263.991 111.578C264.051 108.13 263.71 104.687 262.975 101.318C262.526 98.9648 261.543 96.746 260.101 94.8325C259.536 94.1259 258.831 93.544 258.029 93.1236C257.228 92.7032 256.348 92.4532 255.445 92.3896C253.221 92.3714 251.041 93.0113 249.18 94.229C246.758 95.6373 244.615 97.4784 242.857 99.6608C240.939 102.037 239.365 104.672 238.182 107.488C236.871 110.657 235.908 113.959 235.308 117.336C234.616 121.106 234.276 124.932 234.293 128.765V128.803Z" fill="#FAFAFA"/>
</svg>
