<svg width="126" height="168" viewBox="0 0 126 168" fill="none" xmlns="http://www.w3.org/2000/svg">
<path d="M4.76 161.639L0 163.107L4.76 164.575L8.4 168L7.28 163.107L8.4 158.213L4.76 161.639Z" fill="#AEC2FF"/>
<path d="M4.76 139.037L0 140.505L4.76 141.973L8.4 145.398L7.28 140.505L8.4 135.611L4.76 139.037Z" fill="#AEC2FF"/>
<path d="M0 117.903L4.76 116.435L8.4 113.009L7.28 117.903L8.4 122.796L4.76 119.371L0 117.903Z" fill="#AEC2FF"/>
<path d="M4.76 93.8329L0 95.3009L4.76 96.769L8.4 100.194L7.28 95.3009L8.4 90.4075L4.76 93.8329Z" fill="#AEC2FF"/>
<path d="M0 72.6991L4.76 71.231L8.4 67.8056L7.28 72.6991L8.4 77.5925L4.76 74.1671L0 72.6991Z" fill="#AEC2FF"/>
<path d="M4.76 48.6291L0 50.0972L4.76 51.5652L8.4 54.9906L7.28 50.0972L8.4 45.2037L4.76 48.6291Z" fill="#AEC2FF"/>
<path d="M0 27.4953L4.76 26.0273L8.4 22.6019L7.28 27.4953L8.4 32.3888L4.76 28.9633L0 27.4953Z" fill="#AEC2FF"/>
<path d="M4.76 3.4254L0 4.89343L4.76 6.36148L8.4 9.78688L7.28 4.89343L8.4 -1.52588e-05L4.76 3.4254Z" fill="#AEC2FF"/>
<path d="M16.8 163.107L21.56 161.639L25.2 158.213L24.08 163.107L25.2 168L21.56 164.575L16.8 163.107Z" fill="#AEC2FF"/>
<path d="M21.56 139.037L16.8 140.505L21.56 141.973L25.2 145.398L24.08 140.505L25.2 135.611L21.56 139.037Z" fill="#AEC2FF"/>
<path d="M16.8 117.903L21.56 116.435L25.2 113.009L24.08 117.903L25.2 122.796L21.56 119.371L16.8 117.903Z" fill="#AEC2FF"/>
<path d="M21.56 93.8329L16.8 95.3009L21.56 96.769L25.2 100.194L24.08 95.3009L25.2 90.4075L21.56 93.8329Z" fill="#AEC2FF"/>
<path d="M16.8 72.6991L21.56 71.231L25.2 67.8056L24.08 72.6991L25.2 77.5925L21.56 74.1671L16.8 72.6991Z" fill="#AEC2FF"/>
<path d="M21.56 48.6291L16.8 50.0972L21.56 51.5652L25.2 54.9906L24.08 50.0972L25.2 45.2037L21.56 48.6291Z" fill="#AEC2FF"/>
<path d="M16.8 27.4953L21.56 26.0273L25.2 22.6019L24.08 27.4953L25.2 32.3888L21.56 28.9633L16.8 27.4953Z" fill="#AEC2FF"/>
<path d="M21.56 3.4254L16.8 4.89343L21.56 6.36148L25.2 9.78688L24.08 4.89343L25.2 -1.52588e-05L21.56 3.4254Z" fill="#AEC2FF"/>
<path d="M33.6 163.107L38.36 161.639L42 158.213L40.88 163.107L42 168L38.36 164.575L33.6 163.107Z" fill="#AEC2FF"/>
<path d="M38.36 139.037L33.6 140.505L38.36 141.973L42 145.398L40.88 140.505L42 135.611L38.36 139.037Z" fill="#AEC2FF"/>
<path d="M33.6 117.903L38.36 116.435L42 113.009L40.88 117.903L42 122.796L38.36 119.371L33.6 117.903Z" fill="#AEC2FF"/>
<path d="M38.36 93.8329L33.6 95.3009L38.36 96.769L42 100.194L40.88 95.3009L42 90.4075L38.36 93.8329Z" fill="#AEC2FF"/>
<path d="M33.6 72.6991L38.36 71.231L42 67.8056L40.88 72.6991L42 77.5925L38.36 74.1671L33.6 72.6991Z" fill="#AEC2FF"/>
<path d="M38.36 48.6291L33.6 50.0972L38.36 51.5652L42 54.9906L40.88 50.0972L42 45.2037L38.36 48.6291Z" fill="#AEC2FF"/>
<path d="M33.6 27.4953L38.36 26.0273L42 22.6019L40.88 27.4953L42 32.3888L38.36 28.9633L33.6 27.4953Z" fill="#AEC2FF"/>
<path d="M38.36 3.4254L33.6 4.89343L38.36 6.36148L42 9.78688L40.88 4.89343L42 -1.52588e-05L38.36 3.4254Z" fill="#AEC2FF"/>
<path d="M50.4 163.107L55.16 161.639L58.8 158.213L57.68 163.107L58.8 168L55.16 164.575L50.4 163.107Z" fill="#AEC2FF"/>
<path d="M55.16 139.037L50.4 140.505L55.16 141.973L58.8 145.398L57.68 140.505L58.8 135.611L55.16 139.037Z" fill="#AEC2FF"/>
<path d="M50.4 117.903L55.16 116.435L58.8 113.009L57.68 117.903L58.8 122.796L55.16 119.371L50.4 117.903Z" fill="#AEC2FF"/>
<path d="M55.16 93.8329L50.4 95.3009L55.16 96.769L58.8 100.194L57.68 95.3009L58.8 90.4075L55.16 93.8329Z" fill="#AEC2FF"/>
<path d="M50.4 72.6991L55.16 71.231L58.8 67.8056L57.68 72.6991L58.8 77.5925L55.16 74.1671L50.4 72.6991Z" fill="#AEC2FF"/>
<path d="M55.16 48.6291L50.4 50.0972L55.16 51.5652L58.8 54.9906L57.68 50.0972L58.8 45.2037L55.16 48.6291Z" fill="#AEC2FF"/>
<path d="M50.4 27.4953L55.16 26.0273L58.8 22.6019L57.68 27.4953L58.8 32.3888L55.16 28.9633L50.4 27.4953Z" fill="#AEC2FF"/>
<path d="M55.16 3.4254L50.4 4.89343L55.16 6.36148L58.8 9.78688L57.68 4.89343L58.8 -1.52588e-05L55.16 3.4254Z" fill="#AEC2FF"/>
<path d="M67.2 163.107L71.96 161.639L75.6 158.213L74.48 163.107L75.6 168L71.96 164.575L67.2 163.107Z" fill="#AEC2FF"/>
<path d="M71.96 139.037L67.2 140.505L71.96 141.973L75.6 145.398L74.48 140.505L75.6 135.611L71.96 139.037Z" fill="#AEC2FF"/>
<path d="M67.2 117.903L71.96 116.435L75.6 113.009L74.48 117.903L75.6 122.796L71.96 119.371L67.2 117.903Z" fill="#AEC2FF"/>
<path d="M71.96 93.8329L67.2 95.3009L71.96 96.769L75.6 100.194L74.48 95.3009L75.6 90.4075L71.96 93.8329Z" fill="#AEC2FF"/>
<path d="M67.2 72.6991L71.96 71.231L75.6 67.8056L74.48 72.6991L75.6 77.5925L71.96 74.1671L67.2 72.6991Z" fill="#AEC2FF"/>
<path d="M71.96 48.6291L67.2 50.0972L71.96 51.5652L75.6 54.9906L74.48 50.0972L75.6 45.2037L71.96 48.6291Z" fill="#AEC2FF"/>
<path d="M67.2 27.4953L71.96 26.0273L75.6 22.6019L74.48 27.4953L75.6 32.3888L71.96 28.9633L67.2 27.4953Z" fill="#AEC2FF"/>
<path d="M71.96 3.4254L67.2 4.89343L71.96 6.36148L75.6 9.78688L74.48 4.89343L75.6 -1.52588e-05L71.96 3.4254Z" fill="#AEC2FF"/>
<path d="M84 163.107L88.76 161.639L92.4 158.213L91.28 163.107L92.4 168L88.76 164.575L84 163.107Z" fill="#AEC2FF"/>
<path d="M88.76 139.037L84 140.505L88.76 141.973L92.4 145.398L91.28 140.505L92.4 135.611L88.76 139.037Z" fill="#AEC2FF"/>
<path d="M84 117.903L88.76 116.435L92.4 113.009L91.28 117.903L92.4 122.796L88.76 119.371L84 117.903Z" fill="#AEC2FF"/>
<path d="M88.76 93.8329L84 95.3009L88.76 96.769L92.4 100.194L91.28 95.3009L92.4 90.4075L88.76 93.8329Z" fill="#AEC2FF"/>
<path d="M84 72.6991L88.76 71.231L92.4 67.8056L91.28 72.6991L92.4 77.5925L88.76 74.1671L84 72.6991Z" fill="#AEC2FF"/>
<path d="M88.76 48.6291L84 50.0972L88.76 51.5652L92.4 54.9906L91.28 50.0972L92.4 45.2037L88.76 48.6291Z" fill="#AEC2FF"/>
<path d="M84 27.4953L88.76 26.0273L92.4 22.6019L91.28 27.4953L92.4 32.3888L88.76 28.9633L84 27.4953Z" fill="#AEC2FF"/>
<path d="M88.76 3.4254L84 4.89343L88.76 6.36148L92.4 9.78688L91.28 4.89343L92.4 -1.52588e-05L88.76 3.4254Z" fill="#AEC2FF"/>
<path d="M100.8 163.107L105.56 161.639L109.2 158.213L108.08 163.107L109.2 168L105.56 164.575L100.8 163.107Z" fill="#AEC2FF"/>
<path d="M105.56 139.037L100.8 140.505L105.56 141.973L109.2 145.398L108.08 140.505L109.2 135.611L105.56 139.037Z" fill="#AEC2FF"/>
<path d="M100.8 117.903L105.56 116.435L109.2 113.009L108.08 117.903L109.2 122.796L105.56 119.371L100.8 117.903Z" fill="#AEC2FF"/>
<path d="M105.56 93.8329L100.8 95.3009L105.56 96.769L109.2 100.194L108.08 95.3009L109.2 90.4075L105.56 93.8329Z" fill="#AEC2FF"/>
<path d="M100.8 72.6991L105.56 71.231L109.2 67.8056L108.08 72.6991L109.2 77.5925L105.56 74.1671L100.8 72.6991Z" fill="#AEC2FF"/>
<path d="M105.56 48.6291L100.8 50.0972L105.56 51.5652L109.2 54.9906L108.08 50.0972L109.2 45.2037L105.56 48.6291Z" fill="#AEC2FF"/>
<path d="M100.8 27.4953L105.56 26.0273L109.2 22.6019L108.08 27.4953L109.2 32.3888L105.56 28.9633L100.8 27.4953Z" fill="#AEC2FF"/>
<path d="M105.56 3.4254L100.8 4.89343L105.56 6.36148L109.2 9.78688L108.08 4.89343L109.2 -1.52588e-05L105.56 3.4254Z" fill="#AEC2FF"/>
<path d="M117.6 163.107L122.36 161.639L126 158.213L124.88 163.107L126 168L122.36 164.575L117.6 163.107Z" fill="#AEC2FF"/>
<path d="M122.36 139.037L117.6 140.505L122.36 141.973L126 145.398L124.88 140.505L126 135.611L122.36 139.037Z" fill="#AEC2FF"/>
<path d="M117.6 117.903L122.36 116.435L126 113.009L124.88 117.903L126 122.796L122.36 119.371L117.6 117.903Z" fill="#AEC2FF"/>
<path d="M122.36 93.8329L117.6 95.3009L122.36 96.769L126 100.194L124.88 95.3009L126 90.4075L122.36 93.8329Z" fill="#AEC2FF"/>
<path d="M117.6 72.6991L122.36 71.231L126 67.8056L124.88 72.6991L126 77.5925L122.36 74.1671L117.6 72.6991Z" fill="#AEC2FF"/>
<path d="M122.36 48.6291L117.6 50.0972L122.36 51.5652L126 54.9906L124.88 50.0972L126 45.2037L122.36 48.6291Z" fill="#AEC2FF"/>
<path d="M117.6 27.4953L122.36 26.0273L126 22.6019L124.88 27.4953L126 32.3888L122.36 28.9633L117.6 27.4953Z" fill="#AEC2FF"/>
<path d="M122.36 3.4254L117.6 4.89343L122.36 6.36148L126 9.78688L124.88 4.89343L126 -1.52588e-05L122.36 3.4254Z" fill="#AEC2FF"/>
</svg>
